STARTFONT 2.1
COMMENT
COMMENT Converted from OpenType font "Catrinity-Regular.otf" by "otf2bdf 3.0".
COMMENT
FONT -FreeType-Catrinity-Medium-R-Normal--22-160-100-100-P-111-ISO10646-1
SIZE 16 100 100
FONTBOUNDINGBOX 51 29 -13 -9
STARTPROPERTIES 19
FOUNDRY "FreeType"
FAMILY_NAME "Catrinity"
WEIGHT_NAME "Medium"
SLANT "R"
SETWIDTH_NAME "Normal"
ADD_STYLE_NAME ""
PIXEL_SIZE 22
POINT_SIZE 160
RESOLUTION_X 100
RESOLUTION_Y 100
SPACING "P"
AVERAGE_WIDTH 111
CHARSET_REGISTRY "ISO10646"
CHARSET_ENCODING "1"
FONT_ASCENT 18
FONT_DESCENT 8
COPYRIGHT "Typeface © Alexander Lange. 2023. All Rights Reserved"
_OTF_FONTFILE "Catrinity-Regular.otf"
_OTF_PSNAME "Catrinity"
ENDPROPERTIES
CHARS 9984
STARTCHAR 0000
ENCODING 0
SWIDTH 0 0
DWIDTH 0 0
BBX 0 0 0 0
BITMAP
ENDCHAR
STARTCHAR 0008
ENCODING 8
SWIDTH 0 0
DWIDTH 0 0
BBX 0 0 0 0
BITMAP
ENDCHAR
STARTCHAR 0009
ENCODING 9
SWIDTH 225 0
DWIDTH 5 0
BBX 0 0 0 0
BITMAP
ENDCHAR
STARTCHAR 000D
ENCODING 13
SWIDTH 225 0
DWIDTH 5 0
BBX 0 0 0 0
BITMAP
ENDCHAR
STARTCHAR 001D
ENCODING 29
SWIDTH 0 0
DWIDTH 0 0
BBX 0 0 0 0
BITMAP
ENDCHAR
STARTCHAR 0020
ENCODING 32
SWIDTH 225 0
DWIDTH 5 0
BBX 0 0 0 0
BITMAP
ENDCHAR
STARTCHAR 0021
ENCODING 33
SWIDTH 135 0
DWIDTH 3 0
BBX 2 14 1 0
BITMAP
C0
C0
C0
C0
C0
C0
C0
C0
C0
C0
00
00
C0
C0
ENDCHAR
STARTCHAR 0022
ENCODING 34
SWIDTH 270 0
DWIDTH 6 0
BBX 4 4 1 10
BITMAP
D0
D0
D0
D0
ENDCHAR
STARTCHAR 0023
ENCODING 35
SWIDTH 675 0
DWIDTH 15 0
BBX 14 14 1 0
BITMAP
0430
0C20
0C20
0C60
7FFC
0860
1860
1840
1840
FFF8
10C0
10C0
3080
3080
ENDCHAR
STARTCHAR 0024
ENCODING 36
SWIDTH 450 0
DWIDTH 10 0
BBX 9 18 1 -2
BITMAP
0800
0800
3E00
6B00
4B00
4800
6800
7800
1C00
0F00
0B00
0980
C980
C980
7F00
3E00
0800
0800
ENDCHAR
STARTCHAR 0025
ENCODING 37
SWIDTH 630 0
DWIDTH 14 0
BBX 12 14 1 1
BITMAP
7830
CC60
C4C0
CD80
7980
0300
0600
0600
0CE0
19F0
1B30
3330
63B0
C1E0
ENDCHAR
STARTCHAR 0026
ENCODING 38
SWIDTH 540 0
DWIDTH 12 0
BBX 10 15 1 0
BITMAP
0800
3E00
6300
4200
4180
6180
7180
3FC0
6180
C180
C180
C180
C380
77C0
3FC0
ENDCHAR
STARTCHAR 0027
ENCODING 39
SWIDTH 135 0
DWIDTH 3 0
BBX 2 4 1 10
BITMAP
C0
C0
C0
C0
ENDCHAR
STARTCHAR 0028
ENCODING 40
SWIDTH 270 0
DWIDTH 6 0
BBX 4 18 1 -4
BITMAP
30
20
60
60
40
C0
C0
C0
C0
C0
C0
C0
C0
40
60
60
20
30
ENDCHAR
STARTCHAR 0029
ENCODING 41
SWIDTH 270 0
DWIDTH 6 0
BBX 4 18 1 -4
BITMAP
C0
60
20
30
30
30
10
10
10
10
10
10
30
30
30
20
60
C0
ENDCHAR
STARTCHAR 002A
ENCODING 42
SWIDTH 405 0
DWIDTH 9 0
BBX 7 7 1 7
BITMAP
18
52
76
18
F6
52
18
ENDCHAR
STARTCHAR 002B
ENCODING 43
SWIDTH 495 0
DWIDTH 11 0
BBX 10 10 1 2
BITMAP
0C00
0C00
0C00
0C00
FFC0
FFC0
0C00
0C00
0C00
0C00
ENDCHAR
STARTCHAR 002C
ENCODING 44
SWIDTH 180 0
DWIDTH 4 0
BBX 3 6 1 -4
BITMAP
C0
E0
20
20
40
80
ENDCHAR
STARTCHAR 002D
ENCODING 45
SWIDTH 315 0
DWIDTH 7 0
BBX 6 2 1 4
BITMAP
FC
FC
ENDCHAR
STARTCHAR 002E
ENCODING 46
SWIDTH 180 0
DWIDTH 4 0
BBX 2 2 1 0
BITMAP
C0
C0
ENDCHAR
STARTCHAR 002F
ENCODING 47
SWIDTH 405 0
DWIDTH 9 0
BBX 7 14 1 0
BITMAP
06
04
0C
0C
08
18
18
30
30
20
60
60
40
C0
ENDCHAR
STARTCHAR 0030
ENCODING 48
SWIDTH 450 0
DWIDTH 10 0
BBX 9 15 1 0
BITMAP
0800
3E00
6600
6300
4100
C180
C180
C180
C180
C180
C100
4100
6300
3600
1C00
ENDCHAR
STARTCHAR 0031
ENCODING 49
SWIDTH 405 0
DWIDTH 9 0
BBX 7 14 1 0
BITMAP
10
30
F0
10
10
10
10
10
10
10
10
10
FE
FE
ENDCHAR
STARTCHAR 0032
ENCODING 50
SWIDTH 405 0
DWIDTH 9 0
BBX 8 15 1 0
BITMAP
10
7E
66
C3
03
03
06
0C
18
30
60
C0
C0
FF
FF
ENDCHAR
STARTCHAR 0033
ENCODING 51
SWIDTH 450 0
DWIDTH 10 0
BBX 8 15 1 0
BITMAP
10
7C
66
C3
03
03
0E
0E
07
03
01
01
C3
66
3C
ENDCHAR
STARTCHAR 0034
ENCODING 52
SWIDTH 540 0
DWIDTH 12 0
BBX 10 14 1 0
BITMAP
0700
0700
0F00
1B00
1B00
3300
6300
C300
FFC0
FFC0
0300
0300
0300
0300
ENDCHAR
STARTCHAR 0035
ENCODING 53
SWIDTH 450 0
DWIDTH 10 0
BBX 8 14 1 0
BITMAP
7E
60
40
40
FC
EE
C3
03
01
01
03
C3
66
3C
ENDCHAR
STARTCHAR 0036
ENCODING 54
SWIDTH 450 0
DWIDTH 10 0
BBX 9 14 1 1
BITMAP
3F00
3300
6000
4000
C000
C000
FE00
E300
C180
C180
C180
6100
7700
3E00
ENDCHAR
STARTCHAR 0037
ENCODING 55
SWIDTH 495 0
DWIDTH 11 0
BBX 9 14 1 0
BITMAP
FF80
0300
0300
0600
0600
0C00
0C00
0800
1800
1800
1800
1000
3000
3000
ENDCHAR
STARTCHAR 0038
ENCODING 56
SWIDTH 450 0
DWIDTH 10 0
BBX 9 15 1 0
BITMAP
0800
3E00
6300
4300
4100
6300
7700
3E00
6300
C180
C180
C180
C100
7700
3E00
ENDCHAR
STARTCHAR 0039
ENCODING 57
SWIDTH 450 0
DWIDTH 10 0
BBX 9 15 1 0
BITMAP
0800
3E00
6300
C180
C180
C180
C100
7700
3F00
0200
0600
0600
0400
0C00
0C00
ENDCHAR
STARTCHAR 003A
ENCODING 58
SWIDTH 180 0
DWIDTH 4 0
BBX 2 10 1 0
BITMAP
C0
C0
00
00
00
00
00
00
C0
C0
ENDCHAR
STARTCHAR 003B
ENCODING 59
SWIDTH 180 0
DWIDTH 4 0
BBX 3 14 1 -4
BITMAP
C0
C0
00
00
00
00
00
00
C0
E0
20
20
40
80
ENDCHAR
STARTCHAR 003C
ENCODING 60
SWIDTH 495 0
DWIDTH 11 0
BBX 10 8 1 4
BITMAP
01C0
0F80
7C00
E000
F000
3E00
07C0
00C0
ENDCHAR
STARTCHAR 003D
ENCODING 61
SWIDTH 495 0
DWIDTH 11 0
BBX 10 6 1 4
BITMAP
FFC0
FFC0
0000
0000
FFC0
FFC0
ENDCHAR
STARTCHAR 003E
ENCODING 62
SWIDTH 495 0
DWIDTH 11 0
BBX 10 8 1 4
BITMAP
E000
7C00
0F80
01C0
03C0
1F00
F800
C000
ENDCHAR
STARTCHAR 003F
ENCODING 63
SWIDTH 405 0
DWIDTH 9 0
BBX 8 15 1 0
BITMAP
10
7E
66
C3
03
03
06
0E
0C
18
18
00
00
18
18
ENDCHAR
STARTCHAR 0040
ENCODING 64
SWIDTH 945 0
DWIDTH 21 0
BBX 18 19 2 -5
BITMAP
01FC00
070E00
0C0300
180180
31FD80
63BC80
4618C0
C418C0
CC1880
8C1880
8C1980
8C3180
86F300
C7F600
C01E00
600000
300000
1FC000
070000
ENDCHAR
STARTCHAR 0041
ENCODING 65
SWIDTH 630 0
DWIDTH 14 0
BBX 12 14 1 0
BITMAP
0600
0700
0F00
0D00
0980
1980
18C0
3FC0
3FC0
2060
6060
6020
4030
C030
ENDCHAR
STARTCHAR 0042
ENCODING 66
SWIDTH 495 0
DWIDTH 11 0
BBX 9 14 1 0
BITMAP
FE00
C300
C180
C180
C180
C700
FF00
C380
C180
C080
C180
C180
FF00
FE00
ENDCHAR
STARTCHAR 0043
ENCODING 67
SWIDTH 585 0
DWIDTH 13 0
BBX 11 15 1 0
BITMAP
0600
1F80
30C0
6060
6000
C000
C000
C000
C000
C000
C000
6040
6060
39C0
1F80
ENDCHAR
STARTCHAR 0044
ENCODING 68
SWIDTH 630 0
DWIDTH 14 0
BBX 12 14 1 0
BITMAP
FF80
21C0
2060
2060
2030
2030
2030
2030
2030
2030
2060
20E0
FFC0
FF00
ENDCHAR
STARTCHAR 0045
ENCODING 69
SWIDTH 495 0
DWIDTH 11 0
BBX 9 14 1 0
BITMAP
FF80
C000
C000
C000
C000
C000
FF00
FF00
C000
C000
C000
C000
FF80
FF80
ENDCHAR
STARTCHAR 0046
ENCODING 70
SWIDTH 495 0
DWIDTH 11 0
BBX 9 14 1 0
BITMAP
FF80
C000
C000
C000
C000
C000
FF00
FF00
C000
C000
C000
C000
C000
C000
ENDCHAR
STARTCHAR 0047
ENCODING 71
SWIDTH 585 0
DWIDTH 13 0
BBX 11 15 1 0
BITMAP
0600
1F80
30C0
6060
6000
C000
C000
C3E0
C3E0
C060
C060
6060
6060
39C0
1F80
ENDCHAR
STARTCHAR 0048
ENCODING 72
SWIDTH 495 0
DWIDTH 11 0
BBX 9 14 1 0
BITMAP
C080
C080
C080
C080
C080
C080
FF80
FF80
C080
C080
C080
C080
C080
C080
ENDCHAR
STARTCHAR 0049
ENCODING 73
SWIDTH 315 0
DWIDTH 7 0
BBX 5 14 1 0
BITMAP
F8
20
20
20
20
20
20
20
20
20
20
20
F8
F8
ENDCHAR
STARTCHAR 004A
ENCODING 74
SWIDTH 360 0
DWIDTH 8 0
BBX 6 14 1 0
BITMAP
04
04
04
04
04
04
04
04
04
04
04
CC
EC
78
ENDCHAR
STARTCHAR 004B
ENCODING 75
SWIDTH 540 0
DWIDTH 12 0
BBX 10 14 1 0
BITMAP
C300
C300
C600
CC00
D800
D800
F800
F800
EC00
C600
C200
C300
C180
C0C0
ENDCHAR
STARTCHAR 004C
ENCODING 76
SWIDTH 495 0
DWIDTH 11 0
BBX 9 14 1 0
BITMAP
C000
C000
C000
C000
C000
C000
C000
C000
C000
C000
C000
C000
FF80
FF80
ENDCHAR
STARTCHAR 004D
ENCODING 77
SWIDTH 630 0
DWIDTH 14 0
BBX 12 14 1 0
BITMAP
C030
C030
E070
E070
F070
F0D0
D0D0
D890
D990
C990
CD10
CF10
C710
C610
ENDCHAR
STARTCHAR 004E
ENCODING 78
SWIDTH 585 0
DWIDTH 13 0
BBX 11 14 1 0
BITMAP
C020
E020
F020
F020
D820
CC20
C420
C620
C320
C1A0
C1A0
C0E0
C060
C060
ENDCHAR
STARTCHAR 004F
ENCODING 79
SWIDTH 630 0
DWIDTH 14 0
BBX 12 15 1 0
BITMAP
0600
1F80
30C0
6060
6020
C030
C030
C030
C030
C030
C030
6060
6060
39C0
1F80
ENDCHAR
STARTCHAR 0050
ENCODING 80
SWIDTH 450 0
DWIDTH 10 0
BBX 9 14 1 0
BITMAP
FE00
C700
C100
C180
C180
C300
FF00
FC00
C000
C000
C000
C000
C000
C000
ENDCHAR
STARTCHAR 0051
ENCODING 81
SWIDTH 630 0
DWIDTH 14 0
BBX 14 17 1 -2
BITMAP
0600
1F80
30C0
6060
6020
C030
C030
C030
C030
C030
CF30
6FE0
61E0
39C0
1FC8
007C
0010
ENDCHAR
STARTCHAR 0052
ENCODING 82
SWIDTH 495 0
DWIDTH 11 0
BBX 10 14 1 0
BITMAP
FE00
C700
C100
C180
C180
C300
FF00
FC00
C600
C600
C300
C100
C180
C0C0
ENDCHAR
STARTCHAR 0053
ENCODING 83
SWIDTH 450 0
DWIDTH 10 0
BBX 9 15 1 0
BITMAP
0800
3E00
6300
4300
4000
6000
7000
1C00
0700
0300
0180
C180
C180
7700
3E00
ENDCHAR
STARTCHAR 0054
ENCODING 84
SWIDTH 495 0
DWIDTH 11 0
BBX 9 14 1 0
BITMAP
FF80
0800
0800
0800
0800
0800
0800
0800
0800
0800
0800
0800
0800
0800
ENDCHAR
STARTCHAR 0055
ENCODING 85
SWIDTH 585 0
DWIDTH 13 0
BBX 11 14 1 0
BITMAP
C060
C060
C060
C060
C060
C060
C060
C060
C060
C060
C060
60C0
3B80
1F00
ENDCHAR
STARTCHAR 0056
ENCODING 86
SWIDTH 630 0
DWIDTH 14 0
BBX 12 14 1 0
BITMAP
C030
4030
6060
6060
3040
30C0
10C0
1880
1980
0980
0D00
0F00
0700
0600
ENDCHAR
STARTCHAR 0057
ENCODING 87
SWIDTH 855 0
DWIDTH 19 0
BBX 17 14 1 0
BITMAP
C0C180
41C180
61C100
614300
636300
236300
332200
323600
363600
163600
1E1400
1C1C00
0C1C00
0C1800
ENDCHAR
STARTCHAR 0058
ENCODING 88
SWIDTH 630 0
DWIDTH 14 0
BBX 12 14 1 0
BITMAP
6030
6060
30C0
1980
1980
0F00
0600
0700
0F00
1980
18C0
30C0
6060
C030
ENDCHAR
STARTCHAR 0059
ENCODING 89
SWIDTH 630 0
DWIDTH 14 0
BBX 11 14 2 0
BITMAP
C060
C0C0
6180
3300
3300
1E00
0C00
0C00
0C00
0C00
0C00
0C00
0C00
0C00
ENDCHAR
STARTCHAR 005A
ENCODING 90
SWIDTH 495 0
DWIDTH 11 0
BBX 10 14 1 0
BITMAP
FFC0
00C0
0180
0300
0300
0600
0C00
0800
1800
3000
6000
6000
FFC0
FFC0
ENDCHAR
STARTCHAR 005B
ENCODING 91
SWIDTH 270 0
DWIDTH 6 0
BBX 4 18 1 -4
BITMAP
F0
C0
C0
C0
C0
C0
C0
C0
C0
C0
C0
C0
C0
C0
C0
C0
C0
F0
ENDCHAR
STARTCHAR 005C
ENCODING 92
SWIDTH 405 0
DWIDTH 9 0
BBX 7 14 1 0
BITMAP
C0
40
60
60
30
30
10
18
18
08
0C
0C
06
06
ENDCHAR
STARTCHAR 005D
ENCODING 93
SWIDTH 270 0
DWIDTH 6 0
BBX 4 18 1 -4
BITMAP
F0
10
10
10
10
10
10
10
10
10
10
10
10
10
10
10
10
F0
ENDCHAR
STARTCHAR 005E
ENCODING 94
SWIDTH 315 0
DWIDTH 7 0
BBX 5 4 1 10
BITMAP
70
70
50
D8
ENDCHAR
STARTCHAR 005F
ENCODING 95
SWIDTH 495 0
DWIDTH 11 0
BBX 9 2 1 -2
BITMAP
FF80
FF80
ENDCHAR
STARTCHAR 0060
ENCODING 96
SWIDTH 225 0
DWIDTH 5 0
BBX 3 3 2 11
BITMAP
C0
40
20
ENDCHAR
STARTCHAR 0061
ENCODING 97
SWIDTH 405 0
DWIDTH 9 0
BBX 7 10 1 0
BITMAP
3C
7E
06
06
3E
FE
C6
C6
EE
7E
ENDCHAR
STARTCHAR 0062
ENCODING 98
SWIDTH 450 0
DWIDTH 10 0
BBX 9 14 1 0
BITMAP
C000
C000
C000
C000
FE00
F700
C300
C180
C180
C180
C180
C300
F700
FE00
ENDCHAR
STARTCHAR 0063
ENCODING 99
SWIDTH 450 0
DWIDTH 10 0
BBX 8 10 1 0
BITMAP
3E
77
43
C0
C0
C0
C0
43
77
3E
ENDCHAR
STARTCHAR 0064
ENCODING 100
SWIDTH 450 0
DWIDTH 10 0
BBX 9 14 1 0
BITMAP
0180
0180
0180
0180
3F80
7780
4380
C180
C180
C180
C180
4380
7780
3F80
ENDCHAR
STARTCHAR 0065
ENCODING 101
SWIDTH 450 0
DWIDTH 10 0
BBX 9 10 1 0
BITMAP
3E00
7700
4300
C180
FF80
C000
C000
4300
7700
3E00
ENDCHAR
STARTCHAR 0066
ENCODING 102
SWIDTH 315 0
DWIDTH 7 0
BBX 7 14 1 1
BITMAP
1E
30
30
30
30
FC
FC
30
30
30
30
30
30
30
ENDCHAR
STARTCHAR 0067
ENCODING 103
SWIDTH 495 0
DWIDTH 11 0
BBX 10 15 1 -5
BITMAP
3EC0
77C0
C180
C180
C180
6300
7E00
C000
7000
3F00
0180
C180
E300
7F00
1800
ENDCHAR
STARTCHAR 0068
ENCODING 104
SWIDTH 450 0
DWIDTH 10 0
BBX 9 14 1 0
BITMAP
C000
C000
C000
C000
DE00
F700
E100
C180
C180
C180
C180
C180
C180
C180
ENDCHAR
STARTCHAR 0069
ENCODING 105
SWIDTH 135 0
DWIDTH 3 0
BBX 2 14 1 0
BITMAP
C0
C0
00
00
C0
C0
C0
C0
C0
C0
C0
C0
C0
C0
ENDCHAR
STARTCHAR 006A
ENCODING 106
SWIDTH 135 0
DWIDTH 3 0
BBX 5 19 -2 -5
BITMAP
18
18
00
00
18
18
18
18
18
18
18
18
18
18
18
18
18
F0
40
ENDCHAR
STARTCHAR 006B
ENCODING 107
SWIDTH 405 0
DWIDTH 9 0
BBX 7 14 1 0
BITMAP
C0
C0
C0
C0
CC
CC
D8
F0
F0
F8
D8
CC
C6
C6
ENDCHAR
STARTCHAR 006C
ENCODING 108
SWIDTH 225 0
DWIDTH 5 0
BBX 3 14 1 0
BITMAP
C0
C0
C0
C0
C0
C0
C0
C0
C0
C0
C0
C0
E0
E0
ENDCHAR
STARTCHAR 006D
ENCODING 109
SWIDTH 585 0
DWIDTH 13 0
BBX 11 10 1 0
BITMAP
F9C0
EF60
C620
C620
C620
C620
C620
C620
C620
C620
ENDCHAR
STARTCHAR 006E
ENCODING 110
SWIDTH 450 0
DWIDTH 10 0
BBX 9 10 1 0
BITMAP
DE00
F700
E100
C180
C180
C180
C180
C180
C180
C180
ENDCHAR
STARTCHAR 006F
ENCODING 111
SWIDTH 450 0
DWIDTH 10 0
BBX 9 10 1 0
BITMAP
3E00
7700
4300
C180
C180
C180
C180
4300
7700
3E00
ENDCHAR
STARTCHAR 0070
ENCODING 112
SWIDTH 450 0
DWIDTH 10 0
BBX 9 15 1 -5
BITMAP
FE00
F700
C300
C180
C180
C180
C180
C300
F700
FE00
C000
C000
C000
C000
4000
ENDCHAR
STARTCHAR 0071
ENCODING 113
SWIDTH 450 0
DWIDTH 10 0
BBX 9 15 1 -5
BITMAP
3F80
7780
4380
C180
C180
C180
C180
4380
7780
3F80
0180
0180
0180
0180
0080
ENDCHAR
STARTCHAR 0072
ENCODING 114
SWIDTH 315 0
DWIDTH 7 0
BBX 5 10 1 0
BITMAP
F8
F0
E0
C0
C0
C0
C0
C0
C0
C0
ENDCHAR
STARTCHAR 0073
ENCODING 115
SWIDTH 360 0
DWIDTH 8 0
BBX 7 10 1 0
BITMAP
78
6C
C4
60
38
0C
06
C6
EC
78
ENDCHAR
STARTCHAR 0074
ENCODING 116
SWIDTH 315 0
DWIDTH 7 0
BBX 6 13 1 0
BITMAP
10
30
30
FC
FC
30
30
30
30
30
30
38
38
ENDCHAR
STARTCHAR 0075
ENCODING 117
SWIDTH 450 0
DWIDTH 10 0
BBX 9 10 1 0
BITMAP
C180
C180
C180
C180
C180
C180
C180
C380
6780
3D80
ENDCHAR
STARTCHAR 0076
ENCODING 118
SWIDTH 495 0
DWIDTH 11 0
BBX 9 10 1 0
BITMAP
C180
4180
6300
6300
2200
3600
3600
1C00
1C00
0C00
ENDCHAR
STARTCHAR 0077
ENCODING 119
SWIDTH 630 0
DWIDTH 14 0
BBX 12 10 1 0
BITMAP
C610
C730
4730
6730
6D20
2DE0
39E0
39C0
38C0
18C0
ENDCHAR
STARTCHAR 0078
ENCODING 120
SWIDTH 495 0
DWIDTH 11 0
BBX 9 10 1 0
BITMAP
C180
6300
3600
1E00
1C00
1C00
1E00
3600
6300
C180
ENDCHAR
STARTCHAR 0079
ENCODING 121
SWIDTH 495 0
DWIDTH 11 0
BBX 9 15 1 -5
BITMAP
C180
4180
6300
6300
2200
3600
3600
1C00
1C00
0C00
0800
1800
1800
7000
4000
ENDCHAR
STARTCHAR 007A
ENCODING 122
SWIDTH 360 0
DWIDTH 8 0
BBX 7 10 1 0
BITMAP
FE
FE
0C
18
18
30
60
60
FE
FE
ENDCHAR
STARTCHAR 007B
ENCODING 123
SWIDTH 270 0
DWIDTH 6 0
BBX 5 20 1 -5
BITMAP
08
38
30
60
60
60
60
60
60
E0
E0
60
60
60
60
60
60
30
38
08
ENDCHAR
STARTCHAR 007C
ENCODING 124
SWIDTH 135 0
DWIDTH 3 0
BBX 2 18 1 -4
BITMAP
C0
C0
C0
C0
C0
C0
C0
C0
C0
C0
C0
C0
C0
C0
C0
C0
C0
C0
ENDCHAR
STARTCHAR 007D
ENCODING 125
SWIDTH 270 0
DWIDTH 6 0
BBX 5 19 1 -4
BITMAP
C0
60
60
60
60
60
60
20
38
38
20
60
60
60
60
60
60
C0
80
ENDCHAR
STARTCHAR 007E
ENCODING 126
SWIDTH 585 0
DWIDTH 13 0
BBX 11 4 1 5
BITMAP
7800
FC60
C7C0
0180
ENDCHAR
STARTCHAR 00A0
ENCODING 160
SWIDTH 225 0
DWIDTH 5 0
BBX 0 0 0 0
BITMAP
ENDCHAR
STARTCHAR 00A1
ENCODING 161
SWIDTH 135 0
DWIDTH 3 0
BBX 2 14 1 -4
BITMAP
C0
C0
00
00
C0
C0
C0
C0
C0
C0
C0
C0
C0
C0
ENDCHAR
STARTCHAR 00A2
ENCODING 162
SWIDTH 450 0
DWIDTH 10 0
BBX 8 14 1 -2
BITMAP
02
06
3E
77
4F
CC
D8
D8
D0
73
77
3E
60
60
ENDCHAR
STARTCHAR 00A3
ENCODING 163
SWIDTH 495 0
DWIDTH 11 0
BBX 9 15 1 0
BITMAP
0400
1F00
3180
2080
6000
6000
6000
FE00
FE00
3000
3000
3000
2000
FF80
FF80
ENDCHAR
STARTCHAR 00A4
ENCODING 164
SWIDTH 495 0
DWIDTH 11 0
BBX 10 10 1 2
BITMAP
C0C0
FF80
7F00
6180
6180
6180
3300
7F80
CDC0
0080
ENDCHAR
STARTCHAR 00A5
ENCODING 165
SWIDTH 630 0
DWIDTH 14 0
BBX 11 14 2 0
BITMAP
C060
C0C0
6180
3300
3300
1E00
FFC0
FFC0
0C00
FFC0
FFC0
0C00
0C00
0C00
ENDCHAR
STARTCHAR 00A6
ENCODING 166
SWIDTH 135 0
DWIDTH 3 0
BBX 2 18 1 -4
BITMAP
C0
C0
C0
C0
C0
C0
C0
00
00
00
00
C0
C0
C0
C0
C0
C0
C0
ENDCHAR
STARTCHAR 00A7
ENCODING 167
SWIDTH 450 0
DWIDTH 10 0
BBX 9 20 1 -5
BITMAP
0800
3E00
6300
4300
4000
6000
7000
DC00
C700
C300
E180
7180
1D80
0700
0300
0100
4300
6300
3E00
0800
ENDCHAR
STARTCHAR 00A8
ENCODING 168
SWIDTH 360 0
DWIDTH 8 0
BBX 6 2 1 11
BITMAP
CC
CC
ENDCHAR
STARTCHAR 00A9
ENCODING 169
SWIDTH 720 0
DWIDTH 16 0
BBX 15 15 1 0
BITMAP
0100
0FE0
3838
7018
638C
C7C4
C606
C406
C406
C6C6
43C4
600C
3018
1C70
0FE0
ENDCHAR
STARTCHAR 00AA
ENCODING 170
SWIDTH 270 0
DWIDTH 6 0
BBX 4 7 1 8
BITMAP
70
10
70
D0
70
00
F0
ENDCHAR
STARTCHAR 00AB
ENCODING 171
SWIDTH 405 0
DWIDTH 9 0
BBX 6 8 2 1
BITMAP
04
28
58
B0
B0
58
48
24
ENDCHAR
STARTCHAR 00AC
ENCODING 172
SWIDTH 495 0
DWIDTH 11 0
BBX 10 5 1 3
BITMAP
FFC0
FFC0
00C0
00C0
00C0
ENDCHAR
STARTCHAR 00AD
ENCODING 173
SWIDTH 315 0
DWIDTH 7 0
BBX 6 2 1 4
BITMAP
FC
FC
ENDCHAR
STARTCHAR 00AE
ENCODING 174
SWIDTH 720 0
DWIDTH 16 0
BBX 15 15 1 0
BITMAP
0100
0FE0
3838
7018
670C
C7C4
C6C6
C7C6
C786
C6C6
46C4
600C
3018
1C70
0FE0
ENDCHAR
STARTCHAR 00AF
ENCODING 175
SWIDTH 315 0
DWIDTH 7 0
BBX 6 1 1 12
BITMAP
FC
ENDCHAR
STARTCHAR 00B0
ENCODING 176
SWIDTH 360 0
DWIDTH 8 0
BBX 6 5 1 9
BITMAP
78
CC
C4
CC
78
ENDCHAR
STARTCHAR 00B1
ENCODING 177
SWIDTH 495 0
DWIDTH 11 0
BBX 10 12 1 1
BITMAP
0C00
0C00
0C00
0C00
FFC0
FFC0
0C00
0C00
0C00
0C00
FFC0
FFC0
ENDCHAR
STARTCHAR 00B2
ENCODING 178
SWIDTH 270 0
DWIDTH 6 0
BBX 4 7 1 10
BITMAP
F0
90
10
20
40
80
F0
ENDCHAR
STARTCHAR 00B3
ENCODING 179
SWIDTH 270 0
DWIDTH 6 0
BBX 4 7 1 10
BITMAP
70
90
10
30
10
90
70
ENDCHAR
STARTCHAR 00B4
ENCODING 180
SWIDTH 225 0
DWIDTH 5 0
BBX 3 3 1 11
BITMAP
60
40
80
ENDCHAR
STARTCHAR 00B5
ENCODING 181
SWIDTH 450 0
DWIDTH 10 0
BBX 9 15 1 -5
BITMAP
C180
C180
C180
C180
C180
C180
C180
C380
F780
FD80
C000
C000
C000
C000
4000
ENDCHAR
STARTCHAR 00B6
ENCODING 182
SWIDTH 495 0
DWIDTH 11 0
BBX 9 18 1 -4
BITMAP
3F80
7D80
FD80
FD80
FD80
7D80
3D80
0D80
0D80
0D80
0D80
0D80
0D80
0D80
0D80
0D80
0D80
0D80
ENDCHAR
STARTCHAR 00B7
ENCODING 183
SWIDTH 180 0
DWIDTH 4 0
BBX 2 2 1 6
BITMAP
C0
C0
ENDCHAR
STARTCHAR 00B8
ENCODING 184
SWIDTH 270 0
DWIDTH 6 0
BBX 4 5 1 -5
BITMAP
60
70
10
F0
40
ENDCHAR
STARTCHAR 00B9
ENCODING 185
SWIDTH 270 0
DWIDTH 6 0
BBX 4 7 1 10
BITMAP
60
E0
60
60
60
60
F0
ENDCHAR
STARTCHAR 00BA
ENCODING 186
SWIDTH 315 0
DWIDTH 7 0
BBX 5 7 1 8
BITMAP
70
48
C8
48
70
00
F8
ENDCHAR
STARTCHAR 00BB
ENCODING 187
SWIDTH 405 0
DWIDTH 9 0
BBX 7 8 1 1
BITMAP
90
48
2C
36
36
2C
48
90
ENDCHAR
STARTCHAR 00BC
ENCODING 188
SWIDTH 450 0
DWIDTH 10 0
BBX 9 18 1 -2
BITMAP
0800
3800
0800
0800
0800
0800
3C00
0000
FF80
0000
0400
0C00
1C00
1400
2400
3E00
0400
0400
ENDCHAR
STARTCHAR 00BD
ENCODING 189
SWIDTH 450 0
DWIDTH 10 0
BBX 9 18 1 -2
BITMAP
0800
3800
0800
0800
0800
0800
3C00
0000
FF80
0000
0800
1C00
3400
0400
0C00
1000
3000
3C00
ENDCHAR
STARTCHAR 00BE
ENCODING 190
SWIDTH 450 0
DWIDTH 10 0
BBX 9 18 1 -2
BITMAP
1C00
2400
0400
0C00
0600
0600
1C00
0000
FF80
0000
0400
0C00
1C00
1400
2400
3E00
0400
0400
ENDCHAR
STARTCHAR 00BF
ENCODING 191
SWIDTH 405 0
DWIDTH 9 0
BBX 8 15 1 -5
BITMAP
18
18
00
00
18
10
30
60
60
C0
C0
C3
E6
7C
18
ENDCHAR
STARTCHAR 00C0
ENCODING 192
SWIDTH 630 0
DWIDTH 14 0
BBX 12 19 1 0
BITMAP
0C00
0400
0200
0000
0000
0600
0700
0F00
0D00
0980
1980
18C0
3FC0
3FC0
2060
6060
6020
4030
C030
ENDCHAR
STARTCHAR 00C1
ENCODING 193
SWIDTH 630 0
DWIDTH 14 0
BBX 12 19 1 0
BITMAP
0180
0200
0400
0000
0000
0600
0700
0F00
0D00
0980
1980
18C0
3FC0
3FC0
2060
6060
6020
4030
C030
ENDCHAR
STARTCHAR 00C2
ENCODING 194
SWIDTH 630 0
DWIDTH 14 0
BBX 12 19 1 0
BITMAP
0600
0700
0900
1080
0000
0600
0700
0F00
0D00
0980
1980
18C0
3FC0
3FC0
2060
6060
6020
4030
C030
ENDCHAR
STARTCHAR 00C3
ENCODING 195
SWIDTH 630 0
DWIDTH 14 0
BBX 12 18 1 0
BITMAP
1C40
23C0
0000
0000
0600
0700
0F00
0D00
0980
1980
18C0
3FC0
3FC0
2060
6060
6020
4030
C030
ENDCHAR
STARTCHAR 00C4
ENCODING 196
SWIDTH 630 0
DWIDTH 14 0
BBX 12 18 1 0
BITMAP
1980
1980
0000
0000
0600
0700
0F00
0D00
0980
1980
18C0
3FC0
3FC0
2060
6060
6020
4030
C030
ENDCHAR
STARTCHAR 00C5
ENCODING 197
SWIDTH 630 0
DWIDTH 14 0
BBX 12 19 1 0
BITMAP
0600
0900
0D00
0600
0000
0600
0700
0F00
0D00
0980
1980
18C0
3FC0
3FC0
2060
6060
6020
4030
C030
ENDCHAR
STARTCHAR 00C6
ENCODING 198
SWIDTH 720 0
DWIDTH 16 0
BBX 14 14 1 0
BITMAP
07FC
0580
0D80
0D80
0980
1980
1FF8
3FF8
3180
2180
6180
6180
41FC
C1FC
ENDCHAR
STARTCHAR 00C7
ENCODING 199
SWIDTH 585 0
DWIDTH 13 0
BBX 11 20 1 -5
BITMAP
0600
1F80
30C0
6060
6000
C000
C000
C000
C000
C000
C000
6040
6060
39C0
1F80
0400
0700
0100
0F00
0400
ENDCHAR
STARTCHAR 00C8
ENCODING 200
SWIDTH 495 0
DWIDTH 11 0
BBX 9 19 1 0
BITMAP
3000
1800
0800
0400
0000
FF80
C000
C000
C000
C000
C000
FF00
FF00
C000
C000
C000
C000
FF80
FF80
ENDCHAR
STARTCHAR 00C9
ENCODING 201
SWIDTH 495 0
DWIDTH 11 0
BBX 9 19 1 0
BITMAP
0600
0C00
0800
1000
0000
FF80
C000
C000
C000
C000
C000
FF00
FF00
C000
C000
C000
C000
FF80
FF80
ENDCHAR
STARTCHAR 00CA
ENCODING 202
SWIDTH 495 0
DWIDTH 11 0
BBX 9 19 1 0
BITMAP
0C00
1400
2200
0000
0000
FF80
C000
C000
C000
C000
C000
FF00
FF00
C000
C000
C000
C000
FF80
FF80
ENDCHAR
STARTCHAR 00CB
ENCODING 203
SWIDTH 495 0
DWIDTH 11 0
BBX 9 18 1 0
BITMAP
3700
3700
0000
0000
FF80
C000
C000
C000
C000
C000
FF00
FF00
C000
C000
C000
C000
FF80
FF80
ENDCHAR
STARTCHAR 00CC
ENCODING 204
SWIDTH 315 0
DWIDTH 7 0
BBX 5 19 1 0
BITMAP
C0
60
20
10
00
F8
20
20
20
20
20
20
20
20
20
20
20
F8
F8
ENDCHAR
STARTCHAR 00CD
ENCODING 205
SWIDTH 315 0
DWIDTH 7 0
BBX 5 19 1 0
BITMAP
18
30
20
40
00
F8
20
20
20
20
20
20
20
20
20
20
20
F8
F8
ENDCHAR
STARTCHAR 00CE
ENCODING 206
SWIDTH 315 0
DWIDTH 7 0
BBX 5 19 1 0
BITMAP
60
50
88
00
00
F8
20
20
20
20
20
20
20
20
20
20
20
F8
F8
ENDCHAR
STARTCHAR 00CF
ENCODING 207
SWIDTH 315 0
DWIDTH 7 0
BBX 6 18 0 0
BITMAP
EC
EC
00
00
7C
10
10
10
10
10
10
10
10
10
10
10
7C
7C
ENDCHAR
STARTCHAR 00D0
ENCODING 208
SWIDTH 630 0
DWIDTH 14 0
BBX 12 14 1 0
BITMAP
FF80
21C0
2060
2020
2030
2010
FE10
FE10
2010
2030
2020
2060
FFC0
FF00
ENDCHAR
STARTCHAR 00D1
ENCODING 209
SWIDTH 585 0
DWIDTH 13 0
BBX 11 18 1 0
BITMAP
3C80
2780
0000
0000
C020
E020
F020
F020
D820
CC20
C420
C620
C320
C1A0
C1A0
C0E0
C060
C060
ENDCHAR
STARTCHAR 00D2
ENCODING 210
SWIDTH 630 0
DWIDTH 14 0
BBX 12 19 1 0
BITMAP
0C00
0400
0200
0000
0600
1F80
30C0
6060
6020
C030
C030
C030
C030
C030
C030
6060
6060
39C0
1F80
ENDCHAR
STARTCHAR 00D3
ENCODING 211
SWIDTH 630 0
DWIDTH 14 0
BBX 12 19 1 0
BITMAP
0300
0200
0400
0000
0600
1F80
30C0
6060
6020
C030
C030
C030
C030
C030
C030
6060
6060
39C0
1F80
ENDCHAR
STARTCHAR 00D4
ENCODING 212
SWIDTH 630 0
DWIDTH 14 0
BBX 12 19 1 0
BITMAP
0600
0F00
0900
1080
0600
1F80
30C0
6060
6020
C030
C030
C030
C030
C030
C030
6060
6060
39C0
1F80
ENDCHAR
STARTCHAR 00D5
ENCODING 213
SWIDTH 630 0
DWIDTH 14 0
BBX 12 18 1 0
BITMAP
1C40
2380
0000
0600
1F80
30C0
6060
6020
C030
C030
C030
C030
C030
C030
6060
6060
39C0
1F80
ENDCHAR
STARTCHAR 00D6
ENCODING 214
SWIDTH 630 0
DWIDTH 14 0
BBX 12 18 1 0
BITMAP
1980
1980
0000
0600
1F80
30C0
6060
6020
C030
C030
C030
C030
C030
C030
6060
6060
39C0
1F80
ENDCHAR
STARTCHAR 00D7
ENCODING 215
SWIDTH 495 0
DWIDTH 11 0
BBX 8 8 2 3
BITMAP
C3
E6
7C
38
3C
6E
C7
02
ENDCHAR
STARTCHAR 00D8
ENCODING 216
SWIDTH 630 0
DWIDTH 14 0
BBX 12 16 1 -1
BITMAP
0630
1FA0
30E0
60E0
61A0
C1B0
C330
C630
C630
CC30
D830
7060
7060
79C0
DF80
4000
ENDCHAR
STARTCHAR 00D9
ENCODING 217
SWIDTH 585 0
DWIDTH 13 0
BBX 11 19 1 0
BITMAP
1800
0C00
0400
0200
0000
C060
C060
C060
C060
C060
C060
C060
C060
C060
C060
C060
60C0
3B80
1F00
ENDCHAR
STARTCHAR 00DA
ENCODING 218
SWIDTH 585 0
DWIDTH 13 0
BBX 11 19 1 0
BITMAP
0300
0600
0400
0800
0000
C060
C060
C060
C060
C060
C060
C060
C060
C060
C060
C060
60C0
3B80
1F00
ENDCHAR
STARTCHAR 00DB
ENCODING 219
SWIDTH 585 0
DWIDTH 13 0
BBX 11 19 1 0
BITMAP
0E00
0A00
1100
0000
0000
C060
C060
C060
C060
C060
C060
C060
C060
C060
C060
C060
60C0
3B80
1F00
ENDCHAR
STARTCHAR 00DC
ENCODING 220
SWIDTH 585 0
DWIDTH 13 0
BBX 11 18 1 0
BITMAP
1B00
1B00
0000
0000
C060
C060
C060
C060
C060
C060
C060
C060
C060
C060
C060
60C0
3B80
1F00
ENDCHAR
STARTCHAR 00DD
ENCODING 221
SWIDTH 630 0
DWIDTH 14 0
BBX 11 19 2 0
BITMAP
0600
0400
0800
0000
0000
C060
C0C0
6180
3300
3300
1E00
0C00
0C00
0C00
0C00
0C00
0C00
0C00
0C00
ENDCHAR
STARTCHAR 00DE
ENCODING 222
SWIDTH 450 0
DWIDTH 10 0
BBX 9 14 1 0
BITMAP
C000
C000
C000
FE00
FF00
C100
C180
C180
C300
FF00
FC00
C000
C000
C000
ENDCHAR
STARTCHAR 00DF
ENCODING 223
SWIDTH 450 0
DWIDTH 10 0
BBX 9 20 1 -5
BITMAP
1000
7E00
6600
C300
C300
C300
C600
CE00
C300
C180
C180
C180
C100
D700
DE00
C000
C000
C000
C000
4000
ENDCHAR
STARTCHAR 00E0
ENCODING 224
SWIDTH 405 0
DWIDTH 9 0
BBX 7 14 1 0
BITMAP
70
10
08
00
3C
7E
06
06
3E
FE
C6
C6
EE
7E
ENDCHAR
STARTCHAR 00E1
ENCODING 225
SWIDTH 405 0
DWIDTH 9 0
BBX 7 14 1 0
BITMAP
1C
10
20
00
3C
7E
06
06
3E
FE
C6
C6
EE
7E
ENDCHAR
STARTCHAR 00E2
ENCODING 226
SWIDTH 405 0
DWIDTH 9 0
BBX 7 14 1 0
BITMAP
38
6C
44
00
3C
7E
06
06
3E
FE
C6
C6
EE
7E
ENDCHAR
STARTCHAR 00E3
ENCODING 227
SWIDTH 405 0
DWIDTH 9 0
BBX 8 14 1 0
BITMAP
71
9E
84
00
3C
7E
06
06
3E
FE
C6
C6
EE
7E
ENDCHAR
STARTCHAR 00E4
ENCODING 228
SWIDTH 405 0
DWIDTH 9 0
BBX 7 14 1 0
BITMAP
6C
EE
00
00
3C
7E
06
06
3E
FE
C6
C6
EE
7E
ENDCHAR
STARTCHAR 00E5
ENCODING 229
SWIDTH 405 0
DWIDTH 9 0
BBX 7 15 1 0
BITMAP
10
3C
24
38
00
3C
7E
06
06
3E
FE
C6
C6
EE
7E
ENDCHAR
STARTCHAR 00E6
ENCODING 230
SWIDTH 720 0
DWIDTH 16 0
BBX 14 10 1 0
BITMAP
3DF0
7FB8
0708
060C
3FFC
FE00
C600
C708
EFB8
7DF0
ENDCHAR
STARTCHAR 00E7
ENCODING 231
SWIDTH 450 0
DWIDTH 10 0
BBX 8 15 1 -5
BITMAP
3E
77
43
C0
C0
C0
C0
43
77
3E
08
1C
02
1C
18
ENDCHAR
STARTCHAR 00E8
ENCODING 232
SWIDTH 450 0
DWIDTH 10 0
BBX 9 14 1 0
BITMAP
3000
0800
0000
0000
3E00
7700
4300
C180
FF80
C000
C000
4300
7700
3E00
ENDCHAR
STARTCHAR 00E9
ENCODING 233
SWIDTH 450 0
DWIDTH 10 0
BBX 9 14 1 0
BITMAP
0C00
0800
1000
0000
3E00
7700
4300
C180
FF80
C000
C000
4300
7700
3E00
ENDCHAR
STARTCHAR 00EA
ENCODING 234
SWIDTH 450 0
DWIDTH 10 0
BBX 9 14 1 0
BITMAP
1C00
3400
2200
0000
3E00
7700
4300
C180
FF80
C000
C000
4300
7700
3E00
ENDCHAR
STARTCHAR 00EB
ENCODING 235
SWIDTH 450 0
DWIDTH 10 0
BBX 9 14 1 0
BITMAP
2600
7600
0000
0000
3E00
7700
4300
C180
FF80
C000
C000
4300
7700
3E00
ENDCHAR
STARTCHAR 00EC
ENCODING 236
SWIDTH 135 0
DWIDTH 3 0
BBX 3 14 0 0
BITMAP
C0
40
20
00
60
60
60
60
60
60
60
60
60
60
ENDCHAR
STARTCHAR 00ED
ENCODING 237
SWIDTH 135 0
DWIDTH 3 0
BBX 3 14 1 0
BITMAP
60
C0
80
00
C0
C0
C0
C0
C0
C0
C0
C0
C0
C0
ENDCHAR
STARTCHAR 00EE
ENCODING 238
SWIDTH 135 0
DWIDTH 3 0
BBX 5 14 -1 0
BITMAP
70
48
80
00
30
30
30
30
30
30
30
30
30
30
ENDCHAR
STARTCHAR 00EF
ENCODING 239
SWIDTH 135 0
DWIDTH 3 0
BBX 6 14 -1 0
BITMAP
CC
CC
00
00
30
30
30
30
30
30
30
30
30
30
ENDCHAR
STARTCHAR 00F0
ENCODING 240
SWIDTH 495 0
DWIDTH 11 0
BBX 9 15 1 0
BITMAP
0800
3F80
0780
0F00
0180
3F80
7780
4380
C180
C180
C180
C180
4300
7700
3E00
ENDCHAR
STARTCHAR 00F1
ENCODING 241
SWIDTH 450 0
DWIDTH 10 0
BBX 9 14 1 0
BITMAP
7100
4F00
4200
0000
DE00
F700
E100
C180
C180
C180
C180
C180
C180
C180
ENDCHAR
STARTCHAR 00F2
ENCODING 242
SWIDTH 450 0
DWIDTH 10 0
BBX 9 14 1 0
BITMAP
3000
0800
0000
0000
3E00
7700
4300
C180
C180
C180
C180
4300
7700
3E00
ENDCHAR
STARTCHAR 00F3
ENCODING 243
SWIDTH 450 0
DWIDTH 10 0
BBX 9 14 1 0
BITMAP
0C00
0800
1000
0000
3E00
7700
4300
C180
C180
C180
C180
4300
7700
3E00
ENDCHAR
STARTCHAR 00F4
ENCODING 244
SWIDTH 450 0
DWIDTH 10 0
BBX 9 14 1 0
BITMAP
1C00
3400
2200
0000
3E00
7700
4300
C180
C180
C180
C180
4300
7700
3E00
ENDCHAR
STARTCHAR 00F5
ENCODING 245
SWIDTH 450 0
DWIDTH 10 0
BBX 9 14 1 0
BITMAP
7100
4F00
4200
0000
3E00
7700
4300
C180
C180
C180
C180
4300
7700
3E00
ENDCHAR
STARTCHAR 00F6
ENCODING 246
SWIDTH 450 0
DWIDTH 10 0
BBX 9 14 1 0
BITMAP
2600
7600
0000
0000
3E00
7700
4300
C180
C180
C180
C180
4300
7700
3E00
ENDCHAR
STARTCHAR 00F7
ENCODING 247
SWIDTH 495 0
DWIDTH 11 0
BBX 10 9 1 3
BITMAP
0400
0C00
0C00
0000
FFC0
FFC0
0000
0C00
0C00
ENDCHAR
STARTCHAR 00F8
ENCODING 248
SWIDTH 450 0
DWIDTH 10 0
BBX 9 12 1 -1
BITMAP
0180
3F80
7700
4700
CD80
CD80
D980
F180
7300
7700
FE00
C000
ENDCHAR
STARTCHAR 00F9
ENCODING 249
SWIDTH 450 0
DWIDTH 10 0
BBX 9 14 1 0
BITMAP
3000
0800
0000
0000
C180
C180
C180
C180
C180
C180
C180
C380
6780
3D80
ENDCHAR
STARTCHAR 00FA
ENCODING 250
SWIDTH 450 0
DWIDTH 10 0
BBX 9 14 1 0
BITMAP
0C00
0800
1000
0000
C180
C180
C180
C180
C180
C180
C180
C380
6780
3D80
ENDCHAR
STARTCHAR 00FB
ENCODING 251
SWIDTH 450 0
DWIDTH 10 0
BBX 9 14 1 0
BITMAP
1C00
3400
2200
0000
C180
C180
C180
C180
C180
C180
C180
C380
6780
3D80
ENDCHAR
STARTCHAR 00FC
ENCODING 252
SWIDTH 450 0
DWIDTH 10 0
BBX 9 14 1 0
BITMAP
2600
7600
0000
0000
C180
C180
C180
C180
C180
C180
C180
C380
6780
3D80
ENDCHAR
STARTCHAR 00FD
ENCODING 253
SWIDTH 495 0
DWIDTH 11 0
BBX 9 19 1 -5
BITMAP
0600
0800
0000
0000
C180
4180
6300
6300
2200
3600
3600
1C00
1C00
0C00
0800
1800
1800
7000
4000
ENDCHAR
STARTCHAR 00FE
ENCODING 254
SWIDTH 450 0
DWIDTH 10 0
BBX 9 19 1 -5
BITMAP
C000
C000
C000
C000
FE00
F700
C300
C180
C180
C180
C180
C300
F700
FE00
C000
C000
C000
C000
4000
ENDCHAR
STARTCHAR 00FF
ENCODING 255
SWIDTH 495 0
DWIDTH 11 0
BBX 9 19 1 -5
BITMAP
3200
3700
0000
0000
C180
4180
6300
6300
2200
3600
3600
1C00
1C00
0C00
0800
1800
1800
7000
4000
ENDCHAR
STARTCHAR 0100
ENCODING 256
SWIDTH 630 0
DWIDTH 14 0
BBX 12 18 1 0
BITMAP
1F80
1F80
0000
0000
0600
0700
0F00
0D00
0980
1980
18C0
3FC0
3FC0
2060
6060
6020
4030
C030
ENDCHAR
STARTCHAR 0101
ENCODING 257
SWIDTH 405 0
DWIDTH 9 0
BBX 7 13 1 0
BITMAP
7E
00
00
3C
7E
06
06
3E
FE
C6
C6
EE
7E
ENDCHAR
STARTCHAR 0102
ENCODING 258
SWIDTH 630 0
DWIDTH 14 0
BBX 12 19 1 0
BITMAP
1080
1880
0F00
0000
0000
0600
0700
0F00
0D00
0980
1980
18C0
3FC0
3FC0
2060
6060
6020
4030
C030
ENDCHAR
STARTCHAR 0103
ENCODING 259
SWIDTH 405 0
DWIDTH 9 0
BBX 7 14 1 0
BITMAP
44
7C
38
00
3C
7E
06
06
3E
FE
C6
C6
EE
7E
ENDCHAR
STARTCHAR 0104
ENCODING 260
SWIDTH 630 0
DWIDTH 14 0
BBX 14 18 1 -4
BITMAP
0600
0700
0F00
0D00
0980
1980
18C0
3FC0
3FC0
2060
6060
6020
4030
C030
0020
0020
0030
001C
ENDCHAR
STARTCHAR 0105
ENCODING 261
SWIDTH 405 0
DWIDTH 9 0
BBX 9 14 1 -4
BITMAP
3C00
7E00
0600
0600
3E00
FE00
C600
C600
EE00
7E00
0400
0400
0600
0380
ENDCHAR
STARTCHAR 0106
ENCODING 262
SWIDTH 585 0
DWIDTH 13 0
BBX 11 19 1 0
BITMAP
0300
0600
0400
0800
0600
1F80
30C0
6060
6000
C000
C000
C000
C000
C000
C000
6040
6060
39C0
1F80
ENDCHAR
STARTCHAR 0107
ENCODING 263
SWIDTH 450 0
DWIDTH 10 0
BBX 8 14 1 0
BITMAP
0C
08
10
00
3E
77
43
C0
C0
C0
C0
43
77
3E
ENDCHAR
STARTCHAR 0108
ENCODING 264
SWIDTH 585 0
DWIDTH 13 0
BBX 11 19 1 0
BITMAP
0E00
0A00
1100
0000
0600
1F80
30C0
6060
6000
C000
C000
C000
C000
C000
C000
6040
6060
39C0
1F80
ENDCHAR
STARTCHAR 0109
ENCODING 265
SWIDTH 450 0
DWIDTH 10 0
BBX 8 14 1 0
BITMAP
1C
24
02
00
3E
77
43
C0
C0
C0
C0
43
77
3E
ENDCHAR
STARTCHAR 010A
ENCODING 266
SWIDTH 585 0
DWIDTH 13 0
BBX 11 18 1 0
BITMAP
0E00
0600
0000
0600
1F80
30C0
6060
6000
C000
C000
C000
C000
C000
C000
6040
6060
39C0
1F80
ENDCHAR
STARTCHAR 010B
ENCODING 267
SWIDTH 450 0
DWIDTH 10 0
BBX 8 14 1 0
BITMAP
18
18
00
00
3E
77
43
C0
C0
C0
C0
43
77
3E
ENDCHAR
STARTCHAR 010C
ENCODING 268
SWIDTH 585 0
DWIDTH 13 0
BBX 11 18 1 1
BITMAP
1900
0E00
0E00
0600
1F80
30C0
6060
6000
C000
C000
C000
C000
C000
C000
6040
6060
39C0
1F80
ENDCHAR
STARTCHAR 010D
ENCODING 269
SWIDTH 450 0
DWIDTH 10 0
BBX 8 14 1 0
BITMAP
24
34
18
00
3E
77
43
C0
C0
C0
C0
43
77
3E
ENDCHAR
STARTCHAR 010E
ENCODING 270
SWIDTH 630 0
DWIDTH 14 0
BBX 12 19 1 0
BITMAP
1080
0900
0F00
0600
0000
FF80
21C0
2060
2060
2030
2030
2030
2030
2030
2030
2060
20E0
FFC0
FF00
ENDCHAR
STARTCHAR 010F
ENCODING 271
SWIDTH 630 0
DWIDTH 14 0
BBX 13 14 1 1
BITMAP
01B0
01B8
0190
0190
3FA0
7780
4380
C180
C180
C180
C180
4380
7780
3F80
ENDCHAR
STARTCHAR 0110
ENCODING 272
SWIDTH 630 0
DWIDTH 14 0
BBX 12 14 1 0
BITMAP
FF80
21C0
2060
2020
2030
2010
FE10
FE10
2010
2030
2020
2060
FFC0
FF00
ENDCHAR
STARTCHAR 0111
ENCODING 273
SWIDTH 450 0
DWIDTH 10 0
BBX 10 14 1 0
BITMAP
0180
07C0
07C0
0180
3F80
7780
4380
C180
C180
C180
C180
4380
7780
3F80
ENDCHAR
STARTCHAR 0112
ENCODING 274
SWIDTH 495 0
DWIDTH 11 0
BBX 9 18 1 0
BITMAP
3E00
3E00
0000
0000
FF80
C000
C000
C000
C000
C000
FF00
FF00
C000
C000
C000
C000
FF80
FF80
ENDCHAR
STARTCHAR 0113
ENCODING 275
SWIDTH 450 0
DWIDTH 10 0
BBX 9 13 1 0
BITMAP
3E00
0000
0000
3E00
7700
4300
C180
FF80
C000
C000
4300
7700
3E00
ENDCHAR
STARTCHAR 0114
ENCODING 276
SWIDTH 495 0
DWIDTH 11 0
BBX 9 19 1 0
BITMAP
2300
2200
1E00
0000
0000
FF80
C000
C000
C000
C000
C000
FF00
FF00
C000
C000
C000
C000
FF80
FF80
ENDCHAR
STARTCHAR 0115
ENCODING 277
SWIDTH 450 0
DWIDTH 10 0
BBX 9 14 1 0
BITMAP
6200
3E00
1C00
0000
3E00
7700
4300
C180
FF80
C000
C000
4300
7700
3E00
ENDCHAR
STARTCHAR 0116
ENCODING 278
SWIDTH 495 0
DWIDTH 11 0
BBX 9 18 1 0
BITMAP
0C00
0C00
0000
0000
FF80
C000
C000
C000
C000
C000
FF00
FF00
C000
C000
C000
C000
FF80
FF80
ENDCHAR
STARTCHAR 0117
ENCODING 279
SWIDTH 450 0
DWIDTH 10 0
BBX 9 14 1 0
BITMAP
0800
1C00
0000
0000
3E00
7700
4300
C180
FF80
C000
C000
4300
7700
3E00
ENDCHAR
STARTCHAR 0118
ENCODING 280
SWIDTH 495 0
DWIDTH 11 0
BBX 10 18 1 -4
BITMAP
FF80
C000
C000
C000
C000
C000
FF00
FF00
C000
C000
C000
C000
FF80
FF80
0200
0200
0300
01C0
ENDCHAR
STARTCHAR 0119
ENCODING 281
SWIDTH 450 0
DWIDTH 10 0
BBX 9 14 1 -4
BITMAP
3E00
7700
4300
C180
FF80
C000
C000
4300
7700
3E00
0800
0800
0C00
0700
ENDCHAR
STARTCHAR 011A
ENCODING 282
SWIDTH 495 0
DWIDTH 11 0
BBX 9 19 1 0
BITMAP
2000
1200
1C00
0C00
0000
FF80
C000
C000
C000
C000
C000
FF00
FF00
C000
C000
C000
C000
FF80
FF80
ENDCHAR
STARTCHAR 011B
ENCODING 283
SWIDTH 450 0
DWIDTH 10 0
BBX 9 14 1 0
BITMAP
2200
1400
1C00
0000
3E00
7700
4300
C180
FF80
C000
C000
4300
7700
3E00
ENDCHAR
STARTCHAR 011C
ENCODING 284
SWIDTH 585 0
DWIDTH 13 0
BBX 11 19 1 0
BITMAP
0E00
0A00
1100
0000
0600
1F80
30C0
6060
6000
C000
C000
C3E0
C3E0
C060
C060
6060
6060
39C0
1F80
ENDCHAR
STARTCHAR 011D
ENCODING 285
SWIDTH 495 0
DWIDTH 11 0
BBX 10 19 1 -5
BITMAP
1C00
3400
2200
0000
3EC0
77C0
C180
C180
C180
6300
7E00
C000
7000
3F00
0180
C180
E300
7F00
1800
ENDCHAR
STARTCHAR 011E
ENCODING 286
SWIDTH 585 0
DWIDTH 13 0
BBX 11 19 1 0
BITMAP
1180
1100
1F00
0000
0600
1F80
30C0
6060
6000
C000
C000
C3E0
C3E0
C060
C060
6060
6060
39C0
1F80
ENDCHAR
STARTCHAR 011F
ENCODING 287
SWIDTH 495 0
DWIDTH 11 0
BBX 10 19 1 -5
BITMAP
6200
3E00
1C00
0000
3EC0
77C0
C180
C180
C180
6300
7E00
C000
7000
3F00
0180
C180
E300
7F00
1800
ENDCHAR
STARTCHAR 0120
ENCODING 288
SWIDTH 585 0
DWIDTH 13 0
BBX 11 18 1 0
BITMAP
0E00
0600
0000
0600
1F80
30C0
6060
6000
C000
C000
C3E0
C3E0
C060
C060
6060
6060
39C0
1F80
ENDCHAR
STARTCHAR 0121
ENCODING 289
SWIDTH 495 0
DWIDTH 11 0
BBX 10 19 1 -5
BITMAP
1800
1C00
0000
0000
3EC0
77C0
C180
C180
C180
6300
7E00
C000
7000
3F00
0180
C180
E300
7F00
1800
ENDCHAR
STARTCHAR 0122
ENCODING 290
SWIDTH 585 0
DWIDTH 13 0
BBX 11 20 1 -5
BITMAP
0600
1F80
30C0
6060
6000
C000
C000
C3E0
C3E0
C060
C060
6060
6060
39C0
1F80
0400
0700
0100
0F00
0400
ENDCHAR
STARTCHAR 0123
ENCODING 291
SWIDTH 495 0
DWIDTH 11 0
BBX 10 21 1 -5
BITMAP
0C00
1C00
2000
1C00
0800
0000
3EC0
77C0
C180
C180
C180
6300
7E00
C000
7000
3F00
0180
C180
E300
7F00
1800
ENDCHAR
STARTCHAR 0124
ENCODING 292
SWIDTH 495 0
DWIDTH 11 0
BBX 9 19 1 0
BITMAP
0C00
1400
2200
0000
0000
C080
C080
C080
C080
C080
C080
FF80
FF80
C080
C080
C080
C080
C080
C080
ENDCHAR
STARTCHAR 0125
ENCODING 293
SWIDTH 450 0
DWIDTH 10 0
BBX 9 18 1 0
BITMAP
1C00
2600
0200
0000
C000
C000
C000
C000
DE00
F700
E100
C180
C180
C180
C180
C180
C180
C180
ENDCHAR
STARTCHAR 0126
ENCODING 294
SWIDTH 630 0
DWIDTH 14 0
BBX 12 14 1 0
BITMAP
2060
2060
FFF0
2060
2060
2060
3FE0
3FE0
2060
2060
2060
2060
2060
2060
ENDCHAR
STARTCHAR 0127
ENCODING 295
SWIDTH 540 0
DWIDTH 12 0
BBX 10 14 1 0
BITMAP
2000
FF80
FF80
2000
2F00
3D80
30C0
3040
2040
2040
2040
2040
2040
2040
ENDCHAR
STARTCHAR 0128
ENCODING 296
SWIDTH 315 0
DWIDTH 7 0
BBX 7 18 0 0
BITMAP
F2
9E
00
00
7C
10
10
10
10
10
10
10
10
10
10
10
7C
7C
ENDCHAR
STARTCHAR 0129
ENCODING 297
SWIDTH 135 0
DWIDTH 3 0
BBX 8 14 -2 0
BITMAP
71
9E
84
00
18
18
18
18
18
18
18
18
18
18
ENDCHAR
STARTCHAR 012A
ENCODING 298
SWIDTH 315 0
DWIDTH 7 0
BBX 5 18 1 0
BITMAP
F8
F8
00
00
F8
20
20
20
20
20
20
20
20
20
20
20
F8
F8
ENDCHAR
STARTCHAR 012B
ENCODING 299
SWIDTH 135 0
DWIDTH 3 0
BBX 6 13 -1 0
BITMAP
FC
00
00
30
30
30
30
30
30
30
30
30
30
ENDCHAR
STARTCHAR 012C
ENCODING 300
SWIDTH 315 0
DWIDTH 7 0
BBX 7 19 0 0
BITMAP
C6
44
7C
00
00
7C
10
10
10
10
10
10
10
10
10
10
10
7C
7C
ENDCHAR
STARTCHAR 012D
ENCODING 301
SWIDTH 135 0
DWIDTH 3 0
BBX 6 14 -1 0
BITMAP
8C
F8
30
00
30
30
30
30
30
30
30
30
30
30
ENDCHAR
STARTCHAR 012E
ENCODING 302
SWIDTH 315 0
DWIDTH 7 0
BBX 6 18 1 -4
BITMAP
F8
20
20
20
20
20
20
20
20
20
20
20
F8
F8
20
20
30
1C
ENDCHAR
STARTCHAR 012F
ENCODING 303
SWIDTH 135 0
DWIDTH 3 0
BBX 4 18 1 -4
BITMAP
C0
C0
00
00
C0
C0
C0
C0
C0
C0
C0
C0
C0
C0
80
80
C0
70
ENDCHAR
STARTCHAR 0130
ENCODING 304
SWIDTH 315 0
DWIDTH 7 0
BBX 5 18 1 0
BITMAP
70
70
00
00
F8
20
20
20
20
20
20
20
20
20
20
20
F8
F8
ENDCHAR
STARTCHAR 0131
ENCODING 305
SWIDTH 135 0
DWIDTH 3 0
BBX 2 10 1 0
BITMAP
C0
C0
C0
C0
C0
C0
C0
C0
C0
C0
ENDCHAR
STARTCHAR 0132
ENCODING 306
SWIDTH 630 0
DWIDTH 14 0
BBX 12 14 1 0
BITMAP
F830
2030
2030
2030
2030
2030
2030
2030
2030
2030
2030
2330
FB70
F9E0
ENDCHAR
STARTCHAR 0133
ENCODING 307
SWIDTH 315 0
DWIDTH 7 0
BBX 6 19 1 -5
BITMAP
CC
CC
00
00
CC
CC
CC
CC
CC
CC
CC
CC
CC
CC
0C
0C
18
78
20
ENDCHAR
STARTCHAR 0134
ENCODING 308
SWIDTH 360 0
DWIDTH 8 0
BBX 8 19 1 0
BITMAP
0C
0E
12
01
00
04
04
04
04
04
04
04
04
04
04
04
CC
EC
78
ENDCHAR
STARTCHAR 0135
ENCODING 309
SWIDTH 135 0
DWIDTH 3 0
BBX 6 19 -2 -5
BITMAP
38
24
40
00
18
18
18
18
18
18
18
18
18
18
18
18
18
F0
40
ENDCHAR
STARTCHAR 0136
ENCODING 310
SWIDTH 540 0
DWIDTH 12 0
BBX 10 19 1 -5
BITMAP
C300
C300
C600
CC00
D800
D800
F800
F800
EC00
C600
C200
C300
C180
C0C0
0800
1C00
0200
3C00
1800
ENDCHAR
STARTCHAR 0137
ENCODING 311
SWIDTH 405 0
DWIDTH 9 0
BBX 7 19 1 -5
BITMAP
C0
C0
C0
C0
CC
CC
D8
F0
F0
F8
D8
CC
C6
C6
10
38
04
38
30
ENDCHAR
STARTCHAR 0138
ENCODING 312
SWIDTH 405 0
DWIDTH 9 0
BBX 7 10 1 0
BITMAP
CC
CC
D8
F0
F0
F8
D8
CC
C6
C6
ENDCHAR
STARTCHAR 0139
ENCODING 313
SWIDTH 495 0
DWIDTH 11 0
BBX 9 19 1 0
BITMAP
0600
0C00
0800
1000
0000
C000
C000
C000
C000
C000
C000
C000
C000
C000
C000
C000
C000
FF80
FF80
ENDCHAR
STARTCHAR 013A
ENCODING 314
SWIDTH 225 0
DWIDTH 5 0
BBX 3 18 1 0
BITMAP
60
C0
80
00
C0
C0
C0
C0
C0
C0
C0
C0
C0
C0
C0
C0
E0
E0
ENDCHAR
STARTCHAR 013B
ENCODING 315
SWIDTH 495 0
DWIDTH 11 0
BBX 9 19 1 -5
BITMAP
C000
C000
C000
C000
C000
C000
C000
C000
C000
C000
C000
C000
FF80
FF80
0800
0E00
0200
1E00
0800
ENDCHAR
STARTCHAR 013C
ENCODING 316
SWIDTH 225 0
DWIDTH 5 0
BBX 4 19 1 -5
BITMAP
C0
C0
C0
C0
C0
C0
C0
C0
C0
C0
C0
C0
E0
E0
40
70
10
F0
40
ENDCHAR
STARTCHAR 013D
ENCODING 317
SWIDTH 495 0
DWIDTH 11 0
BBX 9 14 1 1
BITMAP
DC00
CC00
C400
C400
C800
C000
C000
C000
C000
C000
C000
C000
FF80
FF80
ENDCHAR
STARTCHAR 013E
ENCODING 318
SWIDTH 225 0
DWIDTH 5 0
BBX 6 14 1 1
BITMAP
D8
DC
C4
C8
D0
C0
C0
C0
C0
C0
C0
C0
E0
E0
ENDCHAR
STARTCHAR 013F
ENCODING 319
SWIDTH 495 0
DWIDTH 11 0
BBX 9 14 1 0
BITMAP
C000
C000
C000
C000
C000
C000
CC00
CC00
C000
C000
C000
C000
FF80
FF80
ENDCHAR
STARTCHAR 0140
ENCODING 320
SWIDTH 315 0
DWIDTH 7 0
BBX 6 14 1 0
BITMAP
C0
C0
C0
C0
C0
C0
DC
CC
C0
C0
C0
C0
E0
E0
ENDCHAR
STARTCHAR 0141
ENCODING 321
SWIDTH 585 0
DWIDTH 13 0
BBX 11 14 1 0
BITMAP
3000
3000
3000
3000
3000
3C00
3C00
F000
B000
3000
3000
3000
3FE0
3FE0
ENDCHAR
STARTCHAR 0142
ENCODING 322
SWIDTH 360 0
DWIDTH 8 0
BBX 6 14 1 0
BITMAP
30
30
30
30
30
3C
3C
F0
B0
30
30
30
3C
1C
ENDCHAR
STARTCHAR 0143
ENCODING 323
SWIDTH 585 0
DWIDTH 13 0
BBX 11 19 1 0
BITMAP
0300
0200
0400
0000
0000
C020
E020
F020
F020
D820
CC20
C420
C620
C320
C1A0
C1A0
C0E0
C060
C060
ENDCHAR
STARTCHAR 0144
ENCODING 324
SWIDTH 450 0
DWIDTH 10 0
BBX 9 14 1 0
BITMAP
0C00
0800
1000
0000
DE00
F700
E100
C180
C180
C180
C180
C180
C180
C180
ENDCHAR
STARTCHAR 0145
ENCODING 325
SWIDTH 585 0
DWIDTH 13 0
BBX 11 19 1 -5
BITMAP
C020
E020
F020
F020
D820
CC20
C420
C620
C320
C1A0
C1A0
C0E0
C060
C060
0400
0700
0100
0F00
0400
ENDCHAR
STARTCHAR 0146
ENCODING 326
SWIDTH 450 0
DWIDTH 10 0
BBX 9 15 1 -5
BITMAP
DE00
F700
E100
C180
C180
C180
C180
C180
C180
C180
0800
1C00
0200
1C00
1800
ENDCHAR
STARTCHAR 0147
ENCODING 327
SWIDTH 585 0
DWIDTH 13 0
BBX 11 19 1 0
BITMAP
1000
0900
0E00
0600
0000
C020
E020
F020
F020
D820
CC20
C420
C620
C320
C1A0
C1A0
C0E0
C060
C060
ENDCHAR
STARTCHAR 0148
ENCODING 328
SWIDTH 450 0
DWIDTH 10 0
BBX 9 14 1 0
BITMAP
2200
1400
1C00
0000
DE00
F700
E100
C180
C180
C180
C180
C180
C180
C180
ENDCHAR
STARTCHAR 0149
ENCODING 329
SWIDTH 585 0
DWIDTH 13 0
BBX 11 14 1 1
BITMAP
E000
E000
2000
4000
7780
BCC0
3860
3060
3060
3060
3060
3060
3060
3060
ENDCHAR
STARTCHAR 014A
ENCODING 330
SWIDTH 540 0
DWIDTH 12 0
BBX 10 15 1 0
BITMAP
0400
DF80
F180
E0C0
C0C0
C040
C040
C040
C040
C040
C040
C040
C040
C2C0
C780
ENDCHAR
STARTCHAR 014B
ENCODING 331
SWIDTH 450 0
DWIDTH 10 0
BBX 9 15 1 -5
BITMAP
DE00
F700
E100
C180
C180
C180
C180
C180
C180
C180
0180
0180
0180
0F00
0400
ENDCHAR
STARTCHAR 014C
ENCODING 332
SWIDTH 630 0
DWIDTH 14 0
BBX 12 18 1 0
BITMAP
1F80
1F80
0000
0600
1F80
30C0
6060
6020
C030
C030
C030
C030
C030
C030
6060
6060
39C0
1F80
ENDCHAR
STARTCHAR 014D
ENCODING 333
SWIDTH 450 0
DWIDTH 10 0
BBX 9 13 1 0
BITMAP
3E00
0000
0000
3E00
7700
4300
C180
C180
C180
C180
4300
7700
3E00
ENDCHAR
STARTCHAR 014E
ENCODING 334
SWIDTH 630 0
DWIDTH 14 0
BBX 12 19 1 0
BITMAP
1080
1980
0F00
0000
0600
1F80
30C0
6060
6020
C030
C030
C030
C030
C030
C030
6060
6060
39C0
1F80
ENDCHAR
STARTCHAR 014F
ENCODING 335
SWIDTH 450 0
DWIDTH 10 0
BBX 9 14 1 0
BITMAP
6200
3E00
1C00
0000
3E00
7700
4300
C180
C180
C180
C180
4300
7700
3E00
ENDCHAR
STARTCHAR 0150
ENCODING 336
SWIDTH 630 0
DWIDTH 14 0
BBX 12 19 1 0
BITMAP
06C0
0480
0900
0000
0600
1F80
30C0
6060
6020
C030
C030
C030
C030
C030
C030
6060
6060
39C0
1F80
ENDCHAR
STARTCHAR 0151
ENCODING 337
SWIDTH 450 0
DWIDTH 10 0
BBX 9 14 1 0
BITMAP
1980
1200
2400
0000
3E00
7700
4300
C180
C180
C180
C180
4300
7700
3E00
ENDCHAR
STARTCHAR 0152
ENCODING 338
SWIDTH 945 0
DWIDTH 21 0
BBX 20 15 1 0
BITMAP
060000
1FBFF0
30F000
607000
603000
C03000
C03000
C03FC0
C03FC0
C03000
C03000
607000
607000
39FFF0
1FBFF0
ENDCHAR
STARTCHAR 0153
ENCODING 339
SWIDTH 765 0
DWIDTH 17 0
BBX 16 10 1 0
BITMAP
3E7C
77EE
43C6
C183
C1FF
C180
C180
43C6
77EE
3E7C
ENDCHAR
STARTCHAR 0154
ENCODING 340
SWIDTH 495 0
DWIDTH 11 0
BBX 10 19 1 0
BITMAP
0600
0C00
0800
1000
0000
FE00
C700
C100
C180
C180
C300
FF00
FC00
C600
C600
C300
C100
C180
C0C0
ENDCHAR
STARTCHAR 0155
ENCODING 341
SWIDTH 315 0
DWIDTH 7 0
BBX 5 14 1 0
BITMAP
18
20
00
00
F8
F0
E0
C0
C0
C0
C0
C0
C0
C0
ENDCHAR
STARTCHAR 0156
ENCODING 342
SWIDTH 450 0
DWIDTH 10 0
BBX 10 19 1 -5
BITMAP
FE00
C700
C100
C180
C180
C300
FF00
FC00
C600
C600
C300
C100
C180
C0C0
0800
1C00
0200
1C00
1800
ENDCHAR
STARTCHAR 0157
ENCODING 343
SWIDTH 315 0
DWIDTH 7 0
BBX 6 15 0 -5
BITMAP
7C
78
70
60
60
60
60
60
60
60
40
70
10
F0
40
ENDCHAR
STARTCHAR 0158
ENCODING 344
SWIDTH 495 0
DWIDTH 11 0
BBX 10 18 1 1
BITMAP
2600
1C00
1C00
0000
FE00
C700
C100
C180
C180
C300
FF00
FC00
C600
C600
C300
C100
C180
C0C0
ENDCHAR
STARTCHAR 0159
ENCODING 345
SWIDTH 315 0
DWIDTH 7 0
BBX 5 14 1 0
BITMAP
88
58
30
00
F8
F0
E0
C0
C0
C0
C0
C0
C0
C0
ENDCHAR
STARTCHAR 015A
ENCODING 346
SWIDTH 450 0
DWIDTH 10 0
BBX 9 19 1 0
BITMAP
0600
0C00
0800
1000
0800
3E00
6300
4300
4000
6000
7000
1C00
0700
0300
0180
C180
C180
7700
3E00
ENDCHAR
STARTCHAR 015B
ENCODING 347
SWIDTH 360 0
DWIDTH 8 0
BBX 7 14 1 0
BITMAP
18
10
20
00
78
6C
C4
60
38
0C
06
C6
EC
78
ENDCHAR
STARTCHAR 015C
ENCODING 348
SWIDTH 450 0
DWIDTH 10 0
BBX 9 19 1 0
BITMAP
1C00
1400
2200
0000
0800
3E00
6300
4300
4000
6000
7000
1C00
0700
0300
0180
C180
C180
7700
3E00
ENDCHAR
STARTCHAR 015D
ENCODING 349
SWIDTH 360 0
DWIDTH 8 0
BBX 7 14 1 0
BITMAP
38
68
44
00
78
6C
C4
60
38
0C
06
C6
EC
78
ENDCHAR
STARTCHAR 015E
ENCODING 350
SWIDTH 450 0
DWIDTH 10 0
BBX 9 20 1 -5
BITMAP
0800
3E00
6300
4300
4000
6000
7000
1C00
0700
0300
0180
C180
C180
7700
3E00
0800
1C00
0200
3C00
1800
ENDCHAR
STARTCHAR 015F
ENCODING 351
SWIDTH 360 0
DWIDTH 8 0
BBX 7 15 1 -5
BITMAP
78
7C
C4
60
78
0C
06
C6
EC
78
30
38
0C
78
20
ENDCHAR
STARTCHAR 0160
ENCODING 352
SWIDTH 450 0
DWIDTH 10 0
BBX 9 18 1 1
BITMAP
2600
1C00
1C00
0800
3E00
6300
4300
4000
6000
7000
1C00
0700
0300
0180
C180
C180
7700
3E00
ENDCHAR
STARTCHAR 0161
ENCODING 353
SWIDTH 360 0
DWIDTH 8 0
BBX 7 14 1 0
BITMAP
44
28
38
00
78
6C
C4
60
38
0C
06
C6
EC
78
ENDCHAR
STARTCHAR 0162
ENCODING 354
SWIDTH 495 0
DWIDTH 11 0
BBX 9 19 1 -5
BITMAP
FF80
0800
0800
0800
0800
0800
0800
0800
0800
0800
0800
0800
0800
0800
0800
0E00
0200
1E00
0800
ENDCHAR
STARTCHAR 0163
ENCODING 355
SWIDTH 315 0
DWIDTH 7 0
BBX 6 17 1 -5
BITMAP
30
30
FC
FC
30
30
30
30
30
30
38
38
30
38
0C
78
20
ENDCHAR
STARTCHAR 0164
ENCODING 356
SWIDTH 495 0
DWIDTH 11 0
BBX 9 19 1 0
BITMAP
2000
1200
1C00
0C00
0000
FF80
0800
0800
0800
0800
0800
0800
0800
0800
0800
0800
0800
0800
0800
ENDCHAR
STARTCHAR 0165
ENCODING 357
SWIDTH 495 0
DWIDTH 11 0
BBX 9 14 1 1
BITMAP
0380
1380
3080
3100
FE00
FC00
3000
3000
3000
3000
3000
3000
3800
3800
ENDCHAR
STARTCHAR 0166
ENCODING 358
SWIDTH 495 0
DWIDTH 11 0
BBX 9 14 1 0
BITMAP
FF80
0800
0800
0800
0800
0800
7F00
7F00
0800
0800
0800
0800
0800
0800
ENDCHAR
STARTCHAR 0167
ENCODING 359
SWIDTH 315 0
DWIDTH 7 0
BBX 6 12 1 0
BITMAP
30
30
FC
FC
30
30
FC
FC
30
30
38
38
ENDCHAR
STARTCHAR 0168
ENCODING 360
SWIDTH 585 0
DWIDTH 13 0
BBX 11 18 1 0
BITMAP
3C80
2780
0000
0000
C060
C060
C060
C060
C060
C060
C060
C060
C060
C060
C060
60C0
3B80
1F00
ENDCHAR
STARTCHAR 0169
ENCODING 361
SWIDTH 450 0
DWIDTH 10 0
BBX 9 14 1 0
BITMAP
7100
4F00
4200
0000
C180
C180
C180
C180
C180
C180
C180
C380
6780
3D80
ENDCHAR
STARTCHAR 016A
ENCODING 362
SWIDTH 585 0
DWIDTH 13 0
BBX 11 18 1 0
BITMAP
1F00
1F00
0000
0000
C060
C060
C060
C060
C060
C060
C060
C060
C060
C060
C060
60C0
3B80
1F00
ENDCHAR
STARTCHAR 016B
ENCODING 363
SWIDTH 450 0
DWIDTH 10 0
BBX 9 13 1 0
BITMAP
3E00
0000
0000
C180
C180
C180
C180
C180
C180
C180
C380
6780
3D80
ENDCHAR
STARTCHAR 016C
ENCODING 364
SWIDTH 585 0
DWIDTH 13 0
BBX 11 19 1 0
BITMAP
3180
1100
1F00
0000
0000
C060
C060
C060
C060
C060
C060
C060
C060
C060
C060
C060
60C0
3B80
1F00
ENDCHAR
STARTCHAR 016D
ENCODING 365
SWIDTH 450 0
DWIDTH 10 0
BBX 9 14 1 0
BITMAP
6200
3E00
1C00
0000
C180
C180
C180
C180
C180
C180
C180
C380
6780
3D80
ENDCHAR
STARTCHAR 016E
ENCODING 366
SWIDTH 585 0
DWIDTH 13 0
BBX 11 19 1 0
BITMAP
0E00
0A00
0A00
0E00
0000
C060
C060
C060
C060
C060
C060
C060
C060
C060
C060
C060
60C0
3B80
1F00
ENDCHAR
STARTCHAR 016F
ENCODING 367
SWIDTH 450 0
DWIDTH 10 0
BBX 9 15 1 0
BITMAP
0800
1C00
1400
1C00
0000
C180
C180
C180
C180
C180
C180
C180
C380
6780
3D80
ENDCHAR
STARTCHAR 0170
ENCODING 368
SWIDTH 585 0
DWIDTH 13 0
BBX 11 19 1 0
BITMAP
06C0
0D80
0900
1200
0000
C060
C060
C060
C060
C060
C060
C060
C060
C060
C060
C060
60C0
3B80
1F00
ENDCHAR
STARTCHAR 0171
ENCODING 369
SWIDTH 450 0
DWIDTH 10 0
BBX 9 14 1 0
BITMAP
1980
1200
2400
0000
C180
C180
C180
C180
C180
C180
C180
C380
6780
3D80
ENDCHAR
STARTCHAR 0172
ENCODING 370
SWIDTH 585 0
DWIDTH 13 0
BBX 11 18 1 -4
BITMAP
C060
C060
C060
C060
C060
C060
C060
C060
C060
C060
C060
60C0
3B80
1F00
0400
0400
0600
0380
ENDCHAR
STARTCHAR 0173
ENCODING 371
SWIDTH 450 0
DWIDTH 10 0
BBX 10 14 1 -4
BITMAP
C180
C180
C180
C180
C180
C180
C180
C380
6780
3D80
0200
0300
0300
01C0
ENDCHAR
STARTCHAR 0174
ENCODING 372
SWIDTH 855 0
DWIDTH 19 0
BBX 17 19 1 0
BITMAP
01C000
014000
022000
000000
000000
C0C180
41C180
61C100
614300
636300
236300
332200
323600
363600
163600
1E1400
1C1C00
0C1C00
0C1800
ENDCHAR
STARTCHAR 0175
ENCODING 373
SWIDTH 630 0
DWIDTH 14 0
BBX 12 14 1 0
BITMAP
0700
0900
0080
0000
C610
C730
4730
6730
6D20
2DE0
39E0
39C0
38C0
18C0
ENDCHAR
STARTCHAR 0176
ENCODING 374
SWIDTH 630 0
DWIDTH 14 0
BBX 11 19 2 0
BITMAP
0C00
1E00
1200
2100
0000
C060
C0C0
6180
3300
3300
1E00
0C00
0C00
0C00
0C00
0C00
0C00
0C00
0C00
ENDCHAR
STARTCHAR 0177
ENCODING 375
SWIDTH 495 0
DWIDTH 11 0
BBX 9 19 1 -5
BITMAP
1C00
1600
2200
0000
C180
4180
6300
6300
2200
3600
3600
1C00
1C00
0C00
0800
1800
1800
7000
4000
ENDCHAR
STARTCHAR 0178
ENCODING 376
SWIDTH 630 0
DWIDTH 14 0
BBX 11 18 2 0
BITMAP
3300
3300
0000
0000
C060
C0C0
6180
3300
3300
1E00
0C00
0C00
0C00
0C00
0C00
0C00
0C00
0C00
ENDCHAR
STARTCHAR 0179
ENCODING 377
SWIDTH 495 0
DWIDTH 11 0
BBX 10 19 1 0
BITMAP
0600
0400
0800
0000
0000
FFC0
00C0
0180
0300
0300
0600
0C00
0800
1800
3000
6000
6000
FFC0
FFC0
ENDCHAR
STARTCHAR 017A
ENCODING 378
SWIDTH 360 0
DWIDTH 8 0
BBX 7 14 1 0
BITMAP
18
10
20
00
FE
FE
0C
18
18
30
60
60
FE
FE
ENDCHAR
STARTCHAR 017B
ENCODING 379
SWIDTH 495 0
DWIDTH 11 0
BBX 10 18 1 0
BITMAP
0C00
0C00
0000
0000
FFC0
00C0
0180
0300
0300
0600
0C00
0800
1800
3000
6000
6000
FFC0
FFC0
ENDCHAR
STARTCHAR 017C
ENCODING 380
SWIDTH 360 0
DWIDTH 8 0
BBX 7 14 1 0
BITMAP
10
38
00
00
FE
FE
0C
18
18
30
60
60
FE
FE
ENDCHAR
STARTCHAR 017D
ENCODING 381
SWIDTH 495 0
DWIDTH 11 0
BBX 10 19 1 0
BITMAP
2100
1200
1E00
0C00
0000
FFC0
00C0
0180
0300
0300
0600
0C00
0800
1800
3000
6000
6000
FFC0
FFC0
ENDCHAR
STARTCHAR 017E
ENCODING 382
SWIDTH 360 0
DWIDTH 8 0
BBX 7 14 1 0
BITMAP
44
28
38
00
FE
FE
0C
18
18
30
60
60
FE
FE
ENDCHAR
STARTCHAR 017F
ENCODING 383
SWIDTH 135 0
DWIDTH 3 0
BBX 5 20 1 -5
BITMAP
10
78
C0
C0
C0
C0
C0
C0
C0
C0
C0
C0
C0
C0
C0
C0
C0
C0
C0
40
ENDCHAR
STARTCHAR 0180
ENCODING 384
SWIDTH 450 0
DWIDTH 10 0
BBX 11 14 -1 0
BITMAP
3000
FC00
FC00
3000
3F80
3DC0
30C0
3060
3060
3060
3060
30C0
3DC0
3F80
ENDCHAR
STARTCHAR 0181
ENCODING 385
SWIDTH 675 0
DWIDTH 15 0
BBX 14 14 1 0
BITMAP
7FF0
CC30
CC18
CC18
0C18
0C30
0FF0
0C18
0C08
0C0C
0C08
0C18
0FF8
0FE0
ENDCHAR
STARTCHAR 0182
ENCODING 386
SWIDTH 495 0
DWIDTH 11 0
BBX 9 14 1 0
BITMAP
FF00
C000
C000
C000
C000
C000
FF00
C380
C180
C080
C180
C180
FF00
FE00
ENDCHAR
STARTCHAR 0183
ENCODING 387
SWIDTH 450 0
DWIDTH 10 0
BBX 9 14 1 0
BITMAP
FF00
C000
C000
C000
FE00
F700
C300
C180
C180
C180
C180
C300
F700
FE00
ENDCHAR
STARTCHAR 0184
ENCODING 388
SWIDTH 675 0
DWIDTH 15 0
BBX 13 14 1 0
BITMAP
1C00
3C00
6C00
CC00
0C00
0C00
0FE0
0C30
0C18
0C18
0C18
0C18
0FF0
0FE0
ENDCHAR
STARTCHAR 0185
ENCODING 389
SWIDTH 495 0
DWIDTH 11 0
BBX 9 10 1 0
BITMAP
3000
7000
F000
5000
1F00
1180
1080
1080
1F80
1F00
ENDCHAR
STARTCHAR 0186
ENCODING 390
SWIDTH 585 0
DWIDTH 13 0
BBX 11 15 1 0
BITMAP
0400
3F00
6180
C0C0
4040
0060
0060
0060
0060
0060
0060
40C0
E0C0
7380
3F00
ENDCHAR
STARTCHAR 0187
ENCODING 391
SWIDTH 585 0
DWIDTH 13 0
BBX 14 18 1 0
BITMAP
001C
003C
0060
0660
1FE0
30E0
6060
6000
C000
C000
C000
C000
C000
C000
6040
6060
39C0
1F80
ENDCHAR
STARTCHAR 0188
ENCODING 392
SWIDTH 450 0
DWIDTH 10 0
BBX 12 14 1 0
BITMAP
00F0
01A0
0100
0100
3F00
7700
4300
C000
C000
C000
C000
4300
7700
3E00
ENDCHAR
STARTCHAR 0189
ENCODING 393
SWIDTH 630 0
DWIDTH 14 0
BBX 12 14 1 0
BITMAP
FF80
21C0
2060
2020
2030
2010
FE10
FE10
2010
2030
2020
2060
FFC0
FF00
ENDCHAR
STARTCHAR 018A
ENCODING 394
SWIDTH 720 0
DWIDTH 16 0
BBX 15 14 1 0
BITMAP
7FF0
CC38
CC1C
CC0C
0C04
0C06
0C06
0C06
0C06
0C04
0C0C
0C18
1FF0
1FE0
ENDCHAR
STARTCHAR 018B
ENCODING 395
SWIDTH 495 0
DWIDTH 11 0
BBX 9 14 1 0
BITMAP
3F80
0080
0080
0080
0080
0080
3F80
6080
C080
C080
C080
C080
7F80
3F80
ENDCHAR
STARTCHAR 018C
ENCODING 396
SWIDTH 450 0
DWIDTH 10 0
BBX 9 14 1 0
BITMAP
7F80
0180
0180
0180
3F80
7780
4380
C180
C180
C180
C180
4380
7780
3F80
ENDCHAR
STARTCHAR 018D
ENCODING 397
SWIDTH 450 0
DWIDTH 10 0
BBX 9 14 1 -4
BITMAP
3E00
7700
4300
C180
C180
C180
C180
6300
3700
1E00
0C00
0400
CC00
7C00
ENDCHAR
STARTCHAR 018E
ENCODING 398
SWIDTH 495 0
DWIDTH 11 0
BBX 9 14 1 0
BITMAP
FF80
0080
0080
0080
0080
0080
7F80
7F80
0080
0080
0080
0080
FF80
FF80
ENDCHAR
STARTCHAR 018F
ENCODING 399
SWIDTH 630 0
DWIDTH 14 0
BBX 12 15 1 0
BITMAP
0200
1F80
30C0
0060
0020
0030
0030
FFF0
FFF0
C030
C030
6060
6060
39C0
1F80
ENDCHAR
STARTCHAR 0190
ENCODING 400
SWIDTH 450 0
DWIDTH 10 0
BBX 9 15 1 0
BITMAP
0800
7E00
6300
C180
C000
C000
7000
7C00
E000
C000
8000
8080
C180
7700
3E00
ENDCHAR
STARTCHAR 0191
ENCODING 401
SWIDTH 495 0
DWIDTH 11 0
BBX 12 19 -2 -5
BITMAP
1FF0
1800
1800
1800
1800
1800
1FE0
1FE0
1800
1800
1800
1800
1800
1800
1800
1800
1800
F000
4000
ENDCHAR
STARTCHAR 0192
ENCODING 402
SWIDTH 315 0
DWIDTH 7 0
BBX 8 19 0 -4
BITMAP
0F
18
18
18
18
7E
7E
18
18
18
18
18
18
18
18
18
18
F0
40
ENDCHAR
STARTCHAR 0193
ENCODING 403
SWIDTH 585 0
DWIDTH 13 0
BBX 14 18 1 0
BITMAP
001C
003C
0060
0660
1FE0
30E0
6060
6000
C000
C000
C3E0
C3E0
C060
C060
6060
6060
39C0
1F80
ENDCHAR
STARTCHAR 0194
ENCODING 404
SWIDTH 630 0
DWIDTH 14 0
BBX 12 19 1 -5
BITMAP
C030
4030
6060
6060
3040
30C0
10C0
1880
1980
0980
0D00
0F00
0700
0600
0700
0F00
0F00
0F00
0200
ENDCHAR
STARTCHAR 0195
ENCODING 405
SWIDTH 675 0
DWIDTH 15 0
BBX 14 14 1 0
BITMAP
C000
C000
C000
C000
DE0C
F70C
E10C
C18C
C18C
C18C
C18C
C18C
C0D8
C0F0
ENDCHAR
STARTCHAR 0196
ENCODING 406
SWIDTH 360 0
DWIDTH 8 0
BBX 6 14 1 0
BITMAP
C0
C0
C0
C0
C0
C0
C0
C0
C0
C0
C0
CC
EC
78
ENDCHAR
STARTCHAR 0197
ENCODING 407
SWIDTH 315 0
DWIDTH 7 0
BBX 5 14 1 0
BITMAP
F8
20
20
20
20
20
F8
F8
20
20
20
20
F8
F8
ENDCHAR
STARTCHAR 0198
ENCODING 408
SWIDTH 540 0
DWIDTH 12 0
BBX 10 18 1 0
BITMAP
7800
F000
C000
C000
C300
C300
C600
CC00
D800
D800
F800
F800
EC00
C600
C200
C300
C180
C0C0
ENDCHAR
STARTCHAR 0199
ENCODING 409
SWIDTH 405 0
DWIDTH 9 0
BBX 7 18 1 0
BITMAP
78
F0
C0
C0
C0
C0
C0
C0
CC
CC
D8
F0
F0
F8
D8
CC
C6
C6
ENDCHAR
STARTCHAR 019A
ENCODING 410
SWIDTH 315 0
DWIDTH 7 0
BBX 5 14 1 0
BITMAP
20
20
20
20
20
20
F8
F8
20
20
20
20
38
38
ENDCHAR
STARTCHAR 019B
ENCODING 411
SWIDTH 495 0
DWIDTH 11 0
BBX 9 15 1 0
BITMAP
4000
7000
1E00
7C00
6800
0C00
1C00
1C00
3600
3600
2200
6300
6300
4180
C180
ENDCHAR
STARTCHAR 019C
ENCODING 412
SWIDTH 585 0
DWIDTH 13 0
BBX 11 14 1 0
BITMAP
C620
C620
C620
C620
C620
C620
C620
C620
C620
C620
C620
CE60
7EE0
7BE0
ENDCHAR
STARTCHAR 019D
ENCODING 413
SWIDTH 585 0
DWIDTH 13 0
BBX 14 19 -2 -5
BITMAP
1804
1C04
1E04
1E04
1B04
1984
1884
18C4
1864
1834
1834
181C
180C
180C
1800
1800
1800
F000
4000
ENDCHAR
STARTCHAR 019E
ENCODING 414
SWIDTH 450 0
DWIDTH 10 0
BBX 9 15 1 -5
BITMAP
DE00
F700
E100
C180
C180
C180
C180
C180
C180
C180
0180
0180
0180
0180
0080
ENDCHAR
STARTCHAR 019F
ENCODING 415
SWIDTH 630 0
DWIDTH 14 0
BBX 12 15 1 0
BITMAP
0600
1F80
30C0
6060
6020
C030
C030
FFF0
FFF0
C030
C030
6060
6060
39C0
1F80
ENDCHAR
STARTCHAR 01A0
ENCODING 416
SWIDTH 675 0
DWIDTH 15 0
BBX 15 15 1 0
BITMAP
0600
1F8C
30CE
6062
6024
C038
C030
C030
C030
C030
C030
6060
6060
39C0
1F80
ENDCHAR
STARTCHAR 01A1
ENCODING 417
SWIDTH 495 0
DWIDTH 11 0
BBX 11 12 1 0
BITMAP
00E0
00E0
3E20
7740
4340
C180
C180
C180
C180
4300
7700
3E00
ENDCHAR
STARTCHAR 01A2
ENCODING 418
SWIDTH 675 0
DWIDTH 15 0
BBX 14 19 1 -4
BITMAP
0600
1FFC
30CC
604C
604C
C04C
C04C
C04C
C04C
C04C
C04C
604C
604C
39CC
1F8C
000C
000C
000C
000C
ENDCHAR
STARTCHAR 01A3
ENCODING 419
SWIDTH 540 0
DWIDTH 12 0
BBX 10 14 1 -5
BITMAP
3FC0
77C0
4240
C240
C240
C240
C240
4240
7640
3E40
0040
0040
0040
0040
ENDCHAR
STARTCHAR 01A4
ENCODING 420
SWIDTH 675 0
DWIDTH 15 0
BBX 13 14 1 0
BITMAP
7FE0
CC30
CC18
CC18
0C18
0C18
0FF0
0FC0
0C00
0C00
0C00
0C00
0C00
0C00
ENDCHAR
STARTCHAR 01A5
ENCODING 421
SWIDTH 450 0
DWIDTH 10 0
BBX 9 20 1 -5
BITMAP
1000
7800
C000
C000
C000
FE00
F700
C300
C180
C180
C180
C180
C300
F700
FE00
C000
C000
C000
C000
4000
ENDCHAR
STARTCHAR 01A6
ENCODING 422
SWIDTH 450 0
DWIDTH 10 0
BBX 9 17 1 -3
BITMAP
C000
C000
C000
FE00
FF00
C100
C180
C180
C300
FE00
C600
C600
C300
C300
0100
0180
0180
ENDCHAR
STARTCHAR 01A7
ENCODING 423
SWIDTH 450 0
DWIDTH 10 0
BBX 9 15 1 0
BITMAP
0800
3E00
6300
4300
0100
0300
0600
1C00
7000
E000
C000
C180
C100
7700
3E00
ENDCHAR
STARTCHAR 01A8
ENCODING 424
SWIDTH 360 0
DWIDTH 8 0
BBX 7 10 1 0
BITMAP
78
7C
C4
0C
38
60
C0
C6
EC
78
ENDCHAR
STARTCHAR 01A9
ENCODING 425
SWIDTH 495 0
DWIDTH 11 0
BBX 9 14 1 0
BITMAP
FF80
C000
6000
3000
3000
1800
0C00
1800
1800
3000
6000
6000
FF80
FF80
ENDCHAR
STARTCHAR 01AA
ENCODING 426
SWIDTH 360 0
DWIDTH 8 0
BBX 9 19 1 -4
BITMAP
7800
CC00
C400
CC00
7C00
1400
0400
0400
0400
0400
0400
0400
0400
0400
0400
0400
0600
0780
0100
ENDCHAR
STARTCHAR 01AB
ENCODING 427
SWIDTH 315 0
DWIDTH 7 0
BBX 6 18 1 -5
BITMAP
10
30
30
FC
FC
30
30
30
30
30
30
38
38
08
08
18
78
20
ENDCHAR
STARTCHAR 01AC
ENCODING 428
SWIDTH 585 0
DWIDTH 13 0
BBX 11 14 1 0
BITMAP
7FE0
C200
C200
C200
0200
0200
0200
0200
0200
0200
0200
0200
0200
0200
ENDCHAR
STARTCHAR 01AD
ENCODING 429
SWIDTH 315 0
DWIDTH 7 0
BBX 7 14 1 1
BITMAP
1E
30
30
30
FC
FC
30
30
30
30
30
30
38
38
ENDCHAR
STARTCHAR 01AE
ENCODING 430
SWIDTH 495 0
DWIDTH 11 0
BBX 9 19 1 -5
BITMAP
FF80
0800
0800
0800
0800
0800
0800
0800
0800
0800
0800
0800
0800
0800
0800
0800
0C00
0780
0300
ENDCHAR
STARTCHAR 01AF
ENCODING 431
SWIDTH 675 0
DWIDTH 15 0
BBX 14 15 1 0
BITMAP
0008
C07C
C06C
C064
C064
C068
C070
C060
C060
C060
C060
C060
60C0
3B80
1F00
ENDCHAR
STARTCHAR 01B0
ENCODING 432
SWIDTH 540 0
DWIDTH 12 0
BBX 12 12 1 0
BITMAP
0060
0070
C190
C1A0
C1A0
C1C0
C180
C180
C180
C380
6780
3D80
ENDCHAR
STARTCHAR 01B1
ENCODING 433
SWIDTH 630 0
DWIDTH 14 0
BBX 12 14 1 0
BITMAP
F9F0
30C0
6060
6020
C030
C030
C030
C030
C030
C030
6060
6060
39C0
1F80
ENDCHAR
STARTCHAR 01B2
ENCODING 434
SWIDTH 585 0
DWIDTH 13 0
BBX 11 14 1 1
BITMAP
C1C0
4060
6060
6060
3040
30C0
10C0
1880
1980
0980
0D00
0F00
0700
0600
ENDCHAR
STARTCHAR 01B3
ENCODING 435
SWIDTH 630 0
DWIDTH 14 0
BBX 14 15 2 0
BITMAP
0020
C078
C0CC
6180
3300
3300
1E00
0C00
0C00
0C00
0C00
0C00
0C00
0C00
0C00
ENDCHAR
STARTCHAR 01B4
ENCODING 436
SWIDTH 630 0
DWIDTH 14 0
BBX 12 15 1 -5
BITMAP
C0E0
41B0
6300
6300
2200
3600
3600
1C00
1C00
0C00
0800
1800
1800
7000
4000
ENDCHAR
STARTCHAR 01B5
ENCODING 437
SWIDTH 495 0
DWIDTH 11 0
BBX 10 14 1 0
BITMAP
FFC0
00C0
0180
0300
0300
0600
7F80
7F80
1800
3000
6000
6000
FFC0
FFC0
ENDCHAR
STARTCHAR 01B6
ENCODING 438
SWIDTH 360 0
DWIDTH 8 0
BBX 7 10 1 0
BITMAP
FE
FE
0C
0C
7C
7C
60
60
FE
FE
ENDCHAR
STARTCHAR 01B7
ENCODING 439
SWIDTH 495 0
DWIDTH 11 0
BBX 10 14 1 0
BITMAP
FFC0
00C0
0180
0300
0300
0600
0F80
0180
00C0
00C0
C0C0
4180
7380
3F00
ENDCHAR
STARTCHAR 01B8
ENCODING 440
SWIDTH 495 0
DWIDTH 11 0
BBX 10 14 1 0
BITMAP
FFC0
C000
6000
3000
3000
1800
7C00
6000
C000
C000
C0C0
4180
7380
3F00
ENDCHAR
STARTCHAR 01B9
ENCODING 441
SWIDTH 405 0
DWIDTH 9 0
BBX 8 15 1 -5
BITMAP
FF
FF
60
60
30
38
70
40
C0
C0
C0
C0
62
3E
08
ENDCHAR
STARTCHAR 01BA
ENCODING 442
SWIDTH 360 0
DWIDTH 8 0
BBX 7 15 1 -5
BITMAP
FE
FE
0C
18
18
3C
04
04
1C
70
C0
C6
C4
7C
10
ENDCHAR
STARTCHAR 01BB
ENCODING 443
SWIDTH 405 0
DWIDTH 9 0
BBX 8 15 1 0
BITMAP
10
7E
66
C3
03
03
06
FF
FF
30
60
C0
C0
FF
FF
ENDCHAR
STARTCHAR 01BC
ENCODING 444
SWIDTH 450 0
DWIDTH 10 0
BBX 8 14 1 0
BITMAP
FF
60
40
40
FC
EE
C3
03
01
01
03
C3
66
3C
ENDCHAR
STARTCHAR 01BD
ENCODING 445
SWIDTH 360 0
DWIDTH 8 0
BBX 7 10 1 0
BITMAP
FC
FC
60
78
6C
06
06
C4
6C
38
ENDCHAR
STARTCHAR 01BE
ENCODING 446
SWIDTH 450 0
DWIDTH 10 0
BBX 8 13 1 0
BITMAP
10
30
30
FC
FC
30
30
1E
07
01
21
33
1E
ENDCHAR
STARTCHAR 01BF
ENCODING 447
SWIDTH 405 0
DWIDTH 9 0
BBX 8 15 1 -5
BITMAP
FC
EE
C3
C3
C3
C6
CE
DC
F8
E0
E0
C0
C0
C0
40
ENDCHAR
STARTCHAR 01C0
ENCODING 448
SWIDTH 135 0
DWIDTH 3 0
BBX 2 19 1 -5
BITMAP
C0
C0
C0
C0
C0
C0
C0
C0
C0
C0
C0
C0
C0
C0
C0
C0
C0
C0
40
ENDCHAR
STARTCHAR 01C1
ENCODING 449
SWIDTH 315 0
DWIDTH 7 0
BBX 5 19 1 -5
BITMAP
D8
D8
D8
D8
D8
D8
D8
D8
D8
D8
D8
D8
D8
D8
D8
D8
D8
D8
48
ENDCHAR
STARTCHAR 01C2
ENCODING 450
SWIDTH 405 0
DWIDTH 9 0
BBX 8 14 1 0
BITMAP
18
18
18
18
FF
FF
18
18
FF
FF
18
18
18
18
ENDCHAR
STARTCHAR 01C3
ENCODING 451
SWIDTH 135 0
DWIDTH 3 0
BBX 2 14 1 0
BITMAP
C0
C0
C0
C0
C0
C0
C0
C0
C0
C0
00
00
C0
C0
ENDCHAR
STARTCHAR 01C4
ENCODING 452
SWIDTH 1170 0
DWIDTH 26 0
BBX 24 19 1 0
BITMAP
000084
000048
000078
000030
000000
FF83FF
21C003
206006
20600C
20300C
203018
203030
203030
203060
2030C0
206080
20E180
FFC3FF
FF03FF
ENDCHAR
STARTCHAR 01C5
ENCODING 453
SWIDTH 990 0
DWIDTH 22 0
BBX 21 14 1 0
BITMAP
FF8110
21C0A0
2060E0
206000
2033F8
2033F8
203030
203030
203060
2030C0
206080
20E180
FFC3F8
FF03F8
ENDCHAR
STARTCHAR 01C6
ENCODING 454
SWIDTH 855 0
DWIDTH 19 0
BBX 18 14 1 0
BITMAP
018880
018D00
018700
018000
3F9FC0
779FC0
438180
C18300
C18300
C18600
C18C00
438C00
779FC0
3F9FC0
ENDCHAR
STARTCHAR 01C7
ENCODING 455
SWIDTH 855 0
DWIDTH 19 0
BBX 17 14 1 0
BITMAP
C00080
C00080
C00080
C00080
C00080
C00080
C00080
C00080
C00080
C00080
C00080
C01880
FF8D80
FF8F00
ENDCHAR
STARTCHAR 01C8
ENCODING 456
SWIDTH 675 0
DWIDTH 15 0
BBX 14 19 1 -5
BITMAP
C008
C01C
C000
C000
C008
C008
C008
C008
C008
C008
C008
C008
FF88
FF88
0008
0008
0018
00F0
0020
ENDCHAR
STARTCHAR 01C9
ENCODING 457
SWIDTH 405 0
DWIDTH 9 0
BBX 8 19 1 -5
BITMAP
C6
C7
C0
C0
C6
C6
C6
C6
C6
C6
C6
C6
E6
E6
06
06
06
3C
18
ENDCHAR
STARTCHAR 01CA
ENCODING 458
SWIDTH 945 0
DWIDTH 21 0
BBX 20 14 1 0
BITMAP
C02030
E02030
F02030
F02030
D82030
CC2030
C42030
C62030
C32030
C1A030
C1A030
C0E230
C06360
C061E0
ENDCHAR
STARTCHAR 01CB
ENCODING 459
SWIDTH 765 0
DWIDTH 17 0
BBX 16 19 1 -5
BITMAP
C023
E027
F020
F020
D823
CC23
C423
C623
C323
C1A3
C1A3
C0E3
C063
C063
0003
0003
0006
001E
0008
ENDCHAR
STARTCHAR 01CC
ENCODING 460
SWIDTH 675 0
DWIDTH 15 0
BBX 13 19 1 -5
BITMAP
0018
0018
0000
0000
DE18
F718
E118
C198
C198
C198
C198
C198
C198
C198
0018
0018
0018
00F0
0040
ENDCHAR
STARTCHAR 01CD
ENCODING 461
SWIDTH 630 0
DWIDTH 14 0
BBX 12 19 1 0
BITMAP
0080
0900
0700
0600
0000
0600
0700
0F00
0D00
0980
1980
18C0
3FC0
3FC0
2060
6060
6020
4030
C030
ENDCHAR
STARTCHAR 01CE
ENCODING 462
SWIDTH 405 0
DWIDTH 9 0
BBX 7 14 1 0
BITMAP
44
28
38
00
3C
7E
06
06
3E
FE
C6
C6
EE
7E
ENDCHAR
STARTCHAR 01CF
ENCODING 463
SWIDTH 315 0
DWIDTH 7 0
BBX 5 18 1 1
BITMAP
88
50
70
00
F8
20
20
20
20
20
20
20
20
20
20
20
F8
F8
ENDCHAR
STARTCHAR 01D0
ENCODING 464
SWIDTH 135 0
DWIDTH 3 0
BBX 5 14 -1 0
BITMAP
88
58
30
00
30
30
30
30
30
30
30
30
30
30
ENDCHAR
STARTCHAR 01D1
ENCODING 465
SWIDTH 630 0
DWIDTH 14 0
BBX 12 19 1 0
BITMAP
1080
0900
0F00
0600
0600
1F80
30C0
6060
6020
C030
C030
C030
C030
C030
C030
6060
6060
39C0
1F80
ENDCHAR
STARTCHAR 01D2
ENCODING 466
SWIDTH 450 0
DWIDTH 10 0
BBX 9 14 1 0
BITMAP
2200
1400
1C00
0000
3E00
7700
4300
C180
C180
C180
C180
4300
7700
3E00
ENDCHAR
STARTCHAR 01D3
ENCODING 467
SWIDTH 585 0
DWIDTH 13 0
BBX 11 18 1 1
BITMAP
1100
0A00
0E00
0000
C060
C060
C060
C060
C060
C060
C060
C060
C060
C060
C060
60C0
3B80
1F00
ENDCHAR
STARTCHAR 01D4
ENCODING 468
SWIDTH 450 0
DWIDTH 10 0
BBX 9 14 1 0
BITMAP
2200
1400
1C00
0000
C180
C180
C180
C180
C180
C180
C180
C380
6780
3D80
ENDCHAR
STARTCHAR 01D5
ENCODING 469
SWIDTH 585 0
DWIDTH 13 0
BBX 11 19 1 0
BITMAP
1F00
1F00
1100
3B80
1100
C060
C060
C060
C060
C060
C060
C060
C060
C060
C060
C060
60C0
3B80
1F00
ENDCHAR
STARTCHAR 01D6
ENCODING 470
SWIDTH 450 0
DWIDTH 10 0
BBX 9 17 1 0
BITMAP
3E00
3E00
0000
2600
7600
0000
0000
C180
C180
C180
C180
C180
C180
C180
C380
6780
3D80
ENDCHAR
STARTCHAR 01D7
ENCODING 471
SWIDTH 585 0
DWIDTH 13 0
BBX 11 19 1 0
BITMAP
0300
0200
0D00
1B00
0000
C060
C060
C060
C060
C060
C060
C060
C060
C060
C060
C060
60C0
3B80
1F00
ENDCHAR
STARTCHAR 01D8
ENCODING 472
SWIDTH 450 0
DWIDTH 10 0
BBX 9 18 1 0
BITMAP
0400
0800
1000
0000
2600
7600
0000
0000
C180
C180
C180
C180
C180
C180
C180
C380
6780
3D80
ENDCHAR
STARTCHAR 01D9
ENCODING 473
SWIDTH 585 0
DWIDTH 13 0
BBX 11 19 1 0
BITMAP
1100
0A00
0E00
1B00
0000
C060
C060
C060
C060
C060
C060
C060
C060
C060
C060
C060
60C0
3B80
1F00
ENDCHAR
STARTCHAR 01DA
ENCODING 474
SWIDTH 450 0
DWIDTH 10 0
BBX 9 18 1 0
BITMAP
2200
3400
1C00
0000
2600
7600
0000
0000
C180
C180
C180
C180
C180
C180
C180
C380
6780
3D80
ENDCHAR
STARTCHAR 01DB
ENCODING 475
SWIDTH 585 0
DWIDTH 13 0
BBX 11 19 1 0
BITMAP
1800
0800
0E00
1B00
0000
C060
C060
C060
C060
C060
C060
C060
C060
C060
C060
C060
60C0
3B80
1F00
ENDCHAR
STARTCHAR 01DC
ENCODING 476
SWIDTH 450 0
DWIDTH 10 0
BBX 9 18 1 0
BITMAP
3000
1800
0800
0000
2600
7600
0000
0000
C180
C180
C180
C180
C180
C180
C180
C380
6780
3D80
ENDCHAR
STARTCHAR 01DD
ENCODING 477
SWIDTH 450 0
DWIDTH 10 0
BBX 9 10 1 0
BITMAP
3E00
7700
4300
0180
0180
FF80
C180
4300
7700
3E00
ENDCHAR
STARTCHAR 01DE
ENCODING 478
SWIDTH 630 0
DWIDTH 14 0
BBX 12 19 1 0
BITMAP
1F80
1F80
0980
1980
0800
0600
0700
0F00
0D00
0980
1980
18C0
3FC0
3FC0
2060
6060
6020
4030
C030
ENDCHAR
STARTCHAR 01DF
ENCODING 479
SWIDTH 405 0
DWIDTH 9 0
BBX 7 17 1 0
BITMAP
7C
7C
00
6C
EE
00
00
3C
7E
06
06
3E
FE
C6
C6
EE
7E
ENDCHAR
STARTCHAR 01E0
ENCODING 480
SWIDTH 630 0
DWIDTH 14 0
BBX 12 19 1 0
BITMAP
1F80
1F80
0600
0600
0000
0600
0700
0F00
0D00
0980
1980
18C0
3FC0
3FC0
2060
6060
6020
4030
C030
ENDCHAR
STARTCHAR 01E1
ENCODING 481
SWIDTH 405 0
DWIDTH 9 0
BBX 7 17 1 0
BITMAP
7C
7C
00
10
38
10
00
3C
7E
06
06
3E
FE
C6
C6
EE
7E
ENDCHAR
STARTCHAR 01E2
ENCODING 482
SWIDTH 720 0
DWIDTH 16 0
BBX 14 18 1 0
BITMAP
01F0
01F0
0000
0000
07FC
0580
0D80
0D80
0980
1980
1FF8
3FF8
3180
2180
6180
6180
41FC
C1FC
ENDCHAR
STARTCHAR 01E3
ENCODING 483
SWIDTH 720 0
DWIDTH 16 0
BBX 14 13 1 0
BITMAP
0FC0
0000
0000
3DF0
7FB8
0708
060C
3FFC
FE00
C600
C708
EFB8
7DF0
ENDCHAR
STARTCHAR 01E4
ENCODING 484
SWIDTH 630 0
DWIDTH 14 0
BBX 13 15 1 0
BITMAP
0600
1F80
30C0
6060
6000
C000
C000
C3E0
C3E0
C060
C0F8
60F8
6060
39C0
1F80
ENDCHAR
STARTCHAR 01E5
ENCODING 485
SWIDTH 495 0
DWIDTH 11 0
BBX 11 15 0 -5
BITMAP
1F60
3BE0
60C0
60C0
60C0
3180
3F00
6000
3800
1F80
00C0
FFE0
7180
3F80
0C00
ENDCHAR
STARTCHAR 01E6
ENCODING 486
SWIDTH 585 0
DWIDTH 13 0
BBX 11 18 1 1
BITMAP
1900
0E00
0E00
0600
1F80
30C0
6060
6000
C000
C000
C3E0
C3E0
C060
C060
6060
6060
39C0
1F80
ENDCHAR
STARTCHAR 01E7
ENCODING 487
SWIDTH 495 0
DWIDTH 11 0
BBX 10 19 1 -5
BITMAP
2200
1400
1C00
0000
3EC0
77C0
C180
C180
C180
6300
7E00
C000
7000
3F00
0180
C180
E300
7F00
1800
ENDCHAR
STARTCHAR 01E8
ENCODING 488
SWIDTH 540 0
DWIDTH 12 0
BBX 10 19 1 0
BITMAP
2100
1200
1E00
0C00
0000
C300
C300
C600
CC00
D800
D800
F800
F800
EC00
C600
C200
C300
C180
C0C0
ENDCHAR
STARTCHAR 01E9
ENCODING 489
SWIDTH 405 0
DWIDTH 9 0
BBX 7 18 1 0
BITMAP
24
3C
18
00
C0
C0
C0
C0
CC
CC
D8
F0
F0
F8
D8
CC
C6
C6
ENDCHAR
STARTCHAR 01EA
ENCODING 490
SWIDTH 630 0
DWIDTH 14 0
BBX 12 19 1 -4
BITMAP
0600
1F80
30C0
6060
6020
C030
C030
C030
C030
C030
C030
6060
6060
39C0
1F80
0400
0600
0600
0380
ENDCHAR
STARTCHAR 01EB
ENCODING 491
SWIDTH 450 0
DWIDTH 10 0
BBX 9 14 1 -4
BITMAP
3E00
7700
4300
C180
C180
C180
C180
4300
7700
3E00
0800
0800
0C00
0700
ENDCHAR
STARTCHAR 01EC
ENCODING 492
SWIDTH 630 0
DWIDTH 14 0
BBX 12 22 1 -4
BITMAP
1F80
1F80
0000
0600
1F80
30C0
6060
6020
C030
C030
C030
C030
C030
C030
6060
6060
39C0
1F80
0400
0600
0600
0380
ENDCHAR
STARTCHAR 01ED
ENCODING 493
SWIDTH 450 0
DWIDTH 10 0
BBX 9 17 1 -4
BITMAP
3E00
0000
0000
3E00
7700
4300
C180
C180
C180
C180
4300
7700
3E00
0800
0800
0C00
0700
ENDCHAR
STARTCHAR 01EE
ENCODING 494
SWIDTH 495 0
DWIDTH 11 0
BBX 10 19 1 0
BITMAP
2100
1200
1E00
0C00
0000
FFC0
00C0
0180
0300
0300
0600
0F80
0180
00C0
00C0
C0C0
4180
7380
3F00
ENDCHAR
STARTCHAR 01EF
ENCODING 495
SWIDTH 405 0
DWIDTH 9 0
BBX 8 19 1 -5
BITMAP
24
3C
18
00
FF
FF
06
0C
0C
1C
0E
06
03
03
03
02
46
7C
10
ENDCHAR
STARTCHAR 01F0
ENCODING 496
SWIDTH 135 0
DWIDTH 3 0
BBX 6 19 -2 -5
BITMAP
44
2C
18
00
18
18
18
18
18
18
18
18
18
18
18
18
18
F0
40
ENDCHAR
STARTCHAR 01F1
ENCODING 497
SWIDTH 1170 0
DWIDTH 26 0
BBX 24 14 1 0
BITMAP
FF83FF
21C003
206006
20600C
20300C
203018
203030
203030
203060
2030C0
206080
20E180
FFC3FF
FF03FF
ENDCHAR
STARTCHAR 01F2
ENCODING 498
SWIDTH 990 0
DWIDTH 22 0
BBX 21 14 1 0
BITMAP
FF8000
21C000
206000
206000
2033F8
2033F8
203030
203030
203060
2030C0
206080
20E180
FFC3F8
FF03F8
ENDCHAR
STARTCHAR 01F3
ENCODING 499
SWIDTH 855 0
DWIDTH 19 0
BBX 18 14 1 0
BITMAP
018000
018000
018000
018000
3F9FC0
779FC0
438180
C18300
C18300
C18600
C18C00
438C00
779FC0
3F9FC0
ENDCHAR
STARTCHAR 01F4
ENCODING 500
SWIDTH 585 0
DWIDTH 13 0
BBX 11 19 1 0
BITMAP
0300
0600
0400
0800
0600
1F80
30C0
6060
6000
C000
C000
C3E0
C3E0
C060
C060
6060
6060
39C0
1F80
ENDCHAR
STARTCHAR 01F5
ENCODING 501
SWIDTH 495 0
DWIDTH 11 0
BBX 10 19 1 -5
BITMAP
0C00
0800
1000
0000
3EC0
77C0
C180
C180
C180
6300
7E00
C000
7000
3F00
0180
C180
E300
7F00
1800
ENDCHAR
STARTCHAR 01F6
ENCODING 502
SWIDTH 810 0
DWIDTH 18 0
BBX 16 14 1 0
BITMAP
C080
C080
C080
C080
C081
C081
FF81
FF81
C081
C081
C081
C0C3
C066
C03C
ENDCHAR
STARTCHAR 01F7
ENCODING 503
SWIDTH 405 0
DWIDTH 9 0
BBX 8 19 1 -4
BITMAP
10
FE
E6
C3
C3
C3
C6
CC
D8
F0
E0
C0
C0
C0
C0
C0
C0
C0
C0
ENDCHAR
STARTCHAR 01F8
ENCODING 504
SWIDTH 585 0
DWIDTH 13 0
BBX 11 19 1 0
BITMAP
1800
0C00
0400
0200
0000
C020
E020
F020
F020
D820
CC20
C420
C620
C320
C1A0
C1A0
C0E0
C060
C060
ENDCHAR
STARTCHAR 01F9
ENCODING 505
SWIDTH 450 0
DWIDTH 10 0
BBX 9 14 1 0
BITMAP
3000
0800
0000
0000
DE00
F700
E100
C180
C180
C180
C180
C180
C180
C180
ENDCHAR
STARTCHAR 01FA
ENCODING 506
SWIDTH 630 0
DWIDTH 14 0
BBX 12 19 1 0
BITMAP
0300
0200
0400
0700
0900
0D00
0700
0F00
0D00
0980
1980
18C0
3FC0
3FC0
2060
6060
6020
4030
C030
ENDCHAR
STARTCHAR 01FB
ENCODING 507
SWIDTH 405 0
DWIDTH 9 0
BBX 7 18 1 0
BITMAP
0C
08
10
10
3C
24
38
00
3C
7E
06
06
3E
FE
C6
C6
EE
7E
ENDCHAR
STARTCHAR 01FC
ENCODING 508
SWIDTH 720 0
DWIDTH 16 0
BBX 14 19 1 0
BITMAP
0060
00C0
0080
0100
0000
07FC
0580
0D80
0D80
0980
1980
1FF8
3FF8
3180
2180
6180
6180
41FC
C1FC
ENDCHAR
STARTCHAR 01FD
ENCODING 509
SWIDTH 720 0
DWIDTH 16 0
BBX 14 14 1 0
BITMAP
0180
0300
0200
0000
3DF0
7FB8
0708
060C
3FFC
FE00
C600
C708
EFB8
7DF0
ENDCHAR
STARTCHAR 01FE
ENCODING 510
SWIDTH 630 0
DWIDTH 14 0
BBX 12 20 1 -1
BITMAP
0300
0200
0400
0000
0630
1FA0
30E0
60E0
61A0
C1B0
C330
C630
C630
CC30
D830
7060
7060
79C0
DF80
4000
ENDCHAR
STARTCHAR 01FF
ENCODING 511
SWIDTH 450 0
DWIDTH 10 0
BBX 9 15 1 -1
BITMAP
0C00
0800
1000
0180
3F80
7700
4700
CD80
CD80
D980
F180
7300
7700
FE00
C000
ENDCHAR
STARTCHAR 0200
ENCODING 512
SWIDTH 630 0
DWIDTH 14 0
BBX 12 19 1 0
BITMAP
6600
3200
1100
0800
0000
0600
0700
0F00
0D00
0980
1980
18C0
3FC0
3FC0
2060
6060
6020
4030
C030
ENDCHAR
STARTCHAR 0201
ENCODING 513
SWIDTH 405 0
DWIDTH 9 0
BBX 7 14 1 0
BITMAP
D8
48
24
00
3C
7E
06
06
3E
FE
C6
C6
EE
7E
ENDCHAR
STARTCHAR 0202
ENCODING 514
SWIDTH 630 0
DWIDTH 14 0
BBX 12 19 1 0
BITMAP
0600
0F80
1880
0000
0000
0600
0700
0F00
0D00
0980
1980
18C0
3FC0
3FC0
2060
6060
6020
4030
C030
ENDCHAR
STARTCHAR 0203
ENCODING 515
SWIDTH 405 0
DWIDTH 9 0
BBX 7 14 1 0
BITMAP
7C
44
C6
00
3C
7E
06
06
3E
FE
C6
C6
EE
7E
ENDCHAR
STARTCHAR 0204
ENCODING 516
SWIDTH 495 0
DWIDTH 11 0
BBX 9 19 1 0
BITMAP
D800
6C00
2600
1000
0000
FF80
C000
C000
C000
C000
C000
FF00
FF00
C000
C000
C000
C000
FF80
FF80
ENDCHAR
STARTCHAR 0205
ENCODING 517
SWIDTH 450 0
DWIDTH 10 0
BBX 9 14 1 0
BITMAP
6600
1200
0100
0000
3E00
7700
4300
C180
FF80
C000
C000
4300
7700
3E00
ENDCHAR
STARTCHAR 0206
ENCODING 518
SWIDTH 495 0
DWIDTH 11 0
BBX 9 19 1 0
BITMAP
0C00
3E00
2300
0000
0000
FF80
C000
C000
C000
C000
C000
FF00
FF00
C000
C000
C000
C000
FF80
FF80
ENDCHAR
STARTCHAR 0207
ENCODING 519
SWIDTH 450 0
DWIDTH 10 0
BBX 9 14 1 0
BITMAP
3E00
2200
6200
0000
3E00
7700
4300
C180
FF80
C000
C000
4300
7700
3E00
ENDCHAR
STARTCHAR 0208
ENCODING 520
SWIDTH 315 0
DWIDTH 7 0
BBX 7 19 -1 0
BITMAP
D8
6C
26
10
00
3E
08
08
08
08
08
08
08
08
08
08
08
3E
3E
ENDCHAR
STARTCHAR 0209
ENCODING 521
SWIDTH 135 0
DWIDTH 3 0
BBX 6 14 -2 0
BITMAP
D8
4C
24
00
18
18
18
18
18
18
18
18
18
18
ENDCHAR
STARTCHAR 020A
ENCODING 522
SWIDTH 315 0
DWIDTH 7 0
BBX 5 19 1 0
BITMAP
70
F8
88
00
00
F8
20
20
20
20
20
20
20
20
20
20
20
F8
F8
ENDCHAR
STARTCHAR 020B
ENCODING 523
SWIDTH 135 0
DWIDTH 3 0
BBX 6 14 -1 0
BITMAP
78
CC
84
00
30
30
30
30
30
30
30
30
30
30
ENDCHAR
STARTCHAR 020C
ENCODING 524
SWIDTH 630 0
DWIDTH 14 0
BBX 12 19 1 0
BITMAP
6600
3200
1100
0800
0600
1F80
30C0
6060
6020
C030
C030
C030
C030
C030
C030
6060
6060
39C0
1F80
ENDCHAR
STARTCHAR 020D
ENCODING 525
SWIDTH 450 0
DWIDTH 10 0
BBX 9 14 1 0
BITMAP
6C00
2400
1200
0000
3E00
7700
4300
C180
C180
C180
C180
4300
7700
3E00
ENDCHAR
STARTCHAR 020E
ENCODING 526
SWIDTH 630 0
DWIDTH 14 0
BBX 12 19 1 0
BITMAP
0600
0F00
1080
0000
0600
1F80
30C0
6060
6020
C030
C030
C030
C030
C030
C030
6060
6060
39C0
1F80
ENDCHAR
STARTCHAR 020F
ENCODING 527
SWIDTH 450 0
DWIDTH 10 0
BBX 9 14 1 0
BITMAP
3E00
2200
6200
0000
3E00
7700
4300
C180
C180
C180
C180
4300
7700
3E00
ENDCHAR
STARTCHAR 0210
ENCODING 528
SWIDTH 495 0
DWIDTH 11 0
BBX 10 19 1 0
BITMAP
D800
4800
2400
0000
0000
FE00
C700
C100
C180
C180
C300
FF00
FC00
C600
C600
C300
C100
C180
C0C0
ENDCHAR
STARTCHAR 0211
ENCODING 529
SWIDTH 315 0
DWIDTH 7 0
BBX 6 14 0 0
BITMAP
D8
48
24
00
7C
78
70
60
60
60
60
60
60
60
ENDCHAR
STARTCHAR 0212
ENCODING 530
SWIDTH 495 0
DWIDTH 11 0
BBX 10 19 1 0
BITMAP
1800
7C00
4600
0000
0000
FE00
C700
C100
C180
C180
C300
FF00
FC00
C600
C600
C300
C100
C180
C0C0
ENDCHAR
STARTCHAR 0213
ENCODING 531
SWIDTH 315 0
DWIDTH 7 0
BBX 6 14 1 0
BITMAP
78
8C
84
00
F8
F0
E0
C0
C0
C0
C0
C0
C0
C0
ENDCHAR
STARTCHAR 0214
ENCODING 532
SWIDTH 585 0
DWIDTH 13 0
BBX 11 19 1 0
BITMAP
6600
3200
1100
0800
0000
C060
C060
C060
C060
C060
C060
C060
C060
C060
C060
C060
60C0
3B80
1F00
ENDCHAR
STARTCHAR 0215
ENCODING 533
SWIDTH 450 0
DWIDTH 10 0
BBX 9 14 1 0
BITMAP
6C00
2400
1200
0000
C180
C180
C180
C180
C180
C180
C180
C380
6780
3D80
ENDCHAR
STARTCHAR 0216
ENCODING 534
SWIDTH 585 0
DWIDTH 13 0
BBX 11 19 1 0
BITMAP
0E00
1F00
1100
0000
0000
C060
C060
C060
C060
C060
C060
C060
C060
C060
C060
C060
60C0
3B80
1F00
ENDCHAR
STARTCHAR 0217
ENCODING 535
SWIDTH 450 0
DWIDTH 10 0
BBX 9 14 1 0
BITMAP
3E00
2200
6200
0000
C180
C180
C180
C180
C180
C180
C180
C380
6780
3D80
ENDCHAR
STARTCHAR 0218
ENCODING 536
SWIDTH 450 0
DWIDTH 10 0
BBX 9 22 1 -7
BITMAP
0800
3E00
6300
4300
4000
6000
7000
1C00
0700
0300
0180
C180
C180
7700
3E00
0000
1800
1C00
0400
0400
0800
1000
ENDCHAR
STARTCHAR 0219
ENCODING 537
SWIDTH 360 0
DWIDTH 8 0
BBX 7 17 1 -7
BITMAP
78
6C
C4
60
38
0C
06
C6
EC
78
00
30
38
08
08
10
20
ENDCHAR
STARTCHAR 021A
ENCODING 538
SWIDTH 495 0
DWIDTH 11 0
BBX 9 21 1 -7
BITMAP
FF80
0800
0800
0800
0800
0800
0800
0800
0800
0800
0800
0800
0800
0800
0000
0800
1C00
0400
0400
0800
1000
ENDCHAR
STARTCHAR 021B
ENCODING 539
SWIDTH 315 0
DWIDTH 7 0
BBX 6 20 1 -7
BITMAP
10
30
30
FC
FC
30
30
30
30
30
30
38
38
00
30
70
10
10
10
60
ENDCHAR
STARTCHAR 021C
ENCODING 540
SWIDTH 450 0
DWIDTH 10 0
BBX 9 15 1 0
BITMAP
0800
7E00
E300
4180
0180
0100
0300
0F00
7F00
4180
0180
0100
0700
1E00
7800
ENDCHAR
STARTCHAR 021D
ENCODING 541
SWIDTH 450 0
DWIDTH 10 0
BBX 9 15 1 -5
BITMAP
3E00
F700
4100
0180
0180
0300
0700
7F00
7180
0180
0100
0300
0E00
7C00
4000
ENDCHAR
STARTCHAR 021E
ENCODING 542
SWIDTH 495 0
DWIDTH 11 0
BBX 9 19 1 0
BITMAP
2000
1200
1C00
0C00
0000
C080
C080
C080
C080
C080
C080
FF80
FF80
C080
C080
C080
C080
C080
C080
ENDCHAR
STARTCHAR 021F
ENCODING 543
SWIDTH 450 0
DWIDTH 10 0
BBX 9 18 1 1
BITMAP
2600
1C00
1C00
0000
C000
C000
C000
C000
DE00
F700
E100
C180
C180
C180
C180
C180
C180
C180
ENDCHAR
STARTCHAR 0220
ENCODING 544
SWIDTH 585 0
DWIDTH 13 0
BBX 11 19 1 -4
BITMAP
0400
FF80
F1C0
E0C0
C060
C060
C060
C060
C060
C060
C060
C060
C060
C060
C060
0060
0060
0060
0060
ENDCHAR
STARTCHAR 0221
ENCODING 545
SWIDTH 675 0
DWIDTH 15 0
BBX 13 18 1 -4
BITMAP
0180
0180
0180
0180
3F80
7780
4380
C180
C180
C188
C198
43A8
77A8
3EF0
0020
0020
0120
01C0
ENDCHAR
STARTCHAR 0222
ENCODING 546
SWIDTH 450 0
DWIDTH 10 0
BBX 9 14 1 0
BITMAP
C180
C180
4100
6300
3E00
7700
4300
C180
C180
C180
C180
4300
7700
3E00
ENDCHAR
STARTCHAR 0223
ENCODING 547
SWIDTH 405 0
DWIDTH 9 0
BBX 8 14 1 0
BITMAP
C3
C3
C3
C2
66
3C
7E
C6
C3
C3
C3
C2
6E
3C
ENDCHAR
STARTCHAR 0224
ENCODING 548
SWIDTH 495 0
DWIDTH 11 0
BBX 10 19 1 -5
BITMAP
FFC0
00C0
0180
0300
0300
0600
0C00
0800
1800
3000
6000
6000
FFC0
FFC0
00C0
00C0
00C0
0780
0200
ENDCHAR
STARTCHAR 0225
ENCODING 549
SWIDTH 360 0
DWIDTH 8 0
BBX 7 15 1 -5
BITMAP
FE
FE
0C
18
18
30
60
60
FE
FE
06
06
06
3C
10
ENDCHAR
STARTCHAR 0226
ENCODING 550
SWIDTH 630 0
DWIDTH 14 0
BBX 12 18 1 0
BITMAP
0600
0600
0000
0000
0600
0700
0F00
0D00
0980
1980
18C0
3FC0
3FC0
2060
6060
6020
4030
C030
ENDCHAR
STARTCHAR 0227
ENCODING 551
SWIDTH 405 0
DWIDTH 9 0
BBX 7 14 1 0
BITMAP
10
38
10
00
3C
7E
06
06
3E
FE
C6
C6
EE
7E
ENDCHAR
STARTCHAR 0228
ENCODING 552
SWIDTH 495 0
DWIDTH 11 0
BBX 9 19 1 -5
BITMAP
FF80
C000
C000
C000
C000
C000
FF00
FF00
C000
C000
C000
C000
FF80
FF80
0800
0E00
0200
1E00
0800
ENDCHAR
STARTCHAR 0229
ENCODING 553
SWIDTH 450 0
DWIDTH 10 0
BBX 9 15 1 -5
BITMAP
3E00
7700
4300
C180
FF80
C000
C000
4300
7700
3E00
0800
1C00
0200
1C00
1800
ENDCHAR
STARTCHAR 022A
ENCODING 554
SWIDTH 630 0
DWIDTH 14 0
BBX 12 19 1 0
BITMAP
1F80
1F80
1980
1980
0F00
1F80
30C0
6060
6020
C030
C030
C030
C030
C030
C030
6060
6060
39C0
1F80
ENDCHAR
STARTCHAR 022B
ENCODING 555
SWIDTH 450 0
DWIDTH 10 0
BBX 9 17 1 0
BITMAP
3E00
3E00
0000
2600
7600
0000
0000
3E00
7700
4300
C180
C180
C180
C180
4300
7700
3E00
ENDCHAR
STARTCHAR 022C
ENCODING 556
SWIDTH 630 0
DWIDTH 14 0
BBX 12 19 1 0
BITMAP
1F80
1F80
1C40
2380
0600
1F80
30C0
6060
6020
C030
C030
C030
C030
C030
C030
6060
6060
39C0
1F80
ENDCHAR
STARTCHAR 022D
ENCODING 557
SWIDTH 450 0
DWIDTH 10 0
BBX 9 17 1 0
BITMAP
3E00
3E00
0000
7100
4F00
4200
0000
3E00
7700
4300
C180
C180
C180
C180
4300
7700
3E00
ENDCHAR
STARTCHAR 022E
ENCODING 558
SWIDTH 630 0
DWIDTH 14 0
BBX 12 18 1 0
BITMAP
0600
0600
0000
0600
1F80
30C0
6060
6020
C030
C030
C030
C030
C030
C030
6060
6060
39C0
1F80
ENDCHAR
STARTCHAR 022F
ENCODING 559
SWIDTH 450 0
DWIDTH 10 0
BBX 9 14 1 0
BITMAP
0800
1C00
0000
0000
3E00
7700
4300
C180
C180
C180
C180
4300
7700
3E00
ENDCHAR
STARTCHAR 0230
ENCODING 560
SWIDTH 630 0
DWIDTH 14 0
BBX 12 19 1 0
BITMAP
1F80
1F80
0600
0600
0600
1F80
30C0
6060
6020
C030
C030
C030
C030
C030
C030
6060
6060
39C0
1F80
ENDCHAR
STARTCHAR 0231
ENCODING 561
SWIDTH 450 0
DWIDTH 10 0
BBX 9 17 1 0
BITMAP
3E00
3E00
0000
0800
1C00
0000
0000
3E00
7700
4300
C180
C180
C180
C180
4300
7700
3E00
ENDCHAR
STARTCHAR 0232
ENCODING 562
SWIDTH 630 0
DWIDTH 14 0
BBX 11 18 2 0
BITMAP
3F00
3F00
0000
0000
C060
C0C0
6180
3300
3300
1E00
0C00
0C00
0C00
0C00
0C00
0C00
0C00
0C00
ENDCHAR
STARTCHAR 0233
ENCODING 563
SWIDTH 495 0
DWIDTH 11 0
BBX 9 18 1 -5
BITMAP
3E00
0000
0000
C180
4180
6300
6300
2200
3600
3600
1C00
1C00
0C00
0800
1800
1800
7000
4000
ENDCHAR
STARTCHAR 0234
ENCODING 564
SWIDTH 360 0
DWIDTH 8 0
BBX 6 18 1 -4
BITMAP
C0
C0
C0
C0
C0
C0
C0
C0
C0
C4
CC
D4
D4
78
10
10
90
E0
ENDCHAR
STARTCHAR 0235
ENCODING 565
SWIDTH 675 0
DWIDTH 15 0
BBX 13 14 1 -4
BITMAP
DE00
F700
E100
C180
C180
C188
C198
C1A8
C1A8
C0F0
0020
0020
0120
01C0
ENDCHAR
STARTCHAR 0236
ENCODING 566
SWIDTH 450 0
DWIDTH 10 0
BBX 8 16 1 -4
BITMAP
30
30
FC
FC
30
30
30
31
33
35
35
1E
04
04
24
78
ENDCHAR
STARTCHAR 0237
ENCODING 567
SWIDTH 135 0
DWIDTH 3 0
BBX 5 15 -2 -5
BITMAP
18
18
18
18
18
18
18
18
18
18
18
18
18
F0
40
ENDCHAR
STARTCHAR 0238
ENCODING 568
SWIDTH 765 0
DWIDTH 17 0
BBX 16 14 1 0
BITMAP
0180
0180
0180
0180
3FFC
77EE
43C6
C183
C183
C183
C183
43C6
77EE
3FFC
ENDCHAR
STARTCHAR 0239
ENCODING 569
SWIDTH 765 0
DWIDTH 17 0
BBX 16 15 1 -5
BITMAP
3FFC
77EE
43C6
C183
C183
C183
C183
43C6
77EE
3FFC
0180
0180
0180
0180
0080
ENDCHAR
STARTCHAR 023A
ENCODING 570
SWIDTH 630 0
DWIDTH 14 0
BBX 12 16 1 -1
BITMAP
0030
0630
0760
0FC0
0D80
0980
1B80
1EC0
3FC0
3FC0
3860
7860
7020
6030
C030
4000
ENDCHAR
STARTCHAR 023B
ENCODING 571
SWIDTH 585 0
DWIDTH 13 0
BBX 12 16 1 -1
BITMAP
0630
1FE0
30E0
60E0
4180
C180
C300
C600
C600
CC00
D800
7040
7060
79C0
DF80
4000
ENDCHAR
STARTCHAR 023C
ENCODING 572
SWIDTH 450 0
DWIDTH 10 0
BBX 9 12 1 -1
BITMAP
0180
3F80
7700
4700
CC00
CC00
D800
F000
7300
7700
FE00
C000
ENDCHAR
STARTCHAR 023D
ENCODING 573
SWIDTH 540 0
DWIDTH 12 0
BBX 11 14 1 0
BITMAP
2000
2000
2000
2000
2000
2000
FC00
FC00
2000
2000
2000
2000
3FE0
3FE0
ENDCHAR
STARTCHAR 023E
ENCODING 574
SWIDTH 495 0
DWIDTH 11 0
BBX 11 16 0 -1
BITMAP
0020
7FE0
04C0
04C0
0580
0700
0700
0600
0C00
1C00
1C00
3400
6400
6400
C400
8000
ENDCHAR
STARTCHAR 023F
ENCODING 575
SWIDTH 360 0
DWIDTH 8 0
BBX 11 15 1 -5
BITMAP
7800
7C00
C400
6000
7800
0C00
0600
C600
EC00
7800
0C00
0600
0600
0360
01C0
ENDCHAR
STARTCHAR 0240
ENCODING 576
SWIDTH 360 0
DWIDTH 8 0
BBX 10 15 1 -5
BITMAP
FE00
FE00
0C00
1800
1800
3000
6000
6000
E000
F800
0C00
0C00
0600
07C0
0380
ENDCHAR
STARTCHAR 0241
ENCODING 577
SWIDTH 450 0
DWIDTH 10 0
BBX 9 15 1 0
BITMAP
0800
3E00
6300
C100
C180
C180
0180
0180
0300
0E00
0C00
0800
0800
0800
0800
ENDCHAR
STARTCHAR 0242
ENCODING 578
SWIDTH 360 0
DWIDTH 8 0
BBX 6 10 1 0
BITMAP
78
FC
CC
0C
0C
18
10
30
30
30
ENDCHAR
STARTCHAR 0243
ENCODING 579
SWIDTH 540 0
DWIDTH 12 0
BBX 11 14 1 0
BITMAP
3F80
21C0
20C0
2040
20C0
21C0
3F80
20C0
2060
FC60
FC60
2040
3FC0
3F80
ENDCHAR
STARTCHAR 0244
ENCODING 580
SWIDTH 675 0
DWIDTH 15 0
BBX 13 14 1 0
BITMAP
6030
6030
6030
6030
6030
6030
FFF8
FFF8
6030
6030
6030
3060
1DE0
0F80
ENDCHAR
STARTCHAR 0245
ENCODING 581
SWIDTH 630 0
DWIDTH 14 0
BBX 12 14 1 0
BITMAP
0600
0700
0F00
0D00
0980
1980
18C0
30C0
3040
2060
6060
6020
4030
C030
ENDCHAR
STARTCHAR 0246
ENCODING 582
SWIDTH 495 0
DWIDTH 11 0
BBX 11 16 0 -1
BITMAP
0020
7FE0
60C0
60C0
6180
6300
6300
7F80
7F80
7800
7800
7000
6000
7FC0
FFC0
8000
ENDCHAR
STARTCHAR 0247
ENCODING 583
SWIDTH 450 0
DWIDTH 10 0
BBX 9 12 1 -1
BITMAP
0180
3F80
7700
4700
CD80
FF80
D800
F000
7300
7700
FE00
C000
ENDCHAR
STARTCHAR 0248
ENCODING 584
SWIDTH 405 0
DWIDTH 9 0
BBX 8 14 1 0
BITMAP
04
04
04
04
04
04
3F
3F
04
04
04
CC
EC
78
ENDCHAR
STARTCHAR 0249
ENCODING 585
SWIDTH 315 0
DWIDTH 7 0
BBX 7 19 0 -5
BITMAP
18
18
00
00
18
18
18
18
7E
7E
18
18
18
18
18
18
18
F0
40
ENDCHAR
STARTCHAR 024A
ENCODING 586
SWIDTH 630 0
DWIDTH 14 0
BBX 15 20 1 -5
BITMAP
0600
1FB0
30F0
6070
6030
C030
C030
C030
C030
C030
C030
6070
6070
39F0
1FB0
0030
0030
0010
001E
0004
ENDCHAR
STARTCHAR 024B
ENCODING 587
SWIDTH 450 0
DWIDTH 10 0
BBX 12 15 1 -5
BITMAP
3F80
7780
4380
C180
C180
C180
C180
4380
7780
3F80
0180
0180
0180
00F0
0020
ENDCHAR
STARTCHAR 024C
ENCODING 588
SWIDTH 585 0
DWIDTH 13 0
BBX 11 14 1 0
BITMAP
3F80
21C0
20C0
2040
2040
20C0
FF80
FF00
2300
2180
2080
20C0
2060
2060
ENDCHAR
STARTCHAR 024D
ENCODING 589
SWIDTH 405 0
DWIDTH 9 0
BBX 7 10 1 0
BITMAP
2E
3C
30
30
FC
FC
20
20
20
20
ENDCHAR
STARTCHAR 024E
ENCODING 590
SWIDTH 630 0
DWIDTH 14 0
BBX 12 14 1 0
BITMAP
6030
6060
FFF0
1980
1980
0F00
0600
0600
0600
0600
0600
0600
0600
0600
ENDCHAR
STARTCHAR 024F
ENCODING 591
SWIDTH 495 0
DWIDTH 11 0
BBX 9 15 1 -5
BITMAP
C180
4180
6300
6300
FF80
FF80
3600
1C00
1C00
0C00
0800
1800
1800
7000
4000
ENDCHAR
STARTCHAR 0250
ENCODING 592
SWIDTH 405 0
DWIDTH 9 0
BBX 7 10 1 0
BITMAP
FC
EE
C6
C6
FE
FC
C0
C0
FC
78
ENDCHAR
STARTCHAR 0251
ENCODING 593
SWIDTH 450 0
DWIDTH 10 0
BBX 9 10 1 0
BITMAP
3F80
7780
4380
C180
C180
C180
C180
4380
7780
3F80
ENDCHAR
STARTCHAR 0252
ENCODING 594
SWIDTH 450 0
DWIDTH 10 0
BBX 9 10 1 0
BITMAP
FE00
F700
C300
C180
C180
C180
C180
C300
F700
FE00
ENDCHAR
STARTCHAR 0253
ENCODING 595
SWIDTH 450 0
DWIDTH 10 0
BBX 9 15 1 0
BITMAP
1000
7800
C000
C000
C000
FE00
F700
C300
C180
C180
C180
C180
C300
F700
FE00
ENDCHAR
STARTCHAR 0254
ENCODING 596
SWIDTH 450 0
DWIDTH 10 0
BBX 8 10 1 0
BITMAP
3C
6E
C3
03
01
01
03
C3
66
3C
ENDCHAR
STARTCHAR 0255
ENCODING 597
SWIDTH 450 0
DWIDTH 10 0
BBX 8 15 1 -5
BITMAP
3E
77
43
C0
C0
C0
C3
45
75
3E
04
04
24
28
10
ENDCHAR
STARTCHAR 0256
ENCODING 598
SWIDTH 450 0
DWIDTH 10 0
BBX 12 19 1 -5
BITMAP
0180
0180
0180
0180
3F80
7780
4380
C180
C180
C180
C180
4380
7780
3F80
0180
0180
0180
00F0
0020
ENDCHAR
STARTCHAR 0257
ENCODING 599
SWIDTH 450 0
DWIDTH 10 0
BBX 12 15 1 0
BITMAP
0020
00F0
0180
0180
0180
3F80
7780
4380
C180
C180
C180
C180
4380
7780
3F80
ENDCHAR
STARTCHAR 0258
ENCODING 600
SWIDTH 450 0
DWIDTH 10 0
BBX 9 10 1 0
BITMAP
3E00
7700
4300
C180
FF80
0180
0180
4300
7700
3E00
ENDCHAR
STARTCHAR 0259
ENCODING 601
SWIDTH 450 0
DWIDTH 10 0
BBX 9 10 1 0
BITMAP
3E00
7700
4300
0180
0180
FF80
C180
4300
7700
3E00
ENDCHAR
STARTCHAR 025A
ENCODING 602
SWIDTH 675 0
DWIDTH 15 0
BBX 13 10 1 0
BITMAP
3E00
7700
4300
0188
01C8
FFE8
C1B8
4300
7700
3E00
ENDCHAR
STARTCHAR 025B
ENCODING 603
SWIDTH 360 0
DWIDTH 8 0
BBX 7 10 1 0
BITMAP
78
6C
4C
60
70
E0
C0
C6
EC
78
ENDCHAR
STARTCHAR 025C
ENCODING 604
SWIDTH 360 0
DWIDTH 8 0
BBX 7 10 1 0
BITMAP
78
6C
4C
0C
18
0C
06
C6
EC
78
ENDCHAR
STARTCHAR 025D
ENCODING 605
SWIDTH 540 0
DWIDTH 12 0
BBX 11 10 1 0
BITMAP
7800
6C60
4F20
0D40
19C0
0C00
0600
C600
EC00
7800
ENDCHAR
STARTCHAR 025E
ENCODING 606
SWIDTH 405 0
DWIDTH 9 0
BBX 8 10 1 0
BITMAP
3C
76
42
C6
CE
C6
C3
43
76
3C
ENDCHAR
STARTCHAR 025F
ENCODING 607
SWIDTH 315 0
DWIDTH 7 0
BBX 7 15 0 -5
BITMAP
18
18
18
18
18
18
18
7E
7E
18
18
18
10
F0
40
ENDCHAR
STARTCHAR 0260
ENCODING 608
SWIDTH 450 0
DWIDTH 10 0
BBX 12 19 1 -5
BITMAP
00F0
0180
0180
0180
3F80
7780
4380
C180
C180
C180
C180
4380
7780
3F80
0180
0180
6300
7F00
0800
ENDCHAR
STARTCHAR 0261
ENCODING 609
SWIDTH 450 0
DWIDTH 10 0
BBX 9 15 1 -5
BITMAP
3F80
7780
4380
C180
C180
C180
C180
4380
7780
3F80
0180
0180
6300
7F00
0800
ENDCHAR
STARTCHAR 0262
ENCODING 610
SWIDTH 450 0
DWIDTH 10 0
BBX 8 10 1 0
BITMAP
3E
77
43
C0
C0
CF
C1
43
77
3E
ENDCHAR
STARTCHAR 0263
ENCODING 611
SWIDTH 495 0
DWIDTH 11 0
BBX 9 15 1 -5
BITMAP
C180
4180
6300
6300
2200
3600
3600
1C00
1C00
0C00
1C00
1C00
1600
1C00
0800
ENDCHAR
STARTCHAR 0264
ENCODING 612
SWIDTH 630 0
DWIDTH 14 0
BBX 12 10 1 0
BITMAP
78E0
D9B0
0F00
0F00
0600
0600
0700
0F00
0F00
0700
ENDCHAR
STARTCHAR 0265
ENCODING 613
SWIDTH 450 0
DWIDTH 10 0
BBX 9 15 1 -5
BITMAP
C180
C180
C180
C180
C180
C180
C180
C380
6780
3D80
0180
0180
0180
0180
0080
ENDCHAR
STARTCHAR 0266
ENCODING 614
SWIDTH 450 0
DWIDTH 10 0
BBX 9 15 1 0
BITMAP
1000
7800
C000
C000
C000
DE00
F700
E100
C180
C180
C180
C180
C180
C180
C180
ENDCHAR
STARTCHAR 0267
ENCODING 615
SWIDTH 450 0
DWIDTH 10 0
BBX 9 20 1 -5
BITMAP
1000
7800
C000
C000
C000
DE00
F700
E100
C180
C180
C180
C180
C180
C180
C180
0180
0180
0180
0F00
0400
ENDCHAR
STARTCHAR 0268
ENCODING 616
SWIDTH 315 0
DWIDTH 7 0
BBX 5 14 1 0
BITMAP
20
70
00
00
20
20
20
20
F8
F8
20
20
20
20
ENDCHAR
STARTCHAR 0269
ENCODING 617
SWIDTH 225 0
DWIDTH 5 0
BBX 3 10 1 0
BITMAP
C0
C0
C0
C0
C0
C0
C0
C0
E0
E0
ENDCHAR
STARTCHAR 026A
ENCODING 618
SWIDTH 315 0
DWIDTH 7 0
BBX 5 10 1 0
BITMAP
F8
F8
20
20
20
20
20
20
F8
F8
ENDCHAR
STARTCHAR 026B
ENCODING 619
SWIDTH 405 0
DWIDTH 9 0
BBX 8 14 1 0
BITMAP
18
18
18
18
18
18
F9
9E
18
18
18
18
1C
1C
ENDCHAR
STARTCHAR 026C
ENCODING 620
SWIDTH 405 0
DWIDTH 9 0
BBX 8 14 1 0
BITMAP
18
18
18
78
D8
DB
DA
7E
3C
18
18
18
1E
0E
ENDCHAR
STARTCHAR 026D
ENCODING 621
SWIDTH 135 0
DWIDTH 3 0
BBX 5 19 1 -5
BITMAP
C0
C0
C0
C0
C0
C0
C0
C0
C0
C0
C0
C0
C0
C0
C0
C0
C0
78
30
ENDCHAR
STARTCHAR 026E
ENCODING 622
SWIDTH 450 0
DWIDTH 10 0
BBX 9 19 1 -5
BITMAP
C000
C000
C000
C000
FF80
FF80
C300
C600
C600
CE00
C700
C300
C180
C180
0180
0100
2300
3E00
0800
ENDCHAR
STARTCHAR 026F
ENCODING 623
SWIDTH 585 0
DWIDTH 13 0
BBX 11 10 1 0
BITMAP
C620
C620
C620
C620
C620
C620
C620
CE60
7EE0
7BE0
ENDCHAR
STARTCHAR 0270
ENCODING 624
SWIDTH 585 0
DWIDTH 13 0
BBX 11 14 1 -5
BITMAP
C620
C620
C620
C620
C620
C620
C620
CE60
7EE0
7BE0
0020
0020
0020
0020
ENDCHAR
STARTCHAR 0271
ENCODING 625
SWIDTH 585 0
DWIDTH 13 0
BBX 11 15 1 -5
BITMAP
F9C0
EF60
C620
C620
C620
C620
C620
C620
C620
C620
0020
0020
0060
01E0
0080
ENDCHAR
STARTCHAR 0272
ENCODING 626
SWIDTH 450 0
DWIDTH 10 0
BBX 12 15 -2 -5
BITMAP
1BC0
1EE0
1C20
1830
1830
1830
1830
1830
1830
1830
1800
1800
1800
F000
4000
ENDCHAR
STARTCHAR 0273
ENCODING 627
SWIDTH 450 0
DWIDTH 10 0
BBX 12 15 1 -5
BITMAP
DE00
F700
E100
C180
C180
C180
C180
C180
C180
C180
0180
0180
0180
00F0
0020
ENDCHAR
STARTCHAR 0274
ENCODING 628
SWIDTH 450 0
DWIDTH 10 0
BBX 8 10 1 0
BITMAP
C1
E1
E1
F1
D9
CD
CD
C7
C3
C3
ENDCHAR
STARTCHAR 0275
ENCODING 629
SWIDTH 450 0
DWIDTH 10 0
BBX 9 10 1 0
BITMAP
3E00
7700
4300
C180
FF80
FF80
C180
4300
7700
3E00
ENDCHAR
STARTCHAR 0276
ENCODING 630
SWIDTH 720 0
DWIDTH 16 0
BBX 14 10 1 0
BITMAP
3FFC
77FC
4380
C180
C1F8
C1F8
C180
4380
77FC
3FFC
ENDCHAR
STARTCHAR 0277
ENCODING 631
SWIDTH 585 0
DWIDTH 13 0
BBX 11 10 1 0
BITMAP
3FC0
7FE0
C060
C020
C020
C620
C620
C660
6F60
39C0
ENDCHAR
STARTCHAR 0278
ENCODING 632
SWIDTH 450 0
DWIDTH 10 0
BBX 9 18 1 -5
BITMAP
0800
0800
0800
0800
3E00
7F00
4B00
C980
C980
C980
C980
4B00
7F00
3E00
0800
0800
0800
0800
ENDCHAR
STARTCHAR 0279
ENCODING 633
SWIDTH 315 0
DWIDTH 7 0
BBX 6 10 1 0
BITMAP
0C
0C
0C
0C
0C
0C
0C
1C
3C
EC
ENDCHAR
STARTCHAR 027A
ENCODING 634
SWIDTH 315 0
DWIDTH 7 0
BBX 6 14 1 0
BITMAP
0C
0C
0C
0C
0C
0C
0C
0C
0C
0C
0C
1C
3C
EC
ENDCHAR
STARTCHAR 027B
ENCODING 635
SWIDTH 315 0
DWIDTH 7 0
BBX 9 15 1 -5
BITMAP
0C00
0C00
0C00
0C00
0C00
0C00
0C00
1C00
3C00
EC00
0C00
0C00
0C00
0780
0300
ENDCHAR
STARTCHAR 027C
ENCODING 636
SWIDTH 315 0
DWIDTH 7 0
BBX 5 15 1 -5
BITMAP
F8
F0
E0
C0
C0
C0
C0
C0
C0
C0
C0
C0
C0
C0
40
ENDCHAR
STARTCHAR 027D
ENCODING 637
SWIDTH 315 0
DWIDTH 7 0
BBX 5 15 1 -5
BITMAP
F8
F0
E0
C0
C0
C0
C0
C0
C0
C0
C0
C0
C0
78
30
ENDCHAR
STARTCHAR 027E
ENCODING 638
SWIDTH 315 0
DWIDTH 7 0
BBX 5 10 1 0
BITMAP
78
E0
C0
C0
C0
C0
C0
C0
C0
C0
ENDCHAR
STARTCHAR 027F
ENCODING 639
SWIDTH 315 0
DWIDTH 7 0
BBX 5 14 1 -5
BITMAP
F0
58
18
18
18
18
18
18
18
18
18
18
18
18
ENDCHAR
STARTCHAR 0280
ENCODING 640
SWIDTH 405 0
DWIDTH 9 0
BBX 7 10 1 0
BITMAP
F8
FC
CC
CC
FC
F8
D8
CC
CC
C6
ENDCHAR
STARTCHAR 0281
ENCODING 641
SWIDTH 405 0
DWIDTH 9 0
BBX 7 10 1 0
BITMAP
C6
CC
CC
D8
F8
FC
CC
CC
FC
F8
ENDCHAR
STARTCHAR 0282
ENCODING 642
SWIDTH 360 0
DWIDTH 8 0
BBX 7 15 1 -5
BITMAP
78
7C
C4
60
78
0C
06
C6
EC
F8
C0
C0
C0
78
30
ENDCHAR
STARTCHAR 0283
ENCODING 643
SWIDTH 135 0
DWIDTH 3 0
BBX 8 20 -2 -5
BITMAP
02
0F
18
18
18
18
18
18
18
18
18
18
18
18
18
18
18
18
F0
40
ENDCHAR
STARTCHAR 0284
ENCODING 644
SWIDTH 135 0
DWIDTH 3 0
BBX 8 20 -2 -5
BITMAP
02
0F
18
18
18
18
18
18
18
18
18
18
18
7E
7E
18
18
18
F0
40
ENDCHAR
STARTCHAR 0285
ENCODING 645
SWIDTH 315 0
DWIDTH 7 0
BBX 8 15 1 -5
BITMAP
F0
58
18
18
18
18
18
18
18
18
18
18
0C
0F
02
ENDCHAR
STARTCHAR 0286
ENCODING 646
SWIDTH 450 0
DWIDTH 10 0
BBX 8 19 1 -4
BITMAP
0F
18
18
18
18
18
18
18
18
18
18
18
38
FC
DE
9E
90
F0
60
ENDCHAR
STARTCHAR 0287
ENCODING 647
SWIDTH 315 0
DWIDTH 7 0
BBX 6 12 1 -3
BITMAP
E0
F0
30
30
30
30
30
30
FC
FC
30
30
ENDCHAR
STARTCHAR 0288
ENCODING 648
SWIDTH 315 0
DWIDTH 7 0
BBX 7 17 1 -5
BITMAP
30
30
FC
FC
30
30
30
30
30
30
30
30
30
30
30
1E
0C
ENDCHAR
STARTCHAR 0289
ENCODING 649
SWIDTH 630 0
DWIDTH 14 0
BBX 12 10 1 0
BITMAP
2040
2040
2040
2040
FFF0
FFF0
30C0
30C0
1BC0
1F40
ENDCHAR
STARTCHAR 028A
ENCODING 650
SWIDTH 450 0
DWIDTH 10 0
BBX 9 10 1 0
BITMAP
E780
E780
4300
C180
C180
C180
C180
4300
7700
3E00
ENDCHAR
STARTCHAR 028B
ENCODING 651
SWIDTH 405 0
DWIDTH 9 0
BBX 8 10 1 0
BITMAP
CE
47
63
63
22
36
36
1C
1C
0C
ENDCHAR
STARTCHAR 028C
ENCODING 652
SWIDTH 495 0
DWIDTH 11 0
BBX 9 10 1 0
BITMAP
0C00
1C00
1C00
3600
3600
2200
6300
6300
4180
C180
ENDCHAR
STARTCHAR 028D
ENCODING 653
SWIDTH 630 0
DWIDTH 14 0
BBX 12 10 1 0
BITMAP
18C0
38C0
39C0
39E0
2DE0
6D20
6730
4730
C730
C610
ENDCHAR
STARTCHAR 028E
ENCODING 654
SWIDTH 495 0
DWIDTH 11 0
BBX 9 15 1 0
BITMAP
0100
0700
0600
0C00
0C00
0C00
1C00
1C00
3600
3600
2200
6300
6300
4180
C180
ENDCHAR
STARTCHAR 028F
ENCODING 655
SWIDTH 495 0
DWIDTH 11 0
BBX 9 10 1 0
BITMAP
C180
6300
3600
1E00
1C00
0800
0800
0800
0800
0800
ENDCHAR
STARTCHAR 0290
ENCODING 656
SWIDTH 360 0
DWIDTH 8 0
BBX 10 15 1 -5
BITMAP
FE00
FE00
0C00
1800
1800
3000
6000
6000
FE00
FE00
0600
0600
0600
03C0
0080
ENDCHAR
STARTCHAR 0291
ENCODING 657
SWIDTH 405 0
DWIDTH 9 0
BBX 8 14 1 -4
BITMAP
FE
FE
0C
18
18
31
67
66
FE
FC
08
08
48
70
ENDCHAR
STARTCHAR 0292
ENCODING 658
SWIDTH 405 0
DWIDTH 9 0
BBX 8 15 1 -5
BITMAP
FF
FF
06
0C
0C
1C
0E
06
03
03
03
02
46
7C
10
ENDCHAR
STARTCHAR 0293
ENCODING 659
SWIDTH 405 0
DWIDTH 9 0
BBX 9 19 0 -9
BITMAP
7F80
7F80
0300
0600
0600
0E00
0700
0300
0180
0180
C180
A100
6300
3E00
2800
2000
2200
1200
0C00
ENDCHAR
STARTCHAR 0294
ENCODING 660
SWIDTH 405 0
DWIDTH 9 0
BBX 8 15 1 0
BITMAP
10
7E
66
C3
03
03
06
0E
0C
18
18
18
18
18
18
ENDCHAR
STARTCHAR 0295
ENCODING 661
SWIDTH 405 0
DWIDTH 9 0
BBX 8 15 1 0
BITMAP
10
7C
E6
C3
C0
C0
C0
60
30
18
18
18
18
18
18
ENDCHAR
STARTCHAR 0296
ENCODING 662
SWIDTH 405 0
DWIDTH 9 0
BBX 8 14 1 0
BITMAP
18
18
18
18
18
18
0C
06
02
03
C3
C3
66
3C
ENDCHAR
STARTCHAR 0297
ENCODING 663
SWIDTH 450 0
DWIDTH 10 0
BBX 8 15 1 -5
BITMAP
1E
37
63
40
C0
C0
C0
C0
C0
C0
40
61
63
3E
08
ENDCHAR
STARTCHAR 0298
ENCODING 664
SWIDTH 450 0
DWIDTH 10 0
BBX 9 15 1 0
BITMAP
0800
3E00
6600
6300
4100
C180
C180
DD80
D980
C180
C100
4100
6300
3600
1C00
ENDCHAR
STARTCHAR 0299
ENCODING 665
SWIDTH 405 0
DWIDTH 9 0
BBX 7 10 1 0
BITMAP
FC
FC
C6
C6
FC
C6
C6
C6
FE
FC
ENDCHAR
STARTCHAR 029A
ENCODING 666
SWIDTH 405 0
DWIDTH 9 0
BBX 8 10 1 0
BITMAP
7C
6E
46
62
73
E3
C3
C6
EE
7C
ENDCHAR
STARTCHAR 029B
ENCODING 667
SWIDTH 450 0
DWIDTH 10 0
BBX 11 15 1 0
BITMAP
0040
01E0
0180
0100
0100
3F00
7700
4300
C000
C000
CF00
C100
4300
7700
3E00
ENDCHAR
STARTCHAR 029C
ENCODING 668
SWIDTH 405 0
DWIDTH 9 0
BBX 8 10 1 0
BITMAP
C3
C3
C3
C3
FF
FF
C3
C3
C3
C3
ENDCHAR
STARTCHAR 029D
ENCODING 669
SWIDTH 405 0
DWIDTH 9 0
BBX 8 19 1 -5
BITMAP
18
18
00
00
18
18
18
18
18
18
18
18
38
7E
DE
DB
D8
78
20
ENDCHAR
STARTCHAR 029E
ENCODING 670
SWIDTH 405 0
DWIDTH 9 0
BBX 8 14 1 -4
BITMAP
C3
63
33
1B
1F
0F
0F
1B
33
33
03
03
03
03
ENDCHAR
STARTCHAR 029F
ENCODING 671
SWIDTH 360 0
DWIDTH 8 0
BBX 6 10 1 0
BITMAP
C0
C0
C0
C0
C0
C0
C0
C0
FC
FC
ENDCHAR
STARTCHAR 02A0
ENCODING 672
SWIDTH 450 0
DWIDTH 10 0
BBX 12 19 1 -5
BITMAP
00F0
0180
0180
0180
3F80
7780
4380
C180
C180
C180
C180
4380
7780
3F80
0180
0180
0180
0180
0080
ENDCHAR
STARTCHAR 02A1
ENCODING 673
SWIDTH 405 0
DWIDTH 9 0
BBX 8 15 1 0
BITMAP
10
7E
66
C3
03
03
06
0E
0C
7E
7E
18
18
18
18
ENDCHAR
STARTCHAR 02A2
ENCODING 674
SWIDTH 405 0
DWIDTH 9 0
BBX 8 15 1 0
BITMAP
10
7C
E6
C3
C0
C0
C0
60
30
7E
7E
18
18
18
18
ENDCHAR
STARTCHAR 02A3
ENCODING 675
SWIDTH 765 0
DWIDTH 17 0
BBX 15 14 1 0
BITMAP
0180
0180
0180
0180
3FFE
77FE
4386
C18C
C198
C198
C1B0
43E0
77FE
3FFE
ENDCHAR
STARTCHAR 02A4
ENCODING 676
SWIDTH 765 0
DWIDTH 17 0
BBX 15 19 1 -5
BITMAP
0180
0180
0180
0180
3FFE
77FE
4386
C18C
C198
C198
C19C
4386
7786
3F82
0002
0006
00CC
00FC
0030
ENDCHAR
STARTCHAR 02A5
ENCODING 677
SWIDTH 810 0
DWIDTH 18 0
BBX 16 18 1 -4
BITMAP
0180
0180
0180
0180
3FFE
77FE
4386
C18C
C198
C199
C1B3
43E5
77FD
3FFE
0004
0004
0064
0078
ENDCHAR
STARTCHAR 02A6
ENCODING 678
SWIDTH 630 0
DWIDTH 14 0
BBX 12 13 1 0
BITMAP
1000
3000
3000
FDE0
FFE0
3230
3300
31C0
3070
3030
3030
3FF0
3FE0
ENDCHAR
STARTCHAR 02A7
ENCODING 679
SWIDTH 450 0
DWIDTH 10 0
BBX 11 20 1 -5
BITMAP
0040
01E0
1180
3100
3100
FD00
FD00
3100
3100
3100
3100
3100
3100
3F00
3F00
0100
0100
0300
1E00
0400
ENDCHAR
STARTCHAR 02A8
ENCODING 680
SWIDTH 675 0
DWIDTH 15 0
BBX 14 18 1 -5
BITMAP
1000
3000
3000
FCF0
FDB8
330C
3200
3200
3204
321C
3314
3FB8
3FF0
0010
0020
0120
0120
00C0
ENDCHAR
STARTCHAR 02A9
ENCODING 681
SWIDTH 720 0
DWIDTH 16 0
BBX 14 19 1 -4
BITMAP
1E00
3000
3000
3000
32F0
FFD8
FF0C
320C
3204
3204
3204
3204
3204
3204
0004
0004
000C
0078
0010
ENDCHAR
STARTCHAR 02AA
ENCODING 682
SWIDTH 450 0
DWIDTH 10 0
BBX 9 14 1 0
BITMAP
C000
C000
C000
C000
CE00
DF00
D100
D800
CE00
C300
C180
C180
FF00
FE00
ENDCHAR
STARTCHAR 02AB
ENCODING 683
SWIDTH 495 0
DWIDTH 11 0
BBX 10 14 1 0
BITMAP
C000
C000
C000
C000
DFC0
DFC0
C180
C180
C300
C600
CC00
CC00
FFC0
FFC0
ENDCHAR
STARTCHAR 02AC
ENCODING 684
SWIDTH 360 0
DWIDTH 8 0
BBX 7 11 1 0
BITMAP
96
D4
7C
6C
6C
28
D4
74
6C
6C
68
ENDCHAR
STARTCHAR 02AD
ENCODING 685
SWIDTH 405 0
DWIDTH 9 0
BBX 8 10 1 0
BITMAP
FF
FF
C3
00
00
00
00
FF
C3
C3
ENDCHAR
STARTCHAR 02AE
ENCODING 686
SWIDTH 630 0
DWIDTH 14 0
BBX 12 14 1 -5
BITMAP
F010
5810
1810
1810
1810
1830
0830
0C30
0EF0
07D0
0010
0010
0010
0010
ENDCHAR
STARTCHAR 02AF
ENCODING 687
SWIDTH 630 0
DWIDTH 14 0
BBX 15 15 1 -5
BITMAP
F010
5810
1810
1810
1810
1830
0830
0C30
0EF0
07D0
0010
0010
0018
001E
0004
ENDCHAR
STARTCHAR 02B0
ENCODING 688
SWIDTH 270 0
DWIDTH 6 0
BBX 5 7 1 10
BITMAP
80
80
F0
D8
88
88
88
ENDCHAR
STARTCHAR 02B1
ENCODING 689
SWIDTH 270 0
DWIDTH 6 0
BBX 5 7 1 10
BITMAP
E0
80
F0
D8
88
88
88
ENDCHAR
STARTCHAR 02B2
ENCODING 690
SWIDTH 225 0
DWIDTH 5 0
BBX 3 9 1 8
BITMAP
20
00
20
20
20
20
20
20
E0
ENDCHAR
STARTCHAR 02B3
ENCODING 691
SWIDTH 225 0
DWIDTH 5 0
BBX 3 5 1 10
BITMAP
E0
C0
80
80
80
ENDCHAR
STARTCHAR 02B4
ENCODING 692
SWIDTH 225 0
DWIDTH 5 0
BBX 3 5 1 10
BITMAP
20
20
20
20
E0
ENDCHAR
STARTCHAR 02B5
ENCODING 693
SWIDTH 315 0
DWIDTH 7 0
BBX 5 7 1 8
BITMAP
20
20
20
20
E0
20
38
ENDCHAR
STARTCHAR 02B6
ENCODING 694
SWIDTH 270 0
DWIDTH 6 0
BBX 4 5 1 10
BITMAP
B0
A0
E0
A0
E0
ENDCHAR
STARTCHAR 02B7
ENCODING 695
SWIDTH 360 0
DWIDTH 8 0
BBX 7 5 1 10
BITMAP
96
74
7C
6C
68
ENDCHAR
STARTCHAR 02B8
ENCODING 696
SWIDTH 315 0
DWIDTH 7 0
BBX 5 7 1 8
BITMAP
C8
50
50
70
20
20
60
ENDCHAR
STARTCHAR 02B9
ENCODING 697
SWIDTH 225 0
DWIDTH 5 0
BBX 3 6 1 9
BITMAP
60
60
40
C0
80
80
ENDCHAR
STARTCHAR 02BA
ENCODING 698
SWIDTH 360 0
DWIDTH 8 0
BBX 6 6 1 9
BITMAP
6C
6C
48
C8
90
90
ENDCHAR
STARTCHAR 02BB
ENCODING 699
SWIDTH 180 0
DWIDTH 4 0
BBX 3 5 1 10
BITMAP
40
80
80
C0
E0
ENDCHAR
STARTCHAR 02BC
ENCODING 700
SWIDTH 180 0
DWIDTH 4 0
BBX 3 5 1 10
BITMAP
E0
E0
20
40
C0
ENDCHAR
STARTCHAR 02BD
ENCODING 701
SWIDTH 180 0
DWIDTH 4 0
BBX 3 5 1 10
BITMAP
E0
C0
80
80
40
ENDCHAR
STARTCHAR 02BE
ENCODING 702
SWIDTH 180 0
DWIDTH 4 0
BBX 2 4 1 11
BITMAP
80
C0
40
C0
ENDCHAR
STARTCHAR 02BF
ENCODING 703
SWIDTH 180 0
DWIDTH 4 0
BBX 2 4 1 11
BITMAP
40
C0
80
40
ENDCHAR
STARTCHAR 02C0
ENCODING 704
SWIDTH 270 0
DWIDTH 6 0
BBX 4 7 1 10
BITMAP
F0
90
10
30
20
20
20
ENDCHAR
STARTCHAR 02C1
ENCODING 705
SWIDTH 270 0
DWIDTH 6 0
BBX 4 7 1 10
BITMAP
F0
90
80
40
60
20
20
ENDCHAR
STARTCHAR 02C2
ENCODING 706
SWIDTH 360 0
DWIDTH 8 0
BBX 5 8 2 4
BITMAP
08
18
70
F0
F0
30
18
08
ENDCHAR
STARTCHAR 02C3
ENCODING 707
SWIDTH 360 0
DWIDTH 8 0
BBX 6 8 1 4
BITMAP
40
60
38
3C
3C
70
60
80
ENDCHAR
STARTCHAR 02C4
ENCODING 708
SWIDTH 450 0
DWIDTH 10 0
BBX 8 6 1 4
BITMAP
08
1C
3C
3E
63
81
ENDCHAR
STARTCHAR 02C5
ENCODING 709
SWIDTH 450 0
DWIDTH 10 0
BBX 7 6 2 4
BITMAP
82
EC
7C
38
30
10
ENDCHAR
STARTCHAR 02C6
ENCODING 710
SWIDTH 315 0
DWIDTH 7 0
BBX 5 3 1 11
BITMAP
70
48
80
ENDCHAR
STARTCHAR 02C7
ENCODING 711
SWIDTH 315 0
DWIDTH 7 0
BBX 5 3 1 11
BITMAP
88
58
30
ENDCHAR
STARTCHAR 02C8
ENCODING 712
SWIDTH 135 0
DWIDTH 3 0
BBX 1 5 1 11
BITMAP
80
80
80
80
80
ENDCHAR
STARTCHAR 02C9
ENCODING 713
SWIDTH 315 0
DWIDTH 7 0
BBX 6 1 1 12
BITMAP
FC
ENDCHAR
STARTCHAR 02CA
ENCODING 714
SWIDTH 225 0
DWIDTH 5 0
BBX 3 3 1 11
BITMAP
60
40
80
ENDCHAR
STARTCHAR 02CB
ENCODING 715
SWIDTH 225 0
DWIDTH 5 0
BBX 3 3 2 11
BITMAP
C0
40
20
ENDCHAR
STARTCHAR 02CC
ENCODING 716
SWIDTH 135 0
DWIDTH 3 0
BBX 1 6 1 -7
BITMAP
80
80
80
80
80
80
ENDCHAR
STARTCHAR 02CD
ENCODING 717
SWIDTH 315 0
DWIDTH 7 0
BBX 6 2 1 -4
BITMAP
FC
FC
ENDCHAR
STARTCHAR 02CE
ENCODING 718
SWIDTH 225 0
DWIDTH 5 0
BBX 2 3 2 -4
BITMAP
80
40
40
ENDCHAR
STARTCHAR 02CF
ENCODING 719
SWIDTH 225 0
DWIDTH 5 0
BBX 3 3 1 -4
BITMAP
20
40
80
ENDCHAR
STARTCHAR 02D0
ENCODING 720
SWIDTH 225 0
DWIDTH 5 0
BBX 3 10 1 0
BITMAP
E0
60
40
00
00
00
00
40
60
E0
ENDCHAR
STARTCHAR 02D1
ENCODING 721
SWIDTH 225 0
DWIDTH 5 0
BBX 3 3 1 7
BITMAP
E0
60
40
ENDCHAR
STARTCHAR 02D2
ENCODING 722
SWIDTH 180 0
DWIDTH 4 0
BBX 2 4 1 5
BITMAP
80
40
40
80
ENDCHAR
STARTCHAR 02D3
ENCODING 723
SWIDTH 180 0
DWIDTH 4 0
BBX 2 4 1 5
BITMAP
40
80
C0
40
ENDCHAR
STARTCHAR 02D4
ENCODING 724
SWIDTH 405 0
DWIDTH 9 0
BBX 8 5 1 6
BITMAP
18
18
18
FF
FF
ENDCHAR
STARTCHAR 02D5
ENCODING 725
SWIDTH 405 0
DWIDTH 9 0
BBX 8 5 1 3
BITMAP
FF
FF
18
18
18
ENDCHAR
STARTCHAR 02D6
ENCODING 726
SWIDTH 405 0
DWIDTH 9 0
BBX 8 8 1 3
BITMAP
18
18
18
FF
FF
18
18
18
ENDCHAR
STARTCHAR 02D7
ENCODING 727
SWIDTH 405 0
DWIDTH 9 0
BBX 8 2 1 6
BITMAP
FF
FF
ENDCHAR
STARTCHAR 02D8
ENCODING 728
SWIDTH 360 0
DWIDTH 8 0
BBX 6 3 1 11
BITMAP
C4
7C
30
ENDCHAR
STARTCHAR 02D9
ENCODING 729
SWIDTH 180 0
DWIDTH 4 0
BBX 2 2 1 11
BITMAP
C0
C0
ENDCHAR
STARTCHAR 02DA
ENCODING 730
SWIDTH 225 0
DWIDTH 5 0
BBX 4 4 1 11
BITMAP
60
F0
90
60
ENDCHAR
STARTCHAR 02DB
ENCODING 731
SWIDTH 270 0
DWIDTH 6 0
BBX 4 4 1 -3
BITMAP
80
80
C0
70
ENDCHAR
STARTCHAR 02DC
ENCODING 732
SWIDTH 405 0
DWIDTH 9 0
BBX 8 3 1 11
BITMAP
71
9E
84
ENDCHAR
STARTCHAR 02DD
ENCODING 733
SWIDTH 405 0
DWIDTH 9 0
BBX 7 3 1 11
BITMAP
66
48
80
ENDCHAR
STARTCHAR 02DE
ENCODING 734
SWIDTH 225 0
DWIDTH 5 0
BBX 5 4 0 3
BITMAP
18
C8
58
70
ENDCHAR
STARTCHAR 02DF
ENCODING 735
SWIDTH 315 0
DWIDTH 7 0
BBX 4 4 2 10
BITMAP
90
E0
60
B0
ENDCHAR
STARTCHAR 02E0
ENCODING 736
SWIDTH 315 0
DWIDTH 7 0
BBX 5 7 1 8
BITMAP
C8
50
50
70
20
30
70
ENDCHAR
STARTCHAR 02E1
ENCODING 737
SWIDTH 180 0
DWIDTH 4 0
BBX 2 7 1 10
BITMAP
80
80
80
80
80
80
C0
ENDCHAR
STARTCHAR 02E2
ENCODING 738
SWIDTH 225 0
DWIDTH 5 0
BBX 4 5 1 10
BITMAP
E0
B0
60
90
E0
ENDCHAR
STARTCHAR 02E3
ENCODING 739
SWIDTH 315 0
DWIDTH 7 0
BBX 4 5 2 10
BITMAP
B0
E0
40
E0
B0
ENDCHAR
STARTCHAR 02E4
ENCODING 740
SWIDTH 270 0
DWIDTH 6 0
BBX 4 7 1 10
BITMAP
F0
90
80
40
60
20
20
ENDCHAR
STARTCHAR 02E5
ENCODING 741
SWIDTH 315 0
DWIDTH 7 0
BBX 6 14 1 0
BITMAP
FC
0C
0C
0C
0C
0C
0C
0C
0C
0C
0C
0C
0C
0C
ENDCHAR
STARTCHAR 02E6
ENCODING 742
SWIDTH 315 0
DWIDTH 7 0
BBX 6 14 1 0
BITMAP
0C
0C
0C
FC
0C
0C
0C
0C
0C
0C
0C
0C
0C
0C
ENDCHAR
STARTCHAR 02E7
ENCODING 743
SWIDTH 315 0
DWIDTH 7 0
BBX 6 14 1 0
BITMAP
0C
0C
0C
0C
0C
0C
FC
FC
0C
0C
0C
0C
0C
0C
ENDCHAR
STARTCHAR 02E8
ENCODING 744
SWIDTH 315 0
DWIDTH 7 0
BBX 6 14 1 0
BITMAP
0C
0C
0C
0C
0C
0C
0C
0C
0C
FC
FC
0C
0C
0C
ENDCHAR
STARTCHAR 02E9
ENCODING 745
SWIDTH 315 0
DWIDTH 7 0
BBX 6 14 1 0
BITMAP
0C
0C
0C
0C
0C
0C
0C
0C
0C
0C
0C
0C
FC
FC
ENDCHAR
STARTCHAR 02EA
ENCODING 746
SWIDTH 315 0
DWIDTH 7 0
BBX 5 10 1 0
BITMAP
C0
C0
C0
C0
C0
C0
C0
C0
F8
F8
ENDCHAR
STARTCHAR 02EB
ENCODING 747
SWIDTH 315 0
DWIDTH 7 0
BBX 5 10 1 0
BITMAP
C0
C0
C0
C0
F8
F8
C0
C0
C0
C0
ENDCHAR
STARTCHAR 02EC
ENCODING 748
SWIDTH 315 0
DWIDTH 7 0
BBX 5 3 1 -4
BITMAP
80
48
70
ENDCHAR
STARTCHAR 02ED
ENCODING 749
SWIDTH 315 0
DWIDTH 7 0
BBX 5 3 1 12
BITMAP
F8
00
F8
ENDCHAR
STARTCHAR 02EE
ENCODING 750
SWIDTH 360 0
DWIDTH 8 0
BBX 7 5 1 10
BITMAP
EC
EE
24
44
C8
ENDCHAR
STARTCHAR 02EF
ENCODING 751
SWIDTH 270 0
DWIDTH 6 0
BBX 4 3 1 -4
BITMAP
80
70
20
ENDCHAR
STARTCHAR 02F0
ENCODING 752
SWIDTH 270 0
DWIDTH 6 0
BBX 3 3 2 -4
BITMAP
40
C0
A0
ENDCHAR
STARTCHAR 02F1
ENCODING 753
SWIDTH 225 0
DWIDTH 5 0
BBX 3 3 1 -4
BITMAP
60
C0
20
ENDCHAR
STARTCHAR 02F2
ENCODING 754
SWIDTH 225 0
DWIDTH 5 0
BBX 3 4 1 -5
BITMAP
80
40
60
80
ENDCHAR
STARTCHAR 02F3
ENCODING 755
SWIDTH 225 0
DWIDTH 5 0
BBX 4 4 1 -5
BITMAP
60
90
F0
60
ENDCHAR
STARTCHAR 02F4
ENCODING 756
SWIDTH 225 0
DWIDTH 5 0
BBX 3 3 1 6
BITMAP
C0
60
20
ENDCHAR
STARTCHAR 02F5
ENCODING 757
SWIDTH 405 0
DWIDTH 9 0
BBX 7 3 1 6
BITMAP
CC
64
22
ENDCHAR
STARTCHAR 02F6
ENCODING 758
SWIDTH 405 0
DWIDTH 9 0
BBX 6 3 2 6
BITMAP
6C
D8
90
ENDCHAR
STARTCHAR 02F7
ENCODING 759
SWIDTH 405 0
DWIDTH 9 0
BBX 8 3 1 -4
BITMAP
61
FB
8E
ENDCHAR
STARTCHAR 02F8
ENCODING 760
SWIDTH 180 0
DWIDTH 4 0
BBX 2 11 1 4
BITMAP
40
C0
C0
00
00
00
00
00
00
C0
C0
ENDCHAR
STARTCHAR 02F9
ENCODING 761
SWIDTH 315 0
DWIDTH 7 0
BBX 5 6 1 8
BITMAP
F8
C0
C0
C0
C0
C0
ENDCHAR
STARTCHAR 02FA
ENCODING 762
SWIDTH 315 0
DWIDTH 7 0
BBX 5 6 1 8
BITMAP
F8
18
18
18
18
18
ENDCHAR
STARTCHAR 02FB
ENCODING 763
SWIDTH 315 0
DWIDTH 7 0
BBX 5 7 1 0
BITMAP
C0
C0
C0
C0
C0
F8
F8
ENDCHAR
STARTCHAR 02FC
ENCODING 764
SWIDTH 315 0
DWIDTH 7 0
BBX 5 7 1 0
BITMAP
18
18
18
18
18
F8
F8
ENDCHAR
STARTCHAR 02FD
ENCODING 765
SWIDTH 315 0
DWIDTH 7 0
BBX 6 2 1 -3
BITMAP
8C
FC
ENDCHAR
STARTCHAR 02FE
ENCODING 766
SWIDTH 315 0
DWIDTH 7 0
BBX 6 2 1 -3
BITMAP
80
FC
ENDCHAR
STARTCHAR 02FF
ENCODING 767
SWIDTH 450 0
DWIDTH 10 0
BBX 9 3 1 -4
BITMAP
6000
FF80
2000
ENDCHAR
STARTCHAR 0300
ENCODING 768
SWIDTH 0 0
DWIDTH 0 0
BBX 3 3 -2 11
BITMAP
C0
60
20
ENDCHAR
STARTCHAR 0301
ENCODING 769
SWIDTH 0 0
DWIDTH 0 0
BBX 3 3 -1 11
BITMAP
60
C0
80
ENDCHAR
STARTCHAR 0302
ENCODING 770
SWIDTH 0 0
DWIDTH 0 0
BBX 6 3 -3 11
BITMAP
30
48
84
ENDCHAR
STARTCHAR 0303
ENCODING 771
SWIDTH 0 0
DWIDTH 0 0
BBX 8 3 -4 11
BITMAP
71
9F
86
ENDCHAR
STARTCHAR 0304
ENCODING 772
SWIDTH 0 0
DWIDTH 0 0
BBX 6 1 -3 12
BITMAP
FC
ENDCHAR
STARTCHAR 0306
ENCODING 774
SWIDTH 0 0
DWIDTH 0 0
BBX 6 3 -3 11
BITMAP
84
78
30
ENDCHAR
STARTCHAR 0307
ENCODING 775
SWIDTH 0 0
DWIDTH 0 0
BBX 2 2 -1 11
BITMAP
C0
C0
ENDCHAR
STARTCHAR 0308
ENCODING 776
SWIDTH 0 0
DWIDTH 0 0
BBX 6 2 -3 11
BITMAP
CC
CC
ENDCHAR
STARTCHAR 0309
ENCODING 777
SWIDTH 0 0
DWIDTH 0 0
BBX 4 5 -2 11
BITMAP
60
90
10
20
40
ENDCHAR
STARTCHAR 030A
ENCODING 778
SWIDTH 0 0
DWIDTH 0 0
BBX 4 4 -2 11
BITMAP
60
F0
90
60
ENDCHAR
STARTCHAR 030B
ENCODING 779
SWIDTH 0 0
DWIDTH 0 0
BBX 6 3 -2 11
BITMAP
6C
88
10
ENDCHAR
STARTCHAR 030C
ENCODING 780
SWIDTH 0 0
DWIDTH 0 0
BBX 4 3 -2 11
BITMAP
90
F0
60
ENDCHAR
STARTCHAR 030D
ENCODING 781
SWIDTH 0 0
DWIDTH 0 0
BBX 2 5 -1 11
BITMAP
C0
C0
C0
C0
C0
ENDCHAR
STARTCHAR 030E
ENCODING 782
SWIDTH 0 0
DWIDTH 0 0
BBX 4 5 -2 11
BITMAP
90
90
90
90
90
ENDCHAR
STARTCHAR 030F
ENCODING 783
SWIDTH 0 0
DWIDTH 0 0
BBX 6 3 -4 11
BITMAP
D8
44
20
ENDCHAR
STARTCHAR 0310
ENCODING 784
SWIDTH 0 0
DWIDTH 0 0
BBX 6 4 -3 12
BITMAP
30
B4
78
30
ENDCHAR
STARTCHAR 0311
ENCODING 785
SWIDTH 0 0
DWIDTH 0 0
BBX 6 3 -3 11
BITMAP
78
CC
84
ENDCHAR
STARTCHAR 0312
ENCODING 786
SWIDTH 0 0
DWIDTH 0 0
BBX 4 6 -2 11
BITMAP
10
60
40
80
E0
60
ENDCHAR
STARTCHAR 0313
ENCODING 787
SWIDTH 0 0
DWIDTH 0 0
BBX 2 4 -1 10
BITMAP
C0
C0
40
40
ENDCHAR
STARTCHAR 0314
ENCODING 788
SWIDTH 0 0
DWIDTH 0 0
BBX 2 4 -1 10
BITMAP
C0
C0
80
80
ENDCHAR
STARTCHAR 0315
ENCODING 789
SWIDTH 0 0
DWIDTH 0 0
BBX 3 5 2 10
BITMAP
E0
E0
20
20
C0
ENDCHAR
STARTCHAR 0316
ENCODING 790
SWIDTH 0 0
DWIDTH 0 0
BBX 3 3 -2 -4
BITMAP
C0
40
20
ENDCHAR
STARTCHAR 0317
ENCODING 791
SWIDTH 0 0
DWIDTH 0 0
BBX 3 3 -1 -4
BITMAP
60
40
80
ENDCHAR
STARTCHAR 0318
ENCODING 792
SWIDTH 0 0
DWIDTH 0 0
BBX 4 6 -3 -7
BITMAP
30
30
F0
30
30
30
ENDCHAR
STARTCHAR 0319
ENCODING 793
SWIDTH 0 0
DWIDTH 0 0
BBX 4 6 -1 -7
BITMAP
C0
C0
F0
C0
C0
C0
ENDCHAR
STARTCHAR 031A
ENCODING 794
SWIDTH 0 0
DWIDTH 0 0
BBX 6 4 -3 11
BITMAP
FC
04
04
04
ENDCHAR
STARTCHAR 031B
ENCODING 795
SWIDTH 0 0
DWIDTH 0 0
BBX 3 6 -1 5
BITMAP
C0
E0
20
40
40
80
ENDCHAR
STARTCHAR 031C
ENCODING 796
SWIDTH 0 0
DWIDTH 0 0
BBX 2 3 -1 -4
BITMAP
C0
80
C0
ENDCHAR
STARTCHAR 031D
ENCODING 797
SWIDTH 0 0
DWIDTH 0 0
BBX 6 3 -3 -4
BITMAP
30
30
FC
ENDCHAR
STARTCHAR 031E
ENCODING 798
SWIDTH 0 0
DWIDTH 0 0
BBX 6 4 -3 -7
BITMAP
FC
30
30
30
ENDCHAR
STARTCHAR 031F
ENCODING 799
SWIDTH 0 0
DWIDTH 0 0
BBX 6 6 -3 -7
BITMAP
30
30
FC
30
30
30
ENDCHAR
STARTCHAR 0320
ENCODING 800
SWIDTH 0 0
DWIDTH 0 0
BBX 6 1 -3 -4
BITMAP
FC
ENDCHAR
STARTCHAR 0321
ENCODING 801
SWIDTH 0 0
DWIDTH 0 0
BBX 5 8 -6 -5
BITMAP
18
18
18
18
18
18
F0
60
ENDCHAR
STARTCHAR 0322
ENCODING 802
SWIDTH 0 0
DWIDTH 0 0
BBX 5 8 -3 -5
BITMAP
C0
C0
C0
C0
C0
C0
78
10
ENDCHAR
STARTCHAR 0323
ENCODING 803
SWIDTH 0 0
DWIDTH 0 0
BBX 2 2 -1 -4
BITMAP
C0
C0
ENDCHAR
STARTCHAR 0324
ENCODING 804
SWIDTH 0 0
DWIDTH 0 0
BBX 6 3 -3 -4
BITMAP
CC
CC
48
ENDCHAR
STARTCHAR 0325
ENCODING 805
SWIDTH 0 0
DWIDTH 0 0
BBX 4 4 -2 -5
BITMAP
60
90
F0
60
ENDCHAR
STARTCHAR 0326
ENCODING 806
SWIDTH 0 0
DWIDTH 0 0
BBX 4 6 -2 -7
BITMAP
60
60
10
20
20
C0
ENDCHAR
STARTCHAR 0327
ENCODING 807
SWIDTH 0 0
DWIDTH 0 0
BBX 4 5 -2 -5
BITMAP
40
70
10
F0
40
ENDCHAR
STARTCHAR 0328
ENCODING 808
SWIDTH 0 0
DWIDTH 0 0
BBX 4 4 -1 -3
BITMAP
80
80
C0
70
ENDCHAR
STARTCHAR 0329
ENCODING 809
SWIDTH 0 0
DWIDTH 0 0
BBX 2 6 -1 -7
BITMAP
C0
C0
C0
C0
C0
C0
ENDCHAR
STARTCHAR 032A
ENCODING 810
SWIDTH 0 0
DWIDTH 0 0
BBX 6 3 -3 -4
BITMAP
FC
84
84
ENDCHAR
STARTCHAR 032B
ENCODING 811
SWIDTH 0 0
DWIDTH 0 0
BBX 6 3 -3 -4
BITMAP
84
A4
FC
ENDCHAR
STARTCHAR 032C
ENCODING 812
SWIDTH 0 0
DWIDTH 0 0
BBX 6 3 -3 -4
BITMAP
84
48
30
ENDCHAR
STARTCHAR 032D
ENCODING 813
SWIDTH 0 0
DWIDTH 0 0
BBX 4 3 -2 -4
BITMAP
60
F0
90
ENDCHAR
STARTCHAR 032E
ENCODING 814
SWIDTH 0 0
DWIDTH 0 0
BBX 6 3 -3 -4
BITMAP
84
CC
78
ENDCHAR
STARTCHAR 032F
ENCODING 815
SWIDTH 0 0
DWIDTH 0 0
BBX 6 3 -3 -4
BITMAP
78
CC
84
ENDCHAR
STARTCHAR 0330
ENCODING 816
SWIDTH 0 0
DWIDTH 0 0
BBX 8 3 -4 -4
BITMAP
61
F9
8E
ENDCHAR
STARTCHAR 0331
ENCODING 817
SWIDTH 0 0
DWIDTH 0 0
BBX 6 1 -3 -3
BITMAP
FC
ENDCHAR
STARTCHAR 0334
ENCODING 820
SWIDTH 0 0
DWIDTH 0 0
BBX 8 2 -4 4
BITMAP
71
8E
ENDCHAR
STARTCHAR 0335
ENCODING 821
SWIDTH 0 0
DWIDTH 0 0
BBX 6 2 -3 4
BITMAP
FC
FC
ENDCHAR
STARTCHAR 0336
ENCODING 822
SWIDTH 0 0
DWIDTH 0 0
BBX 16 2 -8 4
BITMAP
FFFF
FFFF
ENDCHAR
STARTCHAR 0337
ENCODING 823
SWIDTH 0 0
DWIDTH 0 0
BBX 10 12 -5 -1
BITMAP
00C0
0180
0300
0300
0600
0C00
0C00
1800
3000
3000
6000
C000
ENDCHAR
STARTCHAR 0338
ENCODING 824
SWIDTH 0 0
DWIDTH 0 0
BBX 12 16 -6 -3
BITMAP
0030
0030
0060
00C0
0180
0180
0300
0600
0600
0C00
1800
1800
3000
6000
C000
C000
ENDCHAR
STARTCHAR 0339
ENCODING 825
SWIDTH 0 0
DWIDTH 0 0
BBX 2 3 -1 -4
BITMAP
C0
40
C0
ENDCHAR
STARTCHAR 033A
ENCODING 826
SWIDTH 0 0
DWIDTH 0 0
BBX 6 3 -3 -4
BITMAP
84
84
FC
ENDCHAR
STARTCHAR 033B
ENCODING 827
SWIDTH 0 0
DWIDTH 0 0
BBX 6 4 -3 -5
BITMAP
FC
84
84
FC
ENDCHAR
STARTCHAR 033C
ENCODING 828
SWIDTH 0 0
DWIDTH 0 0
BBX 8 3 -4 -4
BITMAP
66
BD
91
ENDCHAR
STARTCHAR 033D
ENCODING 829
SWIDTH 0 0
DWIDTH 0 0
BBX 4 5 -2 10
BITMAP
90
F0
60
F0
90
ENDCHAR
STARTCHAR 033E
ENCODING 830
SWIDTH 0 0
DWIDTH 0 0
BBX 2 8 -1 11
BITMAP
40
80
80
80
40
40
40
80
ENDCHAR
STARTCHAR 0340
ENCODING 832
SWIDTH 0 0
DWIDTH 0 0
BBX 3 3 -2 11
BITMAP
C0
60
20
ENDCHAR
STARTCHAR 0341
ENCODING 833
SWIDTH 0 0
DWIDTH 0 0
BBX 3 3 -1 11
BITMAP
60
C0
80
ENDCHAR
STARTCHAR 0342
ENCODING 834
SWIDTH 0 0
DWIDTH 0 0
BBX 8 3 -4 11
BITMAP
71
9F
86
ENDCHAR
STARTCHAR 0343
ENCODING 835
SWIDTH 0 0
DWIDTH 0 0
BBX 2 4 -1 10
BITMAP
C0
C0
40
40
ENDCHAR
STARTCHAR 0344
ENCODING 836
SWIDTH 0 0
DWIDTH 0 0
BBX 6 4 -3 11
BITMAP
0C
18
DC
CC
ENDCHAR
STARTCHAR 0345
ENCODING 837
SWIDTH 0 0
DWIDTH 0 0
BBX 3 4 -1 -5
BITMAP
C0
C0
C0
E0
ENDCHAR
STARTCHAR 0346
ENCODING 838
SWIDTH 0 0
DWIDTH 0 0
BBX 6 3 -3 11
BITMAP
FC
84
84
ENDCHAR
STARTCHAR 0347
ENCODING 839
SWIDTH 0 0
DWIDTH 0 0
BBX 6 3 -3 -5
BITMAP
FC
00
FC
ENDCHAR
STARTCHAR 0348
ENCODING 840
SWIDTH 0 0
DWIDTH 0 0
BBX 4 6 -2 -7
BITMAP
90
90
90
90
90
90
ENDCHAR
STARTCHAR 0349
ENCODING 841
SWIDTH 0 0
DWIDTH 0 0
BBX 6 4 -3 -5
BITMAP
FC
04
04
04
ENDCHAR
STARTCHAR 034A
ENCODING 842
SWIDTH 0 0
DWIDTH 0 0
BBX 8 4 -4 11
BITMAP
0C
79
9E
90
ENDCHAR
STARTCHAR 034B
ENCODING 843
SWIDTH 0 0
DWIDTH 0 0
BBX 8 6 -4 10
BITMAP
18
18
71
9E
18
18
ENDCHAR
STARTCHAR 034C
ENCODING 844
SWIDTH 0 0
DWIDTH 0 0
BBX 8 5 -4 11
BITMAP
71
9E
00
71
8E
ENDCHAR
STARTCHAR 034D
ENCODING 845
SWIDTH 0 0
DWIDTH 0 0
BBX 8 4 -4 -5
BITMAP
24
42
FF
44
ENDCHAR
STARTCHAR 034E
ENCODING 846
SWIDTH 0 0
DWIDTH 0 0
BBX 4 3 -2 -4
BITMAP
60
F0
40
ENDCHAR
STARTCHAR 034F
ENCODING 847
SWIDTH 0 0
DWIDTH 0 0
BBX 0 0 0 0
BITMAP
ENDCHAR
STARTCHAR 0350
ENCODING 848
SWIDTH 0 0
DWIDTH 0 0
BBX 2 3 -1 11
BITMAP
80
C0
C0
ENDCHAR
STARTCHAR 0351
ENCODING 849
SWIDTH 0 0
DWIDTH 0 0
BBX 2 4 -1 11
BITMAP
40
C0
80
C0
ENDCHAR
STARTCHAR 0352
ENCODING 850
SWIDTH 0 0
DWIDTH 0 0
BBX 6 4 -3 12
BITMAP
78
FC
B4
30
ENDCHAR
STARTCHAR 0353
ENCODING 851
SWIDTH 0 0
DWIDTH 0 0
BBX 4 4 -2 -5
BITMAP
90
60
60
90
ENDCHAR
STARTCHAR 0354
ENCODING 852
SWIDTH 0 0
DWIDTH 0 0
BBX 2 3 -1 -4
BITMAP
C0
C0
40
ENDCHAR
STARTCHAR 0355
ENCODING 853
SWIDTH 0 0
DWIDTH 0 0
BBX 2 3 -1 -4
BITMAP
80
C0
80
ENDCHAR
STARTCHAR 0356
ENCODING 854
SWIDTH 0 0
DWIDTH 0 0
BBX 7 3 -3 -4
BITMAP
CC
6A
80
ENDCHAR
STARTCHAR 0357
ENCODING 855
SWIDTH 0 0
DWIDTH 0 0
BBX 2 4 -1 11
BITMAP
80
C0
40
C0
ENDCHAR
STARTCHAR 0358
ENCODING 856
SWIDTH 0 0
DWIDTH 0 0
BBX 2 2 2 11
BITMAP
C0
C0
ENDCHAR
STARTCHAR 0359
ENCODING 857
SWIDTH 0 0
DWIDTH 0 0
BBX 6 6 -3 -7
BITMAP
30
78
78
FC
30
30
ENDCHAR
STARTCHAR 035A
ENCODING 858
SWIDTH 0 0
DWIDTH 0 0
BBX 6 3 -3 -4
BITMAP
78
A4
FC
ENDCHAR
STARTCHAR 035B
ENCODING 859
SWIDTH 0 0
DWIDTH 0 0
BBX 4 5 -2 12
BITMAP
20
40
F0
60
C0
ENDCHAR
STARTCHAR 035C
ENCODING 860
SWIDTH 0 0
DWIDTH 0 0
BBX 18 3 -9 -8
BITMAP
C000C0
FFFFC0
1FFE00
ENDCHAR
STARTCHAR 035D
ENCODING 861
SWIDTH 0 0
DWIDTH 0 0
BBX 18 3 -9 15
BITMAP
800040
F807C0
3FFF00
ENDCHAR
STARTCHAR 035E
ENCODING 862
SWIDTH 0 0
DWIDTH 0 0
BBX 18 2 -9 15
BITMAP
FFFFC0
FFFFC0
ENDCHAR
STARTCHAR 035F
ENCODING 863
SWIDTH 0 0
DWIDTH 0 0
BBX 18 2 -9 -7
BITMAP
FFFFC0
FFFFC0
ENDCHAR
STARTCHAR 0360
ENCODING 864
SWIDTH 0 0
DWIDTH 0 0
BBX 18 4 -9 14
BITMAP
7F0000
C7E0C0
807FC0
000F00
ENDCHAR
STARTCHAR 0361
ENCODING 865
SWIDTH 0 0
DWIDTH 0 0
BBX 18 3 -9 15
BITMAP
1FFE00
FFFFC0
C000C0
ENDCHAR
STARTCHAR 0362
ENCODING 866
SWIDTH 0 0
DWIDTH 0 0
BBX 18 4 -9 -9
BITMAP
000100
FFFF80
FFFFC0
000180
ENDCHAR
STARTCHAR 0363
ENCODING 867
SWIDTH 0 0
DWIDTH 0 0
BBX 4 5 -2 11
BITMAP
70
10
F0
90
70
ENDCHAR
STARTCHAR 0364
ENCODING 868
SWIDTH 0 0
DWIDTH 0 0
BBX 4 5 -2 11
BITMAP
F0
90
F0
90
F0
ENDCHAR
STARTCHAR 0365
ENCODING 869
SWIDTH 0 0
DWIDTH 0 0
BBX 2 7 -1 11
BITMAP
C0
00
C0
C0
C0
C0
C0
ENDCHAR
STARTCHAR 0366
ENCODING 870
SWIDTH 0 0
DWIDTH 0 0
BBX 4 5 -2 11
BITMAP
F0
90
90
90
F0
ENDCHAR
STARTCHAR 0367
ENCODING 871
SWIDTH 0 0
DWIDTH 0 0
BBX 4 5 -2 11
BITMAP
90
90
90
90
F0
ENDCHAR
STARTCHAR 0368
ENCODING 872
SWIDTH 0 0
DWIDTH 0 0
BBX 4 5 -2 11
BITMAP
F0
90
80
90
70
ENDCHAR
STARTCHAR 0369
ENCODING 873
SWIDTH 0 0
DWIDTH 0 0
BBX 4 7 -2 11
BITMAP
10
10
F0
90
90
90
F0
ENDCHAR
STARTCHAR 036A
ENCODING 874
SWIDTH 0 0
DWIDTH 0 0
BBX 4 7 -2 11
BITMAP
80
80
F0
90
90
90
90
ENDCHAR
STARTCHAR 036B
ENCODING 875
SWIDTH 0 0
DWIDTH 0 0
BBX 6 5 -3 11
BITMAP
FC
B4
B4
B4
B4
ENDCHAR
STARTCHAR 036C
ENCODING 876
SWIDTH 0 0
DWIDTH 0 0
BBX 3 5 -2 11
BITMAP
E0
C0
C0
C0
C0
ENDCHAR
STARTCHAR 036D
ENCODING 877
SWIDTH 0 0
DWIDTH 0 0
BBX 4 7 -2 11
BITMAP
20
60
F0
60
60
60
60
ENDCHAR
STARTCHAR 036E
ENCODING 878
SWIDTH 0 0
DWIDTH 0 0
BBX 4 5 -2 11
BITMAP
90
90
60
60
60
ENDCHAR
STARTCHAR 036F
ENCODING 879
SWIDTH 0 0
DWIDTH 0 0
BBX 4 5 -2 11
BITMAP
90
60
60
60
90
ENDCHAR
STARTCHAR 0370
ENCODING 880
SWIDTH 405 0
DWIDTH 9 0
BBX 8 14 1 0
BITMAP
C0
C0
C0
C0
C0
C0
FF
FF
C0
C0
C0
C0
C0
C0
ENDCHAR
STARTCHAR 0371
ENCODING 881
SWIDTH 405 0
DWIDTH 9 0
BBX 7 10 1 0
BITMAP
E0
E0
20
20
3E
3E
20
20
20
20
ENDCHAR
STARTCHAR 0372
ENCODING 882
SWIDTH 630 0
DWIDTH 14 0
BBX 12 14 1 0
BITMAP
FFF0
C610
C610
C610
C610
C610
C610
0600
0600
0600
0600
0600
0600
0600
ENDCHAR
STARTCHAR 0373
ENCODING 883
SWIDTH 495 0
DWIDTH 11 0
BBX 10 10 1 0
BITMAP
3F00
7F80
4C80
CCC0
CCC0
CCC0
0C00
0C00
0E00
0600
ENDCHAR
STARTCHAR 0374
ENCODING 884
SWIDTH 225 0
DWIDTH 5 0
BBX 3 6 1 9
BITMAP
60
60
40
C0
80
80
ENDCHAR
STARTCHAR 0375
ENCODING 885
SWIDTH 225 0
DWIDTH 5 0
BBX 3 6 1 -1
BITMAP
20
20
20
60
60
C0
ENDCHAR
STARTCHAR 0376
ENCODING 886
SWIDTH 585 0
DWIDTH 13 0
BBX 11 14 1 0
BITMAP
C060
C0E0
C0E0
C1A0
C320
C320
C620
CC20
CC20
D820
F020
E020
E020
C020
ENDCHAR
STARTCHAR 0377
ENCODING 887
SWIDTH 540 0
DWIDTH 12 0
BBX 10 10 1 0
BITMAP
C300
C300
C700
CD00
CD00
D900
F100
E100
E1C0
C1C0
ENDCHAR
STARTCHAR 037A
ENCODING 890
SWIDTH 225 0
DWIDTH 5 0
BBX 3 4 1 -5
BITMAP
C0
C0
C0
E0
ENDCHAR
STARTCHAR 037B
ENCODING 891
SWIDTH 450 0
DWIDTH 10 0
BBX 8 10 1 0
BITMAP
3C
6E
C3
03
01
01
03
C3
66
3C
ENDCHAR
STARTCHAR 037C
ENCODING 892
SWIDTH 450 0
DWIDTH 10 0
BBX 8 10 1 0
BITMAP
3E
77
43
C0
DC
DC
C0
43
77
3E
ENDCHAR
STARTCHAR 037D
ENCODING 893
SWIDTH 450 0
DWIDTH 10 0
BBX 8 10 1 0
BITMAP
3C
6E
C3
03
19
19
03
C3
66
3C
ENDCHAR
STARTCHAR 037E
ENCODING 894
SWIDTH 180 0
DWIDTH 4 0
BBX 3 14 1 -4
BITMAP
C0
C0
00
00
00
00
00
00
C0
E0
20
20
40
80
ENDCHAR
STARTCHAR 037F
ENCODING 895
SWIDTH 360 0
DWIDTH 8 0
BBX 6 14 1 0
BITMAP
04
04
04
04
04
04
04
04
04
04
04
CC
EC
78
ENDCHAR
STARTCHAR 0384
ENCODING 900
SWIDTH 225 0
DWIDTH 5 0
BBX 3 3 1 11
BITMAP
60
40
80
ENDCHAR
STARTCHAR 0385
ENCODING 901
SWIDTH 360 0
DWIDTH 8 0
BBX 6 4 1 11
BITMAP
0C
18
DC
CC
ENDCHAR
STARTCHAR 0386
ENCODING 902
SWIDTH 630 0
DWIDTH 14 0
BBX 12 14 1 0
BITMAP
6600
4700
8F00
0D00
0980
1980
18C0
3FC0
3FC0
2060
6060
6020
4030
C030
ENDCHAR
STARTCHAR 0387
ENCODING 903
SWIDTH 180 0
DWIDTH 4 0
BBX 2 2 1 6
BITMAP
C0
C0
ENDCHAR
STARTCHAR 0388
ENCODING 904
SWIDTH 720 0
DWIDTH 16 0
BBX 14 14 1 0
BITMAP
67FC
4600
8600
0600
0600
0600
07F8
07F8
0600
0600
0600
0600
07FC
07FC
ENDCHAR
STARTCHAR 0389
ENCODING 905
SWIDTH 720 0
DWIDTH 16 0
BBX 14 14 1 0
BITMAP
660C
460C
860C
060C
060C
060C
07FC
07FC
060C
060C
060C
060C
060C
060C
ENDCHAR
STARTCHAR 038A
ENCODING 906
SWIDTH 495 0
DWIDTH 11 0
BBX 10 14 1 0
BITMAP
67C0
4100
8100
0100
0100
0100
0100
0100
0100
0100
0100
0100
07C0
07C0
ENDCHAR
STARTCHAR 038C
ENCODING 908
SWIDTH 720 0
DWIDTH 16 0
BBX 14 15 1 0
BITMAP
0080
67E0
4E30
9818
180C
100C
300C
3004
3004
300C
100C
1808
0C18
0E70
03E0
ENDCHAR
STARTCHAR 038E
ENCODING 910
SWIDTH 810 0
DWIDTH 18 0
BBX 16 14 1 0
BITMAP
6603
4306
830C
018C
00D8
0070
0070
0020
0020
0020
0020
0020
0020
0020
ENDCHAR
STARTCHAR 038F
ENCODING 911
SWIDTH 720 0
DWIDTH 16 0
BBX 15 15 1 0
BITMAP
0080
63F0
4638
8C0C
180C
1804
1806
1006
1006
1806
1804
080C
0C18
1F3E
1F3E
ENDCHAR
STARTCHAR 0390
ENCODING 912
SWIDTH 225 0
DWIDTH 5 0
BBX 6 16 -1 0
BITMAP
0C
18
DC
CC
00
00
30
30
30
30
30
30
30
30
38
38
ENDCHAR
STARTCHAR 0391
ENCODING 913
SWIDTH 630 0
DWIDTH 14 0
BBX 12 14 1 0
BITMAP
0600
0700
0F00
0D00
0980
1980
18C0
3FC0
3FC0
2060
6060
6020
4030
C030
ENDCHAR
STARTCHAR 0392
ENCODING 914
SWIDTH 495 0
DWIDTH 11 0
BBX 9 14 1 0
BITMAP
FE00
C300
C180
C180
C180
C700
FF00
C380
C180
C080
C180
C180
FF00
FE00
ENDCHAR
STARTCHAR 0393
ENCODING 915
SWIDTH 495 0
DWIDTH 11 0
BBX 9 14 1 0
BITMAP
FF80
C000
C000
C000
C000
C000
C000
C000
C000
C000
C000
C000
C000
C000
ENDCHAR
STARTCHAR 0394
ENCODING 916
SWIDTH 630 0
DWIDTH 14 0
BBX 12 14 1 0
BITMAP
0600
0700
0F00
0D00
0980
1980
18C0
30C0
3040
2060
6060
6020
7FF0
FFF0
ENDCHAR
STARTCHAR 0395
ENCODING 917
SWIDTH 495 0
DWIDTH 11 0
BBX 9 14 1 0
BITMAP
FF80
C000
C000
C000
C000
C000
FF00
FF00
C000
C000
C000
C000
FF80
FF80
ENDCHAR
STARTCHAR 0396
ENCODING 918
SWIDTH 495 0
DWIDTH 11 0
BBX 10 14 1 0
BITMAP
FFC0
00C0
0180
0300
0300
0600
0C00
0800
1800
3000
6000
6000
FFC0
FFC0
ENDCHAR
STARTCHAR 0397
ENCODING 919
SWIDTH 495 0
DWIDTH 11 0
BBX 9 14 1 0
BITMAP
C080
C080
C080
C080
C080
C080
FF80
FF80
C080
C080
C080
C080
C080
C080
ENDCHAR
STARTCHAR 0398
ENCODING 920
SWIDTH 630 0
DWIDTH 14 0
BBX 12 15 1 0
BITMAP
0600
1F80
30C0
6060
6020
C030
C030
DFB0
DFB0
C030
C030
6060
6060
39C0
1F80
ENDCHAR
STARTCHAR 0399
ENCODING 921
SWIDTH 315 0
DWIDTH 7 0
BBX 5 14 1 0
BITMAP
F8
20
20
20
20
20
20
20
20
20
20
20
F8
F8
ENDCHAR
STARTCHAR 039A
ENCODING 922
SWIDTH 540 0
DWIDTH 12 0
BBX 10 14 1 0
BITMAP
C300
C300
C600
CC00
D800
D800
F800
F800
EC00
C600
C200
C300
C180
C0C0
ENDCHAR
STARTCHAR 039B
ENCODING 923
SWIDTH 630 0
DWIDTH 14 0
BBX 12 14 1 0
BITMAP
0600
0700
0F00
0D00
0980
1980
18C0
30C0
3040
2060
6060
6020
4030
C030
ENDCHAR
STARTCHAR 039C
ENCODING 924
SWIDTH 630 0
DWIDTH 14 0
BBX 12 14 1 0
BITMAP
C030
C030
E070
E070
F070
F0D0
D0D0
D890
D990
C990
CD10
CF10
C710
C610
ENDCHAR
STARTCHAR 039D
ENCODING 925
SWIDTH 585 0
DWIDTH 13 0
BBX 11 14 1 0
BITMAP
C020
E020
F020
F020
D820
CC20
C420
C620
C320
C1A0
C1A0
C0E0
C060
C060
ENDCHAR
STARTCHAR 039E
ENCODING 926
SWIDTH 495 0
DWIDTH 11 0
BBX 9 14 1 0
BITMAP
FF80
0000
0000
0000
0000
0000
3F00
3F00
0000
0000
0000
0000
FF80
FF80
ENDCHAR
STARTCHAR 039F
ENCODING 927
SWIDTH 630 0
DWIDTH 14 0
BBX 12 15 1 0
BITMAP
0600
1F80
30C0
6060
6020
C030
C030
C030
C030
C030
C030
6060
6060
39C0
1F80
ENDCHAR
STARTCHAR 03A0
ENCODING 928
SWIDTH 495 0
DWIDTH 11 0
BBX 9 14 1 0
BITMAP
FF80
C080
C080
C080
C080
C080
C080
C080
C080
C080
C080
C080
C080
C080
ENDCHAR
STARTCHAR 03A1
ENCODING 929
SWIDTH 450 0
DWIDTH 10 0
BBX 9 14 1 0
BITMAP
FE00
C700
C100
C180
C180
C300
FF00
FC00
C000
C000
C000
C000
C000
C000
ENDCHAR
STARTCHAR 03A3
ENCODING 931
SWIDTH 495 0
DWIDTH 11 0
BBX 9 14 1 0
BITMAP
FF80
C000
6000
3000
3000
1800
0C00
1800
1800
3000
6000
6000
FF80
FF80
ENDCHAR
STARTCHAR 03A4
ENCODING 932
SWIDTH 495 0
DWIDTH 11 0
BBX 9 14 1 0
BITMAP
FF80
0800
0800
0800
0800
0800
0800
0800
0800
0800
0800
0800
0800
0800
ENDCHAR
STARTCHAR 03A5
ENCODING 933
SWIDTH 630 0
DWIDTH 14 0
BBX 11 14 2 0
BITMAP
C060
C0C0
6180
3300
3300
1E00
0C00
0C00
0C00
0C00
0C00
0C00
0C00
0C00
ENDCHAR
STARTCHAR 03A6
ENCODING 934
SWIDTH 585 0
DWIDTH 13 0
BBX 11 14 1 0
BITMAP
1F00
0400
0400
3F80
75C0
C460
C460
C460
C460
7FC0
1F00
0400
1F00
1F00
ENDCHAR
STARTCHAR 03A7
ENCODING 935
SWIDTH 630 0
DWIDTH 14 0
BBX 12 14 1 0
BITMAP
6030
6060
30C0
1980
1980
0F00
0600
0700
0F00
1980
18C0
30C0
6060
C030
ENDCHAR
STARTCHAR 03A8
ENCODING 936
SWIDTH 585 0
DWIDTH 13 0
BBX 11 14 1 0
BITMAP
C460
C460
C460
C460
4440
64C0
3F80
0E00
0400
0400
0400
0400
0400
0400
ENDCHAR
STARTCHAR 03A9
ENCODING 937
SWIDTH 630 0
DWIDTH 14 0
BBX 12 15 1 0
BITMAP
0600
1F80
30C0
6060
6020
C030
C030
C030
C030
C030
C030
6060
7060
F9F0
F9F0
ENDCHAR
STARTCHAR 03AA
ENCODING 938
SWIDTH 315 0
DWIDTH 7 0
BBX 6 18 0 0
BITMAP
EC
EC
00
00
7C
10
10
10
10
10
10
10
10
10
10
10
7C
7C
ENDCHAR
STARTCHAR 03AB
ENCODING 939
SWIDTH 630 0
DWIDTH 14 0
BBX 11 18 2 0
BITMAP
3300
3300
0000
0000
C060
C0C0
6180
3300
3300
1E00
0C00
0C00
0C00
0C00
0C00
0C00
0C00
0C00
ENDCHAR
STARTCHAR 03AC
ENCODING 940
SWIDTH 585 0
DWIDTH 13 0
BBX 11 14 1 0
BITMAP
0300
0400
0800
0000
3E60
7740
43C0
C1C0
C180
C180
C1C0
43C0
7740
3E60
ENDCHAR
STARTCHAR 03AD
ENCODING 941
SWIDTH 360 0
DWIDTH 8 0
BBX 7 14 1 0
BITMAP
18
10
20
00
78
6C
4C
60
70
E0
C0
C6
EC
78
ENDCHAR
STARTCHAR 03AE
ENCODING 942
SWIDTH 450 0
DWIDTH 10 0
BBX 9 19 1 -5
BITMAP
0C00
0800
1000
0000
DE00
F700
E100
C180
C180
C180
C180
C180
C180
C180
0180
0180
0180
0180
0080
ENDCHAR
STARTCHAR 03AF
ENCODING 943
SWIDTH 225 0
DWIDTH 5 0
BBX 3 14 1 0
BITMAP
60
80
00
00
C0
C0
C0
C0
C0
C0
C0
C0
E0
E0
ENDCHAR
STARTCHAR 03B0
ENCODING 944
SWIDTH 450 0
DWIDTH 10 0
BBX 9 16 1 0
BITMAP
0600
0400
2E00
7600
2000
0000
C180
C180
C180
C180
C180
C180
C180
C100
7700
3E00
ENDCHAR
STARTCHAR 03B1
ENCODING 945
SWIDTH 585 0
DWIDTH 13 0
BBX 11 10 1 0
BITMAP
3E60
7740
43C0
C1C0
C180
C180
C1C0
43C0
7740
3E60
ENDCHAR
STARTCHAR 03B2
ENCODING 946
SWIDTH 450 0
DWIDTH 10 0
BBX 8 20 1 -5
BITMAP
10
7C
66
C3
C3
C3
CE
CE
C7
C3
C1
C1
C3
E6
FC
C0
C0
C0
C0
40
ENDCHAR
STARTCHAR 03B3
ENCODING 947
SWIDTH 495 0
DWIDTH 11 0
BBX 9 15 1 -5
BITMAP
C080
6180
6180
3100
3300
1300
1E00
1E00
0C00
0C00
0C00
1E00
1E00
1E00
0400
ENDCHAR
STARTCHAR 03B4
ENCODING 948
SWIDTH 450 0
DWIDTH 10 0
BBX 9 14 1 0
BITMAP
1F00
1B00
1000
1800
3C00
7600
4300
C180
C180
C180
C180
4300
7700
3E00
ENDCHAR
STARTCHAR 03B5
ENCODING 949
SWIDTH 360 0
DWIDTH 8 0
BBX 7 10 1 0
BITMAP
78
6C
4C
60
70
E0
C0
C6
EC
78
ENDCHAR
STARTCHAR 03B6
ENCODING 950
SWIDTH 405 0
DWIDTH 9 0
BBX 7 18 1 -4
BITMAP
FE
30
60
40
C0
C0
C0
C0
C0
C0
40
60
38
1E
06
02
06
0E
ENDCHAR
STARTCHAR 03B7
ENCODING 951
SWIDTH 450 0
DWIDTH 10 0
BBX 9 15 1 -5
BITMAP
DE00
F700
E100
C180
C180
C180
C180
C180
C180
C180
0180
0180
0180
0180
0080
ENDCHAR
STARTCHAR 03B8
ENCODING 952
SWIDTH 450 0
DWIDTH 10 0
BBX 9 15 1 0
BITMAP
0800
3E00
6600
6300
4100
C180
C180
FF80
FF80
C180
C100
4100
6300
3600
1C00
ENDCHAR
STARTCHAR 03B9
ENCODING 953
SWIDTH 225 0
DWIDTH 5 0
BBX 3 10 1 0
BITMAP
C0
C0
C0
C0
C0
C0
C0
C0
E0
E0
ENDCHAR
STARTCHAR 03BA
ENCODING 954
SWIDTH 405 0
DWIDTH 9 0
BBX 7 10 1 0
BITMAP
CC
CC
D8
F0
F0
F8
D8
CC
C6
C6
ENDCHAR
STARTCHAR 03BB
ENCODING 955
SWIDTH 495 0
DWIDTH 11 0
BBX 9 15 1 0
BITMAP
4000
7000
1800
1800
0800
0C00
1C00
1C00
3600
3600
2200
6300
6300
4180
C180
ENDCHAR
STARTCHAR 03BC
ENCODING 956
SWIDTH 450 0
DWIDTH 10 0
BBX 9 15 1 -5
BITMAP
C180
C180
C180
C180
C180
C180
C180
C380
F780
FD80
C000
C000
C000
C000
4000
ENDCHAR
STARTCHAR 03BD
ENCODING 957
SWIDTH 405 0
DWIDTH 9 0
BBX 8 10 1 0
BITMAP
CE
47
63
63
22
36
36
1C
1C
0C
ENDCHAR
STARTCHAR 03BE
ENCODING 958
SWIDTH 405 0
DWIDTH 9 0
BBX 7 18 1 -4
BITMAP
FE
70
40
40
60
78
3C
60
C0
C0
C0
C0
78
3E
06
02
06
0E
ENDCHAR
STARTCHAR 03BF
ENCODING 959
SWIDTH 450 0
DWIDTH 10 0
BBX 9 10 1 0
BITMAP
3E00
7700
4300
C180
C180
C180
C180
4300
7700
3E00
ENDCHAR
STARTCHAR 03C0
ENCODING 960
SWIDTH 450 0
DWIDTH 10 0
BBX 9 10 1 0
BITMAP
FF80
FF80
2300
2300
2300
2300
2300
6300
E300
C300
ENDCHAR
STARTCHAR 03C1
ENCODING 961
SWIDTH 450 0
DWIDTH 10 0
BBX 9 15 1 -5
BITMAP
3E00
7700
4300
C180
C180
C180
C180
C300
F700
FE00
C000
C000
C000
C000
4000
ENDCHAR
STARTCHAR 03C2
ENCODING 962
SWIDTH 450 0
DWIDTH 10 0
BBX 8 14 1 -4
BITMAP
3F
7E
60
C0
C0
C0
C0
60
78
3E
06
02
06
0E
ENDCHAR
STARTCHAR 03C3
ENCODING 963
SWIDTH 495 0
DWIDTH 11 0
BBX 10 10 1 0
BITMAP
1FC0
7F80
6300
C180
C180
C180
C180
4300
7700
3E00
ENDCHAR
STARTCHAR 03C4
ENCODING 964
SWIDTH 360 0
DWIDTH 8 0
BBX 7 10 1 0
BITMAP
FE
FE
10
10
10
10
10
10
1C
1C
ENDCHAR
STARTCHAR 03C5
ENCODING 965
SWIDTH 450 0
DWIDTH 10 0
BBX 9 10 1 0
BITMAP
C180
C180
C180
C180
C180
C180
C180
C100
7700
3E00
ENDCHAR
STARTCHAR 03C6
ENCODING 966
SWIDTH 585 0
DWIDTH 13 0
BBX 11 14 1 -5
BITMAP
1380
37C0
6660
C460
C460
C460
C460
64C0
7FC0
1F00
0400
0400
0400
0400
ENDCHAR
STARTCHAR 03C7
ENCODING 967
SWIDTH 405 0
DWIDTH 9 0
BBX 7 14 1 -4
BITMAP
C6
46
6C
6C
28
38
38
18
38
38
6C
6C
44
C6
ENDCHAR
STARTCHAR 03C8
ENCODING 968
SWIDTH 450 0
DWIDTH 10 0
BBX 9 14 1 -5
BITMAP
C980
C980
C980
C980
C980
C980
C980
C900
7F00
3E00
0800
0800
0800
0800
ENDCHAR
STARTCHAR 03C9
ENCODING 969
SWIDTH 585 0
DWIDTH 13 0
BBX 11 10 1 0
BITMAP
20C0
6060
C060
C020
C020
C620
C620
C660
6F60
39C0
ENDCHAR
STARTCHAR 03CA
ENCODING 970
SWIDTH 225 0
DWIDTH 5 0
BBX 6 14 -1 0
BITMAP
CC
CC
00
00
30
30
30
30
30
30
30
30
38
38
ENDCHAR
STARTCHAR 03CB
ENCODING 971
SWIDTH 450 0
DWIDTH 10 0
BBX 9 14 1 0
BITMAP
2600
7600
0000
0000
C180
C180
C180
C180
C180
C180
C180
C100
7700
3E00
ENDCHAR
STARTCHAR 03CC
ENCODING 972
SWIDTH 450 0
DWIDTH 10 0
BBX 9 14 1 0
BITMAP
0C00
0800
1000
0000
3E00
7700
4300
C180
C180
C180
C180
4300
7700
3E00
ENDCHAR
STARTCHAR 03CD
ENCODING 973
SWIDTH 450 0
DWIDTH 10 0
BBX 9 14 1 0
BITMAP
0C00
0800
1000
0000
C180
C180
C180
C180
C180
C180
C180
C100
7700
3E00
ENDCHAR
STARTCHAR 03CE
ENCODING 974
SWIDTH 585 0
DWIDTH 13 0
BBX 11 14 1 0
BITMAP
0300
0400
0000
0000
20C0
6060
C060
C020
C020
C620
C620
C660
6F60
39C0
ENDCHAR
STARTCHAR 03CF
ENCODING 975
SWIDTH 540 0
DWIDTH 12 0
BBX 10 18 1 -4
BITMAP
C300
C300
C600
CC00
D800
D800
F800
F800
EC00
C600
C200
C300
C180
C0C0
0380
0700
0C00
0800
ENDCHAR
STARTCHAR 03D0
ENCODING 976
SWIDTH 450 0
DWIDTH 10 0
BBX 8 15 1 0
BITMAP
10
7C
66
C3
C3
C3
CE
CE
C7
C3
C1
C1
C3
66
3C
ENDCHAR
STARTCHAR 03D1
ENCODING 977
SWIDTH 630 0
DWIDTH 14 0
BBX 12 15 1 0
BITMAP
0200
0780
0D80
0CC0
0C40
E470
6670
33E0
3060
3060
3060
1040
18C0
0D80
0700
ENDCHAR
STARTCHAR 03D2
ENCODING 978
SWIDTH 540 0
DWIDTH 12 0
BBX 10 15 1 0
BITMAP
8000
E1C0
3380
1B00
0E00
0C00
0C00
0C00
0C00
0C00
0C00
0C00
0C00
0C00
0C00
ENDCHAR
STARTCHAR 03D3
ENCODING 979
SWIDTH 765 0
DWIDTH 17 0
BBX 15 15 1 0
BITMAP
0400
670E
419C
80F0
0070
0060
0060
0060
0060
0060
0060
0060
0060
0060
0060
ENDCHAR
STARTCHAR 03D4
ENCODING 980
SWIDTH 540 0
DWIDTH 12 0
BBX 10 18 1 0
BITMAP
3300
3300
0000
8000
E1C0
3380
1B00
0E00
0C00
0C00
0C00
0C00
0C00
0C00
0C00
0C00
0C00
0C00
ENDCHAR
STARTCHAR 03D5
ENCODING 981
SWIDTH 450 0
DWIDTH 10 0
BBX 9 18 1 -5
BITMAP
0800
0800
0800
0800
3E00
7F00
4B00
C980
C980
C980
C980
4B00
7F00
3E00
0800
0800
0800
0800
ENDCHAR
STARTCHAR 03D6
ENCODING 982
SWIDTH 585 0
DWIDTH 13 0
BBX 11 10 1 0
BITMAP
FFE0
FFE0
C060
C020
C020
C620
C620
C660
6F60
39C0
ENDCHAR
STARTCHAR 03D7
ENCODING 983
SWIDTH 630 0
DWIDTH 14 0
BBX 13 14 1 -4
BITMAP
F078
58D0
1980
1B80
1B80
1E80
1C80
1C80
58D0
F078
0018
0018
0018
0070
ENDCHAR
STARTCHAR 03D8
ENCODING 984
SWIDTH 630 0
DWIDTH 14 0
BBX 12 19 1 -4
BITMAP
0600
1F80
30C0
6060
6020
C030
C030
C030
C030
C030
C030
6060
6060
39C0
1F80
0600
0600
0600
0600
ENDCHAR
STARTCHAR 03D9
ENCODING 985
SWIDTH 450 0
DWIDTH 10 0
BBX 9 14 1 -5
BITMAP
3E00
7700
4300
C180
C180
C180
C180
4300
7700
3E00
0800
0800
0800
0800
ENDCHAR
STARTCHAR 03DA
ENCODING 986
SWIDTH 585 0
DWIDTH 13 0
BBX 11 20 1 -5
BITMAP
0600
1F80
30C0
6060
C000
C000
C000
C000
C000
6000
7000
1C00
0F00
0180
00C0
2040
3040
38C0
1F80
0600
ENDCHAR
STARTCHAR 03DB
ENCODING 987
SWIDTH 495 0
DWIDTH 11 0
BBX 8 14 1 -4
BITMAP
3E
77
43
C0
C0
C0
C0
60
78
3E
06
02
06
0E
ENDCHAR
STARTCHAR 03DC
ENCODING 988
SWIDTH 495 0
DWIDTH 11 0
BBX 9 14 1 0
BITMAP
FF80
C000
C000
C000
FE00
FE00
C000
C000
C000
C000
C000
C000
C000
C000
ENDCHAR
STARTCHAR 03DD
ENCODING 989
SWIDTH 360 0
DWIDTH 8 0
BBX 7 15 1 -5
BITMAP
FE
FE
C0
C0
FE
FE
C0
C0
C0
C0
C0
C0
C0
C0
40
ENDCHAR
STARTCHAR 03DE
ENCODING 990
SWIDTH 450 0
DWIDTH 10 0
BBX 9 15 1 0
BITMAP
4000
E000
3000
1000
3000
3000
2000
7F00
7F00
0600
0600
0400
0400
0600
0380
ENDCHAR
STARTCHAR 03DF
ENCODING 991
SWIDTH 360 0
DWIDTH 8 0
BBX 7 14 1 0
BITMAP
10
30
30
20
60
60
7E
FC
0C
08
18
18
10
30
ENDCHAR
STARTCHAR 03E0
ENCODING 992
SWIDTH 585 0
DWIDTH 13 0
BBX 11 15 1 0
BITMAP
0400
3F00
6180
C3C0
4740
0C60
18E0
31E0
6360
4660
0C60
18C0
70C0
2380
0700
ENDCHAR
STARTCHAR 03E1
ENCODING 993
SWIDTH 405 0
DWIDTH 9 0
BBX 7 14 1 -5
BITMAP
70
D8
0C
1C
3E
76
46
0E
1E
36
24
0C
0C
18
ENDCHAR
STARTCHAR 03E2
ENCODING 994
SWIDTH 765 0
DWIDTH 17 0
BBX 16 19 1 -5
BITMAP
C183
C183
C183
C183
C183
C183
C183
C183
C183
C183
C183
43C7
77EF
3E7F
0003
0782
0DC6
087C
0010
ENDCHAR
STARTCHAR 03E3
ENCODING 995
SWIDTH 585 0
DWIDTH 13 0
BBX 12 15 0 -5
BITMAP
6310
6310
6310
6310
6310
6310
6310
6310
37B0
3CF0
0010
7C30
6E70
C3E0
0080
ENDCHAR
STARTCHAR 03E4
ENCODING 996
SWIDTH 450 0
DWIDTH 10 0
BBX 8 14 1 1
BITMAP
31
61
C1
C1
C1
C1
C1
63
7F
1D
01
01
01
01
ENDCHAR
STARTCHAR 03E5
ENCODING 997
SWIDTH 450 0
DWIDTH 10 0
BBX 8 14 1 -5
BITMAP
31
71
41
C1
C1
C1
C1
43
77
3F
01
01
01
01
ENDCHAR
STARTCHAR 03E6
ENCODING 998
SWIDTH 450 0
DWIDTH 10 0
BBX 8 14 1 0
BITMAP
C0
C0
C0
C0
FC
F6
C3
C1
C1
C1
01
03
06
0C
ENDCHAR
STARTCHAR 03E7
ENCODING 999
SWIDTH 630 0
DWIDTH 14 0
BBX 12 15 1 0
BITMAP
0200
0780
0D80
0CC0
0C40
0470
0670
03E0
0060
0060
1060
1040
38C0
6D80
C700
ENDCHAR
STARTCHAR 03E8
ENCODING 1000
SWIDTH 450 0
DWIDTH 10 0
BBX 9 15 1 0
BITMAP
0800
3E00
6300
4300
0100
0300
0600
1C00
7000
E000
C000
C180
C100
7700
3E00
ENDCHAR
STARTCHAR 03E9
ENCODING 1001
SWIDTH 360 0
DWIDTH 8 0
BBX 7 10 1 0
BITMAP
78
7C
C4
0C
38
60
C0
C6
EC
78
ENDCHAR
STARTCHAR 03EA
ENCODING 1002
SWIDTH 720 0
DWIDTH 16 0
BBX 14 14 1 0
BITMAP
1870
0C60
0CC0
0780
0380
0300
0780
06C0
0CC0
1860
3030
3018
FFFC
FFFC
ENDCHAR
STARTCHAR 03EB
ENCODING 1003
SWIDTH 495 0
DWIDTH 11 0
BBX 10 10 1 0
BITMAP
3300
1E00
1E00
0C00
1E00
3600
3300
6180
FFC0
FFC0
ENDCHAR
STARTCHAR 03EC
ENCODING 1004
SWIDTH 450 0
DWIDTH 10 0
BBX 10 16 1 0
BITMAP
00C0
01C0
3F80
7000
4000
C000
FE00
F700
C300
C180
C180
C180
C180
4300
7700
3E00
ENDCHAR
STARTCHAR 03ED
ENCODING 1005
SWIDTH 450 0
DWIDTH 10 0
BBX 9 14 1 0
BITMAP
0300
1E00
7C00
6000
FE00
F700
C300
C180
C180
C180
C180
4300
7700
3E00
ENDCHAR
STARTCHAR 03EE
ENCODING 1006
SWIDTH 495 0
DWIDTH 11 0
BBX 9 14 1 0
BITMAP
0800
0800
FF80
0800
0800
0800
0800
0800
0800
0800
0800
0800
0800
0800
ENDCHAR
STARTCHAR 03EF
ENCODING 1007
SWIDTH 360 0
DWIDTH 8 0
BBX 7 14 1 0
BITMAP
10
10
10
10
FE
FE
10
10
10
10
10
10
10
10
ENDCHAR
STARTCHAR 03F0
ENCODING 1008
SWIDTH 630 0
DWIDTH 14 0
BBX 13 10 1 0
BITMAP
F078
58D0
1980
1B80
1B80
1E80
1C80
1C80
58D0
F078
ENDCHAR
STARTCHAR 03F1
ENCODING 1009
SWIDTH 450 0
DWIDTH 10 0
BBX 9 15 1 -5
BITMAP
3E00
7700
4300
C180
C180
C180
C180
C300
F700
FE00
C000
C000
E300
7F00
0800
ENDCHAR
STARTCHAR 03F2
ENCODING 1010
SWIDTH 450 0
DWIDTH 10 0
BBX 8 10 1 0
BITMAP
3E
77
43
C0
C0
C0
C0
43
77
3E
ENDCHAR
STARTCHAR 03F3
ENCODING 1011
SWIDTH 135 0
DWIDTH 3 0
BBX 5 19 -2 -5
BITMAP
18
18
00
00
18
18
18
18
18
18
18
18
18
18
18
18
18
F0
40
ENDCHAR
STARTCHAR 03F4
ENCODING 1012
SWIDTH 630 0
DWIDTH 14 0
BBX 12 15 1 0
BITMAP
0600
1F80
30C0
6060
6020
C030
C030
FFF0
FFF0
C030
C030
6060
6060
39C0
1F80
ENDCHAR
STARTCHAR 03F5
ENCODING 1013
SWIDTH 450 0
DWIDTH 10 0
BBX 8 10 1 0
BITMAP
3E
77
43
C0
FC
FC
C0
43
77
3E
ENDCHAR
STARTCHAR 03F6
ENCODING 1014
SWIDTH 450 0
DWIDTH 10 0
BBX 8 10 1 0
BITMAP
3C
6E
C3
03
1F
1F
03
C3
66
3C
ENDCHAR
STARTCHAR 03F7
ENCODING 1015
SWIDTH 450 0
DWIDTH 10 0
BBX 9 14 1 0
BITMAP
C000
C000
C000
FE00
FF00
C100
C180
C180
C300
FF00
FC00
C000
C000
C000
ENDCHAR
STARTCHAR 03F8
ENCODING 1016
SWIDTH 450 0
DWIDTH 10 0
BBX 9 19 1 -5
BITMAP
C000
C000
C000
C000
FE00
F700
C300
C180
C180
C180
C180
C300
F700
FE00
C000
C000
C000
C000
4000
ENDCHAR
STARTCHAR 03F9
ENCODING 1017
SWIDTH 585 0
DWIDTH 13 0
BBX 11 15 1 0
BITMAP
0600
1F80
30C0
6060
6000
C000
C000
C000
C000
C000
C000
6040
6060
39C0
1F80
ENDCHAR
STARTCHAR 03FA
ENCODING 1018
SWIDTH 630 0
DWIDTH 14 0
BBX 12 14 1 0
BITMAP
E030
E070
F0F0
D9B0
D9B0
CF30
C630
C230
C030
C030
C030
C030
C030
C030
ENDCHAR
STARTCHAR 03FB
ENCODING 1019
SWIDTH 495 0
DWIDTH 11 0
BBX 9 15 1 -5
BITMAP
C180
C180
E380
E380
E380
F780
F780
DD80
DD80
CD80
C000
C000
C000
C000
4000
ENDCHAR
STARTCHAR 03FC
ENCODING 1020
SWIDTH 450 0
DWIDTH 10 0
BBX 11 15 -1 -5
BITMAP
0F80
1DC0
10C0
3060
3060
3060
3060
30C0
3DC0
3F80
3000
F800
3000
3000
1000
ENDCHAR
STARTCHAR 03FD
ENCODING 1021
SWIDTH 585 0
DWIDTH 13 0
BBX 11 15 1 0
BITMAP
0400
3F00
6180
C0C0
4040
0060
0060
0060
0060
0060
0060
40C0
E0C0
7380
3F00
ENDCHAR
STARTCHAR 03FE
ENCODING 1022
SWIDTH 585 0
DWIDTH 13 0
BBX 11 15 1 0
BITMAP
0600
1F80
30C0
6060
6000
C000
C000
C600
C600
C000
C000
6040
6060
39C0
1F80
ENDCHAR
STARTCHAR 03FF
ENCODING 1023
SWIDTH 585 0
DWIDTH 13 0
BBX 11 15 1 0
BITMAP
0400
3F00
6180
C0C0
4040
0060
0060
0C60
0C60
0060
0060
40C0
E0C0
7380
3F00
ENDCHAR
STARTCHAR 0400
ENCODING 1024
SWIDTH 495 0
DWIDTH 11 0
BBX 9 19 1 0
BITMAP
3000
1800
0800
0400
0000
FF80
C000
C000
C000
C000
C000
FF00
FF00
C000
C000
C000
C000
FF80
FF80
ENDCHAR
STARTCHAR 0401
ENCODING 1025
SWIDTH 495 0
DWIDTH 11 0
BBX 9 18 1 0
BITMAP
3700
3700
0000
0000
FF80
C000
C000
C000
C000
C000
FF00
FF00
C000
C000
C000
C000
FF80
FF80
ENDCHAR
STARTCHAR 0402
ENCODING 1026
SWIDTH 630 0
DWIDTH 14 0
BBX 12 14 1 0
BITMAP
FF80
0800
0800
0800
0BC0
0EE0
0C30
0830
0810
0810
0830
0830
0860
08C0
ENDCHAR
STARTCHAR 0403
ENCODING 1027
SWIDTH 495 0
DWIDTH 11 0
BBX 9 19 1 0
BITMAP
0600
0C00
0800
1000
0000
FF80
C000
C000
C000
C000
C000
C000
C000
C000
C000
C000
C000
C000
C000
ENDCHAR
STARTCHAR 0404
ENCODING 1028
SWIDTH 585 0
DWIDTH 13 0
BBX 11 15 1 0
BITMAP
0600
1F80
30C0
6060
6000
C000
C000
FF00
FF00
C000
C000
6040
6060
39C0
1F80
ENDCHAR
STARTCHAR 0405
ENCODING 1029
SWIDTH 450 0
DWIDTH 10 0
BBX 9 15 1 0
BITMAP
0800
3E00
6300
4300
4000
6000
7000
1C00
0700
0300
0180
C180
C180
7700
3E00
ENDCHAR
STARTCHAR 0406
ENCODING 1030
SWIDTH 315 0
DWIDTH 7 0
BBX 5 14 1 0
BITMAP
F8
20
20
20
20
20
20
20
20
20
20
20
F8
F8
ENDCHAR
STARTCHAR 0407
ENCODING 1031
SWIDTH 315 0
DWIDTH 7 0
BBX 6 18 0 0
BITMAP
EC
EC
00
00
7C
10
10
10
10
10
10
10
10
10
10
10
7C
7C
ENDCHAR
STARTCHAR 0408
ENCODING 1032
SWIDTH 360 0
DWIDTH 8 0
BBX 6 14 1 0
BITMAP
04
04
04
04
04
04
04
04
04
04
04
CC
EC
78
ENDCHAR
STARTCHAR 0409
ENCODING 1033
SWIDTH 855 0
DWIDTH 19 0
BBX 17 14 1 0
BITMAP
3FC000
20C000
20C000
20C000
20C000
20C000
20FF00
20C380
20C180
20C080
20C080
60C180
E0FF00
C0FE00
ENDCHAR
STARTCHAR 040A
ENCODING 1034
SWIDTH 810 0
DWIDTH 18 0
BBX 17 14 1 0
BITMAP
C08000
C08000
C08000
C08000
C08000
C08000
FFFE00
FF8300
C08180
C08180
C08180
C08300
C0FF00
C0FC00
ENDCHAR
STARTCHAR 040B
ENCODING 1035
SWIDTH 630 0
DWIDTH 14 0
BBX 13 14 1 0
BITMAP
FF80
0800
0800
0800
0BE0
0F70
0C30
0C10
0C10
0818
0818
0818
0818
0818
ENDCHAR
STARTCHAR 040C
ENCODING 1036
SWIDTH 495 0
DWIDTH 11 0
BBX 9 19 1 0
BITMAP
0600
0400
0800
0000
0080
C380
C600
C400
CC00
CC00
CC00
F800
F800
CC00
C600
C600
C300
C180
C080
ENDCHAR
STARTCHAR 040D
ENCODING 1037
SWIDTH 495 0
DWIDTH 11 0
BBX 9 19 1 0
BITMAP
3000
1800
0800
0400
0000
C080
C080
C080
C180
C380
C680
CC80
D880
F080
E080
C080
C080
C080
C080
ENDCHAR
STARTCHAR 040E
ENCODING 1038
SWIDTH 540 0
DWIDTH 12 0
BBX 10 19 1 0
BITMAP
1080
1980
0F00
0000
0000
20C0
30C0
3080
1980
1980
0900
0F00
0F00
0600
0600
0400
4C00
FC00
7800
ENDCHAR
STARTCHAR 040F
ENCODING 1039
SWIDTH 495 0
DWIDTH 11 0
BBX 9 17 1 -3
BITMAP
C080
C080
C080
C080
C080
C080
C080
C080
C080
C080
C080
C080
FF80
FF80
0800
0800
0800
ENDCHAR
STARTCHAR 0410
ENCODING 1040
SWIDTH 630 0
DWIDTH 14 0
BBX 12 14 1 0
BITMAP
0600
0700
0F00
0D00
0980
1980
18C0
3FC0
3FC0
2060
6060
6020
4030
C030
ENDCHAR
STARTCHAR 0411
ENCODING 1041
SWIDTH 495 0
DWIDTH 11 0
BBX 9 14 1 0
BITMAP
FF00
C000
C000
C000
C000
C000
FF00
C380
C180
C080
C180
C180
FF00
FE00
ENDCHAR
STARTCHAR 0412
ENCODING 1042
SWIDTH 495 0
DWIDTH 11 0
BBX 9 14 1 0
BITMAP
FE00
C300
C180
C180
C180
C700
FF00
C380
C180
C080
C180
C180
FF00
FE00
ENDCHAR
STARTCHAR 0413
ENCODING 1043
SWIDTH 495 0
DWIDTH 11 0
BBX 9 14 1 0
BITMAP
FF80
C000
C000
C000
C000
C000
C000
C000
C000
C000
C000
C000
C000
C000
ENDCHAR
STARTCHAR 0414
ENCODING 1044
SWIDTH 675 0
DWIDTH 15 0
BBX 13 17 1 -3
BITMAP
1FE0
1820
1820
1820
1820
1820
1820
1820
1820
1820
1820
1820
FFF8
FFF8
C018
C018
C018
ENDCHAR
STARTCHAR 0415
ENCODING 1045
SWIDTH 495 0
DWIDTH 11 0
BBX 9 14 1 0
BITMAP
FF80
C000
C000
C000
C000
C000
FF00
FF00
C000
C000
C000
C000
FF80
FF80
ENDCHAR
STARTCHAR 0416
ENCODING 1046
SWIDTH 900 0
DWIDTH 20 0
BBX 18 15 1 0
BITMAP
400080
70C380
18C600
08C600
0CC400
0CCC00
0CCC00
07F800
07F800
0CCC00
18C600
18C300
30C300
60C180
C0C0C0
ENDCHAR
STARTCHAR 0417
ENCODING 1047
SWIDTH 495 0
DWIDTH 11 0
BBX 10 15 1 0
BITMAP
0C00
3F00
6180
4180
0080
0180
0780
0F00
0180
00C0
00C0
C0C0
C0C0
7380
3F00
ENDCHAR
STARTCHAR 0418
ENCODING 1048
SWIDTH 495 0
DWIDTH 11 0
BBX 9 14 1 0
BITMAP
C080
C080
C080
C180
C380
C680
CC80
D880
F080
E080
C080
C080
C080
C080
ENDCHAR
STARTCHAR 0419
ENCODING 1049
SWIDTH 495 0
DWIDTH 11 0
BBX 9 19 1 0
BITMAP
2300
2200
1E00
0000
0000
C080
C080
C080
C180
C380
C680
CC80
D880
F080
E080
C080
C080
C080
C080
ENDCHAR
STARTCHAR 041A
ENCODING 1050
SWIDTH 495 0
DWIDTH 11 0
BBX 9 15 1 0
BITMAP
0080
C380
C600
C400
CC00
CC00
CC00
F800
F800
CC00
C600
C600
C300
C180
C080
ENDCHAR
STARTCHAR 041B
ENCODING 1051
SWIDTH 495 0
DWIDTH 11 0
BBX 10 14 1 0
BITMAP
3FC0
20C0
20C0
20C0
20C0
20C0
20C0
20C0
20C0
20C0
20C0
60C0
E0C0
C0C0
ENDCHAR
STARTCHAR 041C
ENCODING 1052
SWIDTH 630 0
DWIDTH 14 0
BBX 12 14 1 0
BITMAP
C030
C030
E070
E070
F070
F0D0
D0D0
D890
D990
C990
CD10
CF10
C710
C610
ENDCHAR
STARTCHAR 041D
ENCODING 1053
SWIDTH 495 0
DWIDTH 11 0
BBX 9 14 1 0
BITMAP
C080
C080
C080
C080
C080
C080
FF80
FF80
C080
C080
C080
C080
C080
C080
ENDCHAR
STARTCHAR 041E
ENCODING 1054
SWIDTH 630 0
DWIDTH 14 0
BBX 12 15 1 0
BITMAP
0600
1F80
30C0
6060
6020
C030
C030
C030
C030
C030
C030
6060
6060
39C0
1F80
ENDCHAR
STARTCHAR 041F
ENCODING 1055
SWIDTH 495 0
DWIDTH 11 0
BBX 9 14 1 0
BITMAP
FF80
C080
C080
C080
C080
C080
C080
C080
C080
C080
C080
C080
C080
C080
ENDCHAR
STARTCHAR 0420
ENCODING 1056
SWIDTH 450 0
DWIDTH 10 0
BBX 9 14 1 0
BITMAP
FE00
C700
C100
C180
C180
C300
FF00
FC00
C000
C000
C000
C000
C000
C000
ENDCHAR
STARTCHAR 0421
ENCODING 1057
SWIDTH 585 0
DWIDTH 13 0
BBX 11 15 1 0
BITMAP
0600
1F80
30C0
6060
6000
C000
C000
C000
C000
C000
C000
6040
6060
39C0
1F80
ENDCHAR
STARTCHAR 0422
ENCODING 1058
SWIDTH 495 0
DWIDTH 11 0
BBX 9 14 1 0
BITMAP
FF80
0800
0800
0800
0800
0800
0800
0800
0800
0800
0800
0800
0800
0800
ENDCHAR
STARTCHAR 0423
ENCODING 1059
SWIDTH 540 0
DWIDTH 12 0
BBX 10 14 1 0
BITMAP
20C0
30C0
3080
1980
1980
0900
0F00
0F00
0600
0600
0400
4C00
FC00
7800
ENDCHAR
STARTCHAR 0424
ENCODING 1060
SWIDTH 585 0
DWIDTH 13 0
BBX 11 14 1 0
BITMAP
0600
0600
0600
7FC0
6E60
C620
C620
C620
C620
6F60
3FC0
0600
0600
0600
ENDCHAR
STARTCHAR 0425
ENCODING 1061
SWIDTH 630 0
DWIDTH 14 0
BBX 12 14 1 0
BITMAP
6030
6060
30C0
1980
1980
0F00
0600
0700
0F00
1980
18C0
30C0
6060
C030
ENDCHAR
STARTCHAR 0426
ENCODING 1062
SWIDTH 540 0
DWIDTH 12 0
BBX 11 17 1 -3
BITMAP
C080
C080
C080
C080
C080
C080
C080
C080
C080
C080
C080
C080
FFE0
FFE0
0060
0060
0060
ENDCHAR
STARTCHAR 0427
ENCODING 1063
SWIDTH 495 0
DWIDTH 11 0
BBX 10 14 1 0
BITMAP
C0C0
C0C0
C0C0
C0C0
C0C0
40C0
60C0
3FC0
0EC0
00C0
00C0
00C0
00C0
00C0
ENDCHAR
STARTCHAR 0428
ENCODING 1064
SWIDTH 720 0
DWIDTH 16 0
BBX 15 14 1 0
BITMAP
C306
C306
C306
C306
C306
C306
C306
C306
C306
C306
C306
C306
FFFE
FFFE
ENDCHAR
STARTCHAR 0429
ENCODING 1065
SWIDTH 810 0
DWIDTH 18 0
BBX 16 17 1 -3
BITMAP
C306
C306
C306
C306
C306
C306
C306
C306
C306
C306
C306
C306
FFFF
FFFF
0001
0001
0001
ENDCHAR
STARTCHAR 042A
ENCODING 1066
SWIDTH 630 0
DWIDTH 14 0
BBX 12 14 1 0
BITMAP
F800
1800
1800
1800
1800
1800
1FE0
1870
1830
1810
1810
1830
1FE0
1FC0
ENDCHAR
STARTCHAR 042B
ENCODING 1067
SWIDTH 630 0
DWIDTH 14 0
BBX 12 14 1 0
BITMAP
C030
C030
C030
C030
C030
C030
FF30
C3B0
C1B0
C0B0
C1B0
C1B0
FF30
FE30
ENDCHAR
STARTCHAR 042C
ENCODING 1068
SWIDTH 495 0
DWIDTH 11 0
BBX 9 14 1 0
BITMAP
C000
C000
C000
C000
C000
C000
FF00
C380
C180
C080
C180
C180
FF00
FE00
ENDCHAR
STARTCHAR 042D
ENCODING 1069
SWIDTH 585 0
DWIDTH 13 0
BBX 11 15 1 0
BITMAP
0400
3F00
6180
C0C0
4040
0060
0060
1FE0
1FE0
0060
0060
40C0
E0C0
7380
3F00
ENDCHAR
STARTCHAR 042E
ENCODING 1070
SWIDTH 765 0
DWIDTH 17 0
BBX 15 15 1 0
BITMAP
0040
C3F0
C718
CC0C
CC06
C806
D802
F802
F802
D806
C806
CC06
C60C
C738
C1F0
ENDCHAR
STARTCHAR 042F
ENCODING 1071
SWIDTH 495 0
DWIDTH 11 0
BBX 10 14 1 0
BITMAP
1FC0
38C0
60C0
60C0
60C0
30C0
3FC0
0FC0
18C0
18C0
30C0
20C0
60C0
C0C0
ENDCHAR
STARTCHAR 0430
ENCODING 1072
SWIDTH 405 0
DWIDTH 9 0
BBX 7 10 1 0
BITMAP
3C
7E
06
06
3E
FE
C6
C6
EE
7E
ENDCHAR
STARTCHAR 0431
ENCODING 1073
SWIDTH 450 0
DWIDTH 10 0
BBX 9 14 1 0
BITMAP
0300
1E00
7C00
6000
FE00
F700
C300
C180
C180
C180
C180
4300
7700
3E00
ENDCHAR
STARTCHAR 0432
ENCODING 1074
SWIDTH 405 0
DWIDTH 9 0
BBX 7 10 1 0
BITMAP
FC
FC
C6
C6
FC
C6
C6
C6
FE
FC
ENDCHAR
STARTCHAR 0433
ENCODING 1075
SWIDTH 360 0
DWIDTH 8 0
BBX 7 10 1 0
BITMAP
FE
FE
C0
C0
C0
C0
C0
C0
C0
C0
ENDCHAR
STARTCHAR 0434
ENCODING 1076
SWIDTH 585 0
DWIDTH 13 0
BBX 11 13 1 -3
BITMAP
1F80
1F80
1880
1880
1880
1880
1880
1880
FFE0
FFE0
C060
C060
C060
ENDCHAR
STARTCHAR 0435
ENCODING 1077
SWIDTH 450 0
DWIDTH 10 0
BBX 9 10 1 0
BITMAP
3E00
7700
4300
C180
FF80
C000
C000
4300
7700
3E00
ENDCHAR
STARTCHAR 0436
ENCODING 1078
SWIDTH 675 0
DWIDTH 15 0
BBX 14 10 1 0
BITMAP
6318
3330
1360
1360
1BE0
1FE0
3330
6330
6318
C30C
ENDCHAR
STARTCHAR 0437
ENCODING 1079
SWIDTH 360 0
DWIDTH 8 0
BBX 7 10 1 0
BITMAP
78
6C
4C
0C
18
0C
06
C6
EC
78
ENDCHAR
STARTCHAR 0438
ENCODING 1080
SWIDTH 405 0
DWIDTH 9 0
BBX 8 10 1 0
BITMAP
C3
C3
C7
CF
DF
FB
F3
E3
C3
C3
ENDCHAR
STARTCHAR 0439
ENCODING 1081
SWIDTH 405 0
DWIDTH 9 0
BBX 8 14 1 0
BITMAP
46
7C
18
00
C3
C3
C7
CF
DF
FB
F3
E3
C3
C3
ENDCHAR
STARTCHAR 043A
ENCODING 1082
SWIDTH 405 0
DWIDTH 9 0
BBX 8 10 1 0
BITMAP
C6
CC
D8
D8
F8
F8
CC
CC
C6
C3
ENDCHAR
STARTCHAR 043B
ENCODING 1083
SWIDTH 450 0
DWIDTH 10 0
BBX 9 10 1 0
BITMAP
3F80
3F80
2180
2180
2180
2180
2180
6180
E180
C180
ENDCHAR
STARTCHAR 043C
ENCODING 1084
SWIDTH 495 0
DWIDTH 11 0
BBX 9 10 1 0
BITMAP
C180
C180
E380
E380
E380
F780
F780
DD80
DD80
CD80
ENDCHAR
STARTCHAR 043D
ENCODING 1085
SWIDTH 405 0
DWIDTH 9 0
BBX 8 10 1 0
BITMAP
C3
C3
C3
C3
FF
FF
C3
C3
C3
C3
ENDCHAR
STARTCHAR 043E
ENCODING 1086
SWIDTH 450 0
DWIDTH 10 0
BBX 9 10 1 0
BITMAP
3E00
7700
4300
C180
C180
C180
C180
4300
7700
3E00
ENDCHAR
STARTCHAR 043F
ENCODING 1087
SWIDTH 405 0
DWIDTH 9 0
BBX 8 10 1 0
BITMAP
FF
FF
C3
C3
C3
C3
C3
C3
C3
C3
ENDCHAR
STARTCHAR 0440
ENCODING 1088
SWIDTH 450 0
DWIDTH 10 0
BBX 9 15 1 -5
BITMAP
FE00
F700
C300
C180
C180
C180
C180
C300
F700
FE00
C000
C000
C000
C000
4000
ENDCHAR
STARTCHAR 0441
ENCODING 1089
SWIDTH 450 0
DWIDTH 10 0
BBX 8 10 1 0
BITMAP
3E
77
43
C0
C0
C0
C0
43
77
3E
ENDCHAR
STARTCHAR 0442
ENCODING 1090
SWIDTH 360 0
DWIDTH 8 0
BBX 7 10 1 0
BITMAP
FE
FE
10
10
10
10
10
10
10
10
ENDCHAR
STARTCHAR 0443
ENCODING 1091
SWIDTH 495 0
DWIDTH 11 0
BBX 9 15 1 -5
BITMAP
C180
4180
6300
6300
2200
3600
3600
1C00
1C00
0C00
0800
1800
1800
7000
4000
ENDCHAR
STARTCHAR 0444
ENCODING 1092
SWIDTH 585 0
DWIDTH 13 0
BBX 11 19 1 -5
BITMAP
0600
0600
0600
0600
3FC0
6F60
C660
C620
C620
C620
C620
C660
6F60
3FC0
0600
0600
0600
0600
0200
ENDCHAR
STARTCHAR 0445
ENCODING 1093
SWIDTH 495 0
DWIDTH 11 0
BBX 9 10 1 0
BITMAP
C180
6300
3600
1E00
1C00
1C00
1E00
3600
6300
C180
ENDCHAR
STARTCHAR 0446
ENCODING 1094
SWIDTH 495 0
DWIDTH 11 0
BBX 9 13 1 -3
BITMAP
C300
C300
C300
C300
C300
C300
C300
C300
FF80
FF80
0080
0080
0080
ENDCHAR
STARTCHAR 0447
ENCODING 1095
SWIDTH 405 0
DWIDTH 9 0
BBX 7 10 1 0
BITMAP
C2
C2
C2
C2
7E
3E
02
02
02
02
ENDCHAR
STARTCHAR 0448
ENCODING 1096
SWIDTH 540 0
DWIDTH 12 0
BBX 10 10 1 0
BITMAP
CC40
CC40
CC40
CC40
CC40
CC40
CC40
CC40
FFC0
FFC0
ENDCHAR
STARTCHAR 0449
ENCODING 1097
SWIDTH 630 0
DWIDTH 14 0
BBX 12 13 1 -3
BITMAP
CC40
CC40
CC40
CC40
CC40
CC40
CC40
CC40
FFF0
FFF0
0030
0030
0030
ENDCHAR
STARTCHAR 044A
ENCODING 1098
SWIDTH 495 0
DWIDTH 11 0
BBX 10 10 1 0
BITMAP
F800
F800
1800
1800
1F80
19C0
18C0
18C0
1F80
1F00
ENDCHAR
STARTCHAR 044B
ENCODING 1099
SWIDTH 495 0
DWIDTH 11 0
BBX 9 10 1 0
BITMAP
C080
C080
C080
C080
FC80
CC80
C680
C680
FC80
F880
ENDCHAR
STARTCHAR 044C
ENCODING 1100
SWIDTH 360 0
DWIDTH 8 0
BBX 7 10 1 0
BITMAP
C0
C0
C0
C0
FC
CC
C6
C6
FC
F8
ENDCHAR
STARTCHAR 044D
ENCODING 1101
SWIDTH 450 0
DWIDTH 10 0
BBX 8 10 1 0
BITMAP
3C
6E
C3
03
1F
1F
03
C3
66
3C
ENDCHAR
STARTCHAR 044E
ENCODING 1102
SWIDTH 630 0
DWIDTH 14 0
BBX 12 10 1 0
BITMAP
C7C0
CEE0
CC20
C830
F830
F830
C830
CC30
CEE0
C7C0
ENDCHAR
STARTCHAR 044F
ENCODING 1103
SWIDTH 405 0
DWIDTH 9 0
BBX 7 10 1 0
BITMAP
1E
3E
62
62
3E
3E
32
22
62
C2
ENDCHAR
STARTCHAR 0450
ENCODING 1104
SWIDTH 450 0
DWIDTH 10 0
BBX 9 14 1 0
BITMAP
3000
0800
0000
0000
3E00
7700
4300
C180
FF80
C000
C000
4300
7700
3E00
ENDCHAR
STARTCHAR 0451
ENCODING 1105
SWIDTH 450 0
DWIDTH 10 0
BBX 9 14 1 0
BITMAP
2600
7600
0000
0000
3E00
7700
4300
C180
FF80
C000
C000
4300
7700
3E00
ENDCHAR
STARTCHAR 0452
ENCODING 1106
SWIDTH 540 0
DWIDTH 12 0
BBX 11 19 1 -5
BITMAP
3000
3000
FC00
3000
3780
3CC0
3840
3060
3060
3060
3060
3060
3060
3060
0060
0060
0060
03C0
0100
ENDCHAR
STARTCHAR 0453
ENCODING 1107
SWIDTH 360 0
DWIDTH 8 0
BBX 7 14 1 0
BITMAP
18
10
20
00
FE
FE
C0
C0
C0
C0
C0
C0
C0
C0
ENDCHAR
STARTCHAR 0454
ENCODING 1108
SWIDTH 450 0
DWIDTH 10 0
BBX 8 10 1 0
BITMAP
3E
77
43
C0
FC
FC
C0
43
77
3E
ENDCHAR
STARTCHAR 0455
ENCODING 1109
SWIDTH 360 0
DWIDTH 8 0
BBX 7 10 1 0
BITMAP
78
6C
C4
60
38
0C
06
C6
EC
78
ENDCHAR
STARTCHAR 0456
ENCODING 1110
SWIDTH 135 0
DWIDTH 3 0
BBX 2 14 1 0
BITMAP
C0
C0
00
00
C0
C0
C0
C0
C0
C0
C0
C0
C0
C0
ENDCHAR
STARTCHAR 0457
ENCODING 1111
SWIDTH 135 0
DWIDTH 3 0
BBX 6 14 -1 0
BITMAP
CC
CC
00
00
30
30
30
30
30
30
30
30
30
30
ENDCHAR
STARTCHAR 0458
ENCODING 1112
SWIDTH 135 0
DWIDTH 3 0
BBX 5 19 -2 -5
BITMAP
18
18
00
00
18
18
18
18
18
18
18
18
18
18
18
18
18
F0
40
ENDCHAR
STARTCHAR 0459
ENCODING 1113
SWIDTH 675 0
DWIDTH 15 0
BBX 14 10 1 0
BITMAP
3F80
3F80
2180
2180
21F8
2198
218C
618C
E1F8
C1F0
ENDCHAR
STARTCHAR 045A
ENCODING 1114
SWIDTH 630 0
DWIDTH 14 0
BBX 13 10 1 0
BITMAP
C300
C300
C300
C300
FFF0
FF30
C318
C318
C3F0
C3E0
ENDCHAR
STARTCHAR 045B
ENCODING 1115
SWIDTH 540 0
DWIDTH 12 0
BBX 10 14 1 0
BITMAP
2000
F800
F800
2000
2F00
3D80
30C0
3040
2040
2040
2040
2040
2040
2040
ENDCHAR
STARTCHAR 045C
ENCODING 1116
SWIDTH 405 0
DWIDTH 9 0
BBX 8 14 1 0
BITMAP
0C
10
00
00
C6
CC
D8
D8
F8
F8
CC
CC
C6
C3
ENDCHAR
STARTCHAR 045D
ENCODING 1117
SWIDTH 405 0
DWIDTH 9 0
BBX 8 14 1 0
BITMAP
30
10
08
00
C3
C3
C7
CF
DF
FB
F3
E3
C3
C3
ENDCHAR
STARTCHAR 045E
ENCODING 1118
SWIDTH 495 0
DWIDTH 11 0
BBX 9 19 1 -5
BITMAP
2300
3E00
1C00
0000
C180
4180
6300
6300
2200
3600
3600
1C00
1C00
0C00
0800
1800
1800
7000
4000
ENDCHAR
STARTCHAR 045F
ENCODING 1119
SWIDTH 405 0
DWIDTH 9 0
BBX 8 13 1 -3
BITMAP
C3
C3
C3
C3
C3
C3
C3
C3
FF
FF
18
18
18
ENDCHAR
STARTCHAR 0460
ENCODING 1120
SWIDTH 900 0
DWIDTH 20 0
BBX 19 14 1 0
BITMAP
C08060
C08060
C08060
C08060
C08060
C08040
C0C040
40C0C0
40C0C0
60E080
31E180
31B300
1F1E00
0E0C00
ENDCHAR
STARTCHAR 0461
ENCODING 1121
SWIDTH 720 0
DWIDTH 16 0
BBX 14 10 1 0
BITMAP
C204
C204
C204
C204
C20C
430C
6308
2798
3EF0
1860
ENDCHAR
STARTCHAR 0462
ENCODING 1122
SWIDTH 675 0
DWIDTH 15 0
BBX 13 14 1 0
BITMAP
0800
0800
FF80
0800
0800
0800
0FE0
0830
0818
0818
0818
0818
0FF0
0FE0
ENDCHAR
STARTCHAR 0463
ENCODING 1123
SWIDTH 495 0
DWIDTH 11 0
BBX 9 14 1 0
BITMAP
1000
1000
1000
1000
FE00
FE00
1000
1000
1F00
1180
1180
1180
1F80
1F00
ENDCHAR
STARTCHAR 0464
ENCODING 1124
SWIDTH 720 0
DWIDTH 16 0
BBX 14 15 1 0
BITMAP
0040
C3F0
C718
CC0C
CC00
D800
D800
FFE0
FFE0
D800
C800
CC04
C60C
C738
C1F0
ENDCHAR
STARTCHAR 0465
ENCODING 1125
SWIDTH 585 0
DWIDTH 13 0
BBX 11 10 1 0
BITMAP
C7C0
CEE0
CC20
D800
FF80
FF80
D800
CC20
CEE0
C7C0
ENDCHAR
STARTCHAR 0466
ENCODING 1126
SWIDTH 630 0
DWIDTH 14 0
BBX 12 14 1 0
BITMAP
0600
0700
0F00
0D00
0980
1980
18C0
3FC0
3FC0
2660
6660
6620
4630
C630
ENDCHAR
STARTCHAR 0467
ENCODING 1127
SWIDTH 495 0
DWIDTH 11 0
BBX 9 10 1 0
BITMAP
0C00
1C00
1C00
3600
3600
3E00
7F00
6B00
4980
C980
ENDCHAR
STARTCHAR 0468
ENCODING 1128
SWIDTH 765 0
DWIDTH 17 0
BBX 15 14 1 0
BITMAP
C0C0
C0E0
C1E0
C1A0
C130
C330
FF18
FFF8
C7F8
C4CC
CCCC
CCC4
C8C6
D8C6
ENDCHAR
STARTCHAR 0469
ENCODING 1129
SWIDTH 585 0
DWIDTH 13 0
BBX 11 10 1 0
BITMAP
C300
C300
C780
C780
FC80
FFC0
CFC0
DB60
DB60
D320
ENDCHAR
STARTCHAR 046A
ENCODING 1130
SWIDTH 585 0
DWIDTH 13 0
BBX 11 14 1 0
BITMAP
FFE0
60C0
60C0
3180
1B00
0E00
1F00
3F80
64C0
C460
C460
C460
C460
C460
ENDCHAR
STARTCHAR 046B
ENCODING 1131
SWIDTH 450 0
DWIDTH 10 0
BBX 9 10 1 0
BITMAP
FF80
7F00
3600
3C00
1C00
7F00
6B00
C980
C980
C980
ENDCHAR
STARTCHAR 046C
ENCODING 1132
SWIDTH 720 0
DWIDTH 16 0
BBX 14 14 1 0
BITMAP
DFFC
CC08
C618
C630
C360
C1E0
FFE0
FFF8
CCD8
C8CC
D8CC
D8C4
D8C4
D8C4
ENDCHAR
STARTCHAR 046D
ENCODING 1133
SWIDTH 630 0
DWIDTH 14 0
BBX 12 10 1 0
BITMAP
CFF0
CFE0
C6C0
C3C0
FF80
FFE0
CDE0
D9B0
D9B0
D9B0
ENDCHAR
STARTCHAR 046E
ENCODING 1134
SWIDTH 495 0
DWIDTH 11 0
BBX 10 21 1 -5
BITMAP
3700
1E00
3F00
6180
4180
0080
0180
0780
0F00
0180
00C0
00C0
00C0
0180
0F80
7E00
E000
C000
E1C0
7F80
0C00
ENDCHAR
STARTCHAR 046F
ENCODING 1135
SWIDTH 360 0
DWIDTH 8 0
BBX 7 17 1 -5
BITMAP
6C
38
38
6C
4C
0C
18
0C
06
06
3C
78
C0
C0
CC
7C
10
ENDCHAR
STARTCHAR 0470
ENCODING 1136
SWIDTH 630 0
DWIDTH 14 0
BBX 13 14 1 1
BITMAP
C218
4230
6220
6220
3220
3260
13E0
1F80
0200
0200
0200
0200
0200
0200
ENDCHAR
STARTCHAR 0471
ENCODING 1137
SWIDTH 675 0
DWIDTH 15 0
BBX 13 18 1 -5
BITMAP
0200
0200
0200
0200
C218
4230
6230
6220
2220
3220
3220
1A60
1FC0
0F80
0200
0200
0200
0200
ENDCHAR
STARTCHAR 0472
ENCODING 1138
SWIDTH 630 0
DWIDTH 14 0
BBX 12 15 1 0
BITMAP
0600
1F80
30C0
6060
6020
C030
C030
FFF0
FFF0
C030
C030
6060
6060
39C0
1F80
ENDCHAR
STARTCHAR 0473
ENCODING 1139
SWIDTH 450 0
DWIDTH 10 0
BBX 9 10 1 0
BITMAP
3E00
7700
4300
C180
FF80
FF80
C180
4300
7700
3E00
ENDCHAR
STARTCHAR 0474
ENCODING 1140
SWIDTH 720 0
DWIDTH 16 0
BBX 15 15 1 0
BITMAP
0008
C03E
4032
6060
6060
3060
30C0
10C0
1880
1980
0980
0D00
0F00
0700
0600
ENDCHAR
STARTCHAR 0475
ENCODING 1141
SWIDTH 585 0
DWIDTH 13 0
BBX 12 10 1 0
BITMAP
C0E0
41B0
6300
6300
2200
3600
3600
1C00
1C00
0C00
ENDCHAR
STARTCHAR 0476
ENCODING 1142
SWIDTH 720 0
DWIDTH 16 0
BBX 15 19 1 0
BITMAP
1B80
0C80
0440
0200
0008
C03E
4032
6060
6060
3060
30C0
10C0
1880
1980
0980
0D00
0F00
0700
0600
ENDCHAR
STARTCHAR 0477
ENCODING 1143
SWIDTH 585 0
DWIDTH 13 0
BBX 12 14 1 0
BITMAP
3600
1900
0800
0000
C0E0
41B0
6300
6300
2200
3600
3600
1C00
1C00
0C00
ENDCHAR
STARTCHAR 0478
ENCODING 1144
SWIDTH 1080 0
DWIDTH 24 0
BBX 22 20 1 -5
BITMAP
060000
1F8000
30C000
606000
602000
C0360C
C0320C
C03318
C03318
C03110
C031B0
6061B0
6060E0
39C0E0
1F8060
000040
0000C0
0000C0
000380
000200
ENDCHAR
STARTCHAR 0479
ENCODING 1145
SWIDTH 765 0
DWIDTH 17 0
BBX 15 15 1 -5
BITMAP
3982
6D86
C586
C4C4
C6CC
C64C
C478
C478
6C38
3830
0030
0020
0060
01C0
0080
ENDCHAR
STARTCHAR 047A
ENCODING 1146
SWIDTH 810 0
DWIDTH 18 0
BBX 16 16 1 -1
BITMAP
01C0
0FF0
1D9C
3006
6003
C003
C001
C001
C001
C003
4003
6006
300E
1FF8
07F0
0180
ENDCHAR
STARTCHAR 047B
ENCODING 1147
SWIDTH 585 0
DWIDTH 13 0
BBX 11 12 1 -1
BITMAP
0E00
1F00
3FC0
60C0
C060
C060
C060
C060
60C0
7FC0
1F00
0E00
ENDCHAR
STARTCHAR 047C
ENCODING 1148
SWIDTH 1080 0
DWIDTH 24 0
BBX 22 19 1 0
BITMAP
002000
00F800
00CE00
000600
043080
1C38E0
300830
601018
60100C
C0200C
C00004
C00004
C03004
C03004
C0300C
60780C
606C18
39C770
1F83E0
ENDCHAR
STARTCHAR 047D
ENCODING 1149
SWIDTH 765 0
DWIDTH 17 0
BBX 16 17 1 0
BITMAP
0380
07C0
0470
0030
0180
0180
0080
309C
710E
4006
C003
C003
C183
C183
43C6
77EE
3E7C
ENDCHAR
STARTCHAR 047E
ENCODING 1150
SWIDTH 900 0
DWIDTH 20 0
BBX 19 19 1 0
BITMAP
3FFF00
3FFF00
30C100
30C100
00C000
C0C060
C00060
C00060
C08060
C08060
C08040
C0C040
40C0C0
40C0C0
60E080
31E180
31B300
1F1E00
0E0C00
ENDCHAR
STARTCHAR 047F
ENCODING 1151
SWIDTH 720 0
DWIDTH 16 0
BBX 14 14 1 0
BITMAP
3FF8
2318
2318
0300
C304
C004
C204
C204
C20C
430C
6308
2798
3EF0
1860
ENDCHAR
STARTCHAR 0480
ENCODING 1152
SWIDTH 585 0
DWIDTH 13 0
BBX 11 19 1 -4
BITMAP
0600
1F80
30C0
6060
6000
C000
C000
C000
C000
C000
C000
6000
6000
3800
1E00
0600
0600
0600
0600
ENDCHAR
STARTCHAR 0481
ENCODING 1153
SWIDTH 450 0
DWIDTH 10 0
BBX 8 14 1 -5
BITMAP
3E
77
43
C0
C0
C0
C0
40
70
38
08
08
08
08
ENDCHAR
STARTCHAR 0482
ENCODING 1154
SWIDTH 585 0
DWIDTH 13 0
BBX 12 14 1 -4
BITMAP
0080
0180
3180
3F00
07C0
02F0
0600
0600
E400
7C00
0F80
09C0
1800
1800
ENDCHAR
STARTCHAR 0483
ENCODING 1155
SWIDTH 0 0
DWIDTH 0 0
BBX 8 4 -4 11
BITMAP
03
7F
FE
C0
ENDCHAR
STARTCHAR 0484
ENCODING 1156
SWIDTH 0 0
DWIDTH 0 0
BBX 4 4 0 10
BITMAP
F0
30
10
10
ENDCHAR
STARTCHAR 0485
ENCODING 1157
SWIDTH 0 0
DWIDTH 0 0
BBX 2 4 -1 10
BITMAP
C0
C0
80
80
ENDCHAR
STARTCHAR 0486
ENCODING 1158
SWIDTH 0 0
DWIDTH 0 0
BBX 2 4 -1 10
BITMAP
C0
C0
40
40
ENDCHAR
STARTCHAR 0487
ENCODING 1159
SWIDTH 0 0
DWIDTH 0 0
BBX 8 4 -4 11
BITMAP
10
7C
CE
C3
ENDCHAR
STARTCHAR 0488
ENCODING 1160
SWIDTH 855 0
DWIDTH 19 0
BBX 18 17 1 -2
BITMAP
06D800
069800
300600
300600
400000
E00180
400000
000080
C000C0
000080
400000
E00180
400000
300600
300600
069800
04D800
ENDCHAR
STARTCHAR 0489
ENCODING 1161
SWIDTH 1035 0
DWIDTH 23 0
BBX 20 21 2 -4
BITMAP
004000
008000
084600
060400
000400
8000E0
700080
000000
000000
000000
600070
800000
000000
000000
3000C0
600040
040000
060600
046200
002200
004000
ENDCHAR
STARTCHAR 048A
ENCODING 1162
SWIDTH 495 0
DWIDTH 11 0
BBX 10 23 1 -4
BITMAP
2300
2200
1E00
0000
0000
C080
C080
C080
C180
C380
C680
CC80
D880
F080
E080
C080
C080
C080
C080
00C0
0080
0080
0100
ENDCHAR
STARTCHAR 048B
ENCODING 1163
SWIDTH 405 0
DWIDTH 9 0
BBX 8 18 1 -4
BITMAP
46
7C
18
00
C3
C3
C7
CF
DF
FB
F3
E3
C3
C3
01
01
02
02
ENDCHAR
STARTCHAR 048C
ENCODING 1164
SWIDTH 540 0
DWIDTH 12 0
BBX 11 14 1 0
BITMAP
2000
2000
F800
2000
2000
2000
3F80
20C0
2060
2060
2060
20C0
3FC0
3F80
ENDCHAR
STARTCHAR 048D
ENCODING 1165
SWIDTH 450 0
DWIDTH 10 0
BBX 8 12 1 0
BITMAP
60
60
F0
F0
60
60
7E
63
63
63
7E
7E
ENDCHAR
STARTCHAR 048E
ENCODING 1166
SWIDTH 450 0
DWIDTH 10 0
BBX 9 14 1 0
BITMAP
FE00
C700
C100
C180
CD80
C700
FF00
FD80
C000
C000
C000
C000
C000
C000
ENDCHAR
STARTCHAR 048F
ENCODING 1167
SWIDTH 450 0
DWIDTH 10 0
BBX 9 15 1 -5
BITMAP
FE00
F700
C300
C180
C180
C180
C580
C700
F700
FF80
C000
C000
C000
C000
4000
ENDCHAR
STARTCHAR 0490
ENCODING 1168
SWIDTH 495 0
DWIDTH 11 0
BBX 9 17 1 0
BITMAP
0080
0080
0080
FF80
C000
C000
C000
C000
C000
C000
C000
C000
C000
C000
C000
C000
C000
ENDCHAR
STARTCHAR 0491
ENCODING 1169
SWIDTH 360 0
DWIDTH 8 0
BBX 7 13 1 0
BITMAP
06
06
06
FE
FE
C0
C0
C0
C0
C0
C0
C0
C0
ENDCHAR
STARTCHAR 0492
ENCODING 1170
SWIDTH 540 0
DWIDTH 12 0
BBX 11 14 1 0
BITMAP
3FE0
2000
2000
2000
2000
2000
FC00
FC00
2000
2000
2000
2000
2000
2000
ENDCHAR
STARTCHAR 0493
ENCODING 1171
SWIDTH 450 0
DWIDTH 10 0
BBX 8 10 1 0
BITMAP
3F
3F
20
20
FC
FC
20
20
20
20
ENDCHAR
STARTCHAR 0494
ENCODING 1172
SWIDTH 495 0
DWIDTH 11 0
BBX 9 19 1 -5
BITMAP
FF80
C000
C000
C000
DE00
F700
E100
C180
C180
C180
C180
C180
C180
C180
0180
0180
0180
0F00
0400
ENDCHAR
STARTCHAR 0495
ENCODING 1173
SWIDTH 360 0
DWIDTH 8 0
BBX 7 15 1 -5
BITMAP
FE
FE
C0
F8
FC
CC
CC
CC
CC
CC
0C
0C
0C
78
30
ENDCHAR
STARTCHAR 0496
ENCODING 1174
SWIDTH 900 0
DWIDTH 20 0
BBX 18 18 1 -3
BITMAP
400080
70C380
18C600
08C600
0CC400
0CCC00
0CCC00
07F800
07F800
0CCC00
18C600
18C300
30C300
60C1C0
C0C0C0
0000C0
0000C0
0000C0
ENDCHAR
STARTCHAR 0497
ENCODING 1175
SWIDTH 675 0
DWIDTH 15 0
BBX 14 13 1 -3
BITMAP
6318
3330
1360
1360
1BE0
1FE0
3330
6330
631C
C30C
0004
0004
0004
ENDCHAR
STARTCHAR 0498
ENCODING 1176
SWIDTH 495 0
DWIDTH 11 0
BBX 10 18 1 -3
BITMAP
0C00
3F00
6180
4180
0080
0180
0780
0F00
0180
00C0
00C0
C0C0
C0C0
7380
3F00
0C00
0C00
0C00
ENDCHAR
STARTCHAR 0499
ENCODING 1177
SWIDTH 360 0
DWIDTH 8 0
BBX 7 13 1 -3
BITMAP
78
6C
4C
0C
18
0C
06
C6
EC
78
10
10
10
ENDCHAR
STARTCHAR 049A
ENCODING 1178
SWIDTH 495 0
DWIDTH 11 0
BBX 10 18 1 -3
BITMAP
0080
C380
C600
C400
CC00
CC00
CC00
F800
F800
CC00
C600
C600
C300
C1C0
C0C0
00C0
00C0
00C0
ENDCHAR
STARTCHAR 049B
ENCODING 1179
SWIDTH 405 0
DWIDTH 9 0
BBX 8 13 1 -3
BITMAP
C6
CC
D8
D8
F8
F8
CC
CC
C7
C3
01
01
01
ENDCHAR
STARTCHAR 049C
ENCODING 1180
SWIDTH 495 0
DWIDTH 11 0
BBX 9 15 1 0
BITMAP
0080
C380
C600
C400
CC00
FC00
FC00
F800
F800
FC00
C600
C600
C300
C180
C080
ENDCHAR
STARTCHAR 049D
ENCODING 1181
SWIDTH 405 0
DWIDTH 9 0
BBX 8 10 1 0
BITMAP
C6
CC
F8
F8
F8
F8
FC
FC
C6
C3
ENDCHAR
STARTCHAR 049E
ENCODING 1182
SWIDTH 495 0
DWIDTH 11 0
BBX 11 15 -1 0
BITMAP
0020
30E0
FD80
FD00
3300
3300
3300
3E00
3E00
3300
3180
3180
30C0
3060
3020
ENDCHAR
STARTCHAR 049F
ENCODING 1183
SWIDTH 405 0
DWIDTH 9 0
BBX 10 13 -1 0
BITMAP
3000
FC00
FC00
3180
3300
3600
3600
3E00
3E00
3300
3300
3180
30C0
ENDCHAR
STARTCHAR 04A0
ENCODING 1184
SWIDTH 675 0
DWIDTH 15 0
BBX 13 15 1 0
BITMAP
0010
F870
18E0
18C0
1880
1880
1980
1F00
1F80
1980
18C0
1860
1860
1830
1818
ENDCHAR
STARTCHAR 04A1
ENCODING 1185
SWIDTH 585 0
DWIDTH 13 0
BBX 11 10 1 0
BITMAP
F8C0
F980
1900
1900
1B00
1F00
1980
18C0
18C0
1860
ENDCHAR
STARTCHAR 04A2
ENCODING 1186
SWIDTH 540 0
DWIDTH 12 0
BBX 11 17 1 -3
BITMAP
C080
C080
C080
C080
C080
C080
FF80
FF80
C080
C080
C080
C080
C0E0
C0E0
0060
0060
0060
ENDCHAR
STARTCHAR 04A3
ENCODING 1187
SWIDTH 495 0
DWIDTH 11 0
BBX 9 13 1 -3
BITMAP
C300
C300
C300
C300
FF00
FF00
C300
C300
C380
C380
0080
0080
0080
ENDCHAR
STARTCHAR 04A4
ENCODING 1188
SWIDTH 810 0
DWIDTH 18 0
BBX 17 14 1 0
BITMAP
C0FF80
C08000
C08000
C08000
C08000
C08000
FF8000
FF8000
C08000
C08000
C08000
C08000
C08000
C08000
ENDCHAR
STARTCHAR 04A5
ENCODING 1189
SWIDTH 630 0
DWIDTH 14 0
BBX 13 10 1 0
BITMAP
C3F8
C3F8
C300
C300
FF00
FF00
C300
C300
C300
C300
ENDCHAR
STARTCHAR 04A6
ENCODING 1190
SWIDTH 765 0
DWIDTH 17 0
BBX 16 19 1 -5
BITMAP
FF80
C080
C080
C080
C0F0
C0BC
C08C
C086
C082
C083
C083
C083
C083
C082
0006
0606
031C
01F8
0060
ENDCHAR
STARTCHAR 04A7
ENCODING 1191
SWIDTH 630 0
DWIDTH 14 0
BBX 13 15 1 -5
BITMAP
FF00
FF00
C300
C300
C3C0
C3E0
C330
C310
C318
C318
0010
0430
0630
03E0
0080
ENDCHAR
STARTCHAR 04A8
ENCODING 1192
SWIDTH 720 0
DWIDTH 16 0
BBX 14 15 1 0
BITMAP
0440
1DE0
3130
6318
6218
C218
C218
C218
C218
C218
C318
6130
61B0
38EC
1FFC
ENDCHAR
STARTCHAR 04A9
ENCODING 1193
SWIDTH 585 0
DWIDTH 13 0
BBX 11 10 1 0
BITMAP
3380
7780
4CC0
CCC0
CCC0
CCC0
CCC0
44C0
77E0
3FE0
ENDCHAR
STARTCHAR 04AA
ENCODING 1194
SWIDTH 585 0
DWIDTH 13 0
BBX 11 18 1 -3
BITMAP
0600
1F80
30C0
6060
6000
C000
C000
C000
C000
C000
C000
6040
6060
39C0
1F80
0600
0600
0600
ENDCHAR
STARTCHAR 04AB
ENCODING 1195
SWIDTH 450 0
DWIDTH 10 0
BBX 8 13 1 -3
BITMAP
3E
77
43
C0
C0
C0
C0
43
77
3E
08
08
08
ENDCHAR
STARTCHAR 04AC
ENCODING 1196
SWIDTH 495 0
DWIDTH 11 0
BBX 9 17 1 -3
BITMAP
FF80
0800
0800
0800
0800
0800
0800
0800
0800
0800
0800
0800
0E00
0E00
0600
0600
0600
ENDCHAR
STARTCHAR 04AD
ENCODING 1197
SWIDTH 360 0
DWIDTH 8 0
BBX 7 13 1 -3
BITMAP
FE
FE
10
10
10
10
10
10
1C
1C
0C
0C
0C
ENDCHAR
STARTCHAR 04AE
ENCODING 1198
SWIDTH 630 0
DWIDTH 14 0
BBX 11 14 2 0
BITMAP
C060
C0C0
6180
3300
3300
1E00
0C00
0C00
0C00
0C00
0C00
0C00
0C00
0C00
ENDCHAR
STARTCHAR 04AF
ENCODING 1199
SWIDTH 495 0
DWIDTH 11 0
BBX 9 14 1 -5
BITMAP
C180
4180
6300
6300
2200
3600
3600
1C00
1C00
0C00
0800
0800
0800
0800
ENDCHAR
STARTCHAR 04B0
ENCODING 1200
SWIDTH 630 0
DWIDTH 14 0
BBX 11 14 2 0
BITMAP
C060
C0C0
6180
3300
3300
1E00
0C00
0C00
7F80
7F80
0C00
0C00
0C00
0C00
ENDCHAR
STARTCHAR 04B1
ENCODING 1201
SWIDTH 495 0
DWIDTH 11 0
BBX 9 14 1 -5
BITMAP
C180
4180
6300
6300
2200
3600
3600
1C00
1C00
0C00
7F00
7F00
0800
0800
ENDCHAR
STARTCHAR 04B2
ENCODING 1202
SWIDTH 630 0
DWIDTH 14 0
BBX 13 17 1 -3
BITMAP
6030
6060
30C0
1980
1980
0F00
0600
0700
0F00
1980
18C0
30C0
6078
C038
0018
0018
0018
ENDCHAR
STARTCHAR 04B3
ENCODING 1203
SWIDTH 495 0
DWIDTH 11 0
BBX 10 13 1 -3
BITMAP
C180
6300
3600
1E00
1C00
1C00
1E00
3600
63C0
C1C0
00C0
00C0
00C0
ENDCHAR
STARTCHAR 04B4
ENCODING 1204
SWIDTH 720 0
DWIDTH 16 0
BBX 15 17 1 -3
BITMAP
FF98
0818
0818
0818
0818
0818
0818
0818
0818
0818
0818
0818
0FFE
0FFE
0006
0006
0006
ENDCHAR
STARTCHAR 04B5
ENCODING 1205
SWIDTH 585 0
DWIDTH 13 0
BBX 12 13 1 -3
BITMAP
FEC0
FEC0
10C0
10C0
10C0
10C0
10C0
10C0
1FF0
1FF0
0030
0030
0030
ENDCHAR
STARTCHAR 04B6
ENCODING 1206
SWIDTH 585 0
DWIDTH 13 0
BBX 11 17 1 -3
BITMAP
C0C0
C0C0
C0C0
C0C0
40C0
60C0
3FC0
0EC0
00C0
00C0
00C0
00C0
00E0
00E0
0020
0020
0020
ENDCHAR
STARTCHAR 04B7
ENCODING 1207
SWIDTH 450 0
DWIDTH 10 0
BBX 9 13 1 -3
BITMAP
C200
C200
C200
C200
7E00
3E00
0200
0200
0380
0380
0180
0180
0180
ENDCHAR
STARTCHAR 04B8
ENCODING 1208
SWIDTH 495 0
DWIDTH 11 0
BBX 10 14 1 0
BITMAP
C0C0
C0C0
C0C0
C0C0
C0C0
44C0
64C0
3FC0
0EC0
04C0
04C0
00C0
00C0
00C0
ENDCHAR
STARTCHAR 04B9
ENCODING 1209
SWIDTH 405 0
DWIDTH 9 0
BBX 7 10 1 0
BITMAP
C2
C2
DA
DA
7E
3E
1A
1A
02
02
ENDCHAR
STARTCHAR 04BA
ENCODING 1210
SWIDTH 495 0
DWIDTH 11 0
BBX 10 14 1 0
BITMAP
C000
C000
C000
C000
C000
FE00
FF00
C180
C080
C0C0
C0C0
C0C0
C0C0
C0C0
ENDCHAR
STARTCHAR 04BB
ENCODING 1211
SWIDTH 450 0
DWIDTH 10 0
BBX 9 14 1 0
BITMAP
C000
C000
C000
C000
DE00
F700
E100
C180
C180
C180
C180
C180
C180
C180
ENDCHAR
STARTCHAR 04BC
ENCODING 1212
SWIDTH 810 0
DWIDTH 18 0
BBX 16 15 1 0
BITMAP
0020
01F8
038E
0306
C603
C403
C401
7FFF
3FFF
0400
0600
0600
0304
01DC
00F8
ENDCHAR
STARTCHAR 04BD
ENCODING 1213
SWIDTH 630 0
DWIDTH 14 0
BBX 13 10 1 0
BITMAP
03C0
C760
CC30
CC10
7FF8
0C00
0C00
0C30
0760
03C0
ENDCHAR
STARTCHAR 04BE
ENCODING 1214
SWIDTH 810 0
DWIDTH 18 0
BBX 16 18 1 -3
BITMAP
0020
01F8
038E
0306
C603
C403
C401
7FFF
3FFF
0400
0600
0600
0304
01DC
00F8
0020
0020
0020
ENDCHAR
STARTCHAR 04BF
ENCODING 1215
SWIDTH 630 0
DWIDTH 14 0
BBX 13 13 1 -3
BITMAP
03C0
C760
CC30
CC10
7FF8
0C00
0C00
0C30
0760
03C0
0180
0180
0180
ENDCHAR
STARTCHAR 04C0
ENCODING 1216
SWIDTH 315 0
DWIDTH 7 0
BBX 5 14 1 0
BITMAP
F8
20
20
20
20
20
20
20
20
20
20
20
F8
F8
ENDCHAR
STARTCHAR 04C1
ENCODING 1217
SWIDTH 900 0
DWIDTH 20 0
BBX 18 19 1 0
BITMAP
021000
033000
01E000
000000
400080
70C380
18C600
08C600
0CC400
0CCC00
0CCC00
07F800
07F800
0CCC00
18C600
18C300
30C300
60C180
C0C0C0
ENDCHAR
STARTCHAR 04C2
ENCODING 1218
SWIDTH 675 0
DWIDTH 15 0
BBX 14 14 1 0
BITMAP
08C0
0F80
0300
0000
6318
3330
1360
1360
1BE0
1FE0
3330
6330
6318
C30C
ENDCHAR
STARTCHAR 04C3
ENCODING 1219
SWIDTH 450 0
DWIDTH 10 0
BBX 11 20 -1 -5
BITMAP
0020
30E0
3180
3100
3300
3300
3380
3F80
3CC0
3040
3060
3060
3060
3060
3040
00C0
C0C0
6380
3F00
0C00
ENDCHAR
STARTCHAR 04C4
ENCODING 1220
SWIDTH 360 0
DWIDTH 8 0
BBX 8 15 0 -5
BITMAP
63
66
6C
6C
7C
7C
66
62
63
63
02
86
C6
7C
10
ENDCHAR
STARTCHAR 04C5
ENCODING 1221
SWIDTH 495 0
DWIDTH 11 0
BBX 10 18 1 -4
BITMAP
3FC0
20C0
20C0
20C0
20C0
20C0
20C0
20C0
20C0
20C0
20C0
60C0
E0C0
C0C0
0040
0040
0080
0080
ENDCHAR
STARTCHAR 04C6
ENCODING 1222
SWIDTH 450 0
DWIDTH 10 0
BBX 9 14 1 -4
BITMAP
3F80
3F80
2180
2180
2180
2180
2180
6180
E180
C180
0080
0080
0100
0100
ENDCHAR
STARTCHAR 04C7
ENCODING 1223
SWIDTH 495 0
DWIDTH 11 0
BBX 9 19 1 -5
BITMAP
C080
C080
C080
C080
C080
C080
FF80
FF80
C080
C080
C080
C080
C080
C080
0080
0080
0180
0F00
0200
ENDCHAR
STARTCHAR 04C8
ENCODING 1224
SWIDTH 405 0
DWIDTH 9 0
BBX 8 15 1 -5
BITMAP
C3
C3
C3
C3
FF
FF
C3
C3
C3
C3
03
03
03
1E
08
ENDCHAR
STARTCHAR 04C9
ENCODING 1225
SWIDTH 495 0
DWIDTH 11 0
BBX 10 18 1 -4
BITMAP
C080
C080
C080
C080
C080
C080
FF80
FF80
C080
C080
C080
C080
C080
C080
00C0
0080
0080
0100
ENDCHAR
STARTCHAR 04CA
ENCODING 1226
SWIDTH 405 0
DWIDTH 9 0
BBX 8 14 1 -4
BITMAP
C3
C3
C3
C3
FF
FF
C3
C3
C3
C3
01
03
02
02
ENDCHAR
STARTCHAR 04CB
ENCODING 1227
SWIDTH 585 0
DWIDTH 13 0
BBX 10 17 1 -3
BITMAP
C0C0
C0C0
C0C0
C0C0
40C0
60C0
3FC0
0EC0
00C0
00C0
00C0
00C0
01C0
01C0
0100
0100
0100
ENDCHAR
STARTCHAR 04CC
ENCODING 1228
SWIDTH 405 0
DWIDTH 9 0
BBX 7 13 1 -3
BITMAP
C2
C2
C2
C2
7E
3E
02
02
0E
0E
0C
0C
0C
ENDCHAR
STARTCHAR 04CD
ENCODING 1229
SWIDTH 630 0
DWIDTH 14 0
BBX 13 18 1 -4
BITMAP
C030
C030
E070
E070
F070
F0D0
D0D0
D890
D990
C990
CD10
CF10
C710
C610
0018
0010
0010
0020
ENDCHAR
STARTCHAR 04CE
ENCODING 1230
SWIDTH 495 0
DWIDTH 11 0
BBX 9 14 1 -4
BITMAP
C180
C180
E380
E380
E380
F780
F780
DD80
DD80
CD80
0080
0080
0080
0100
ENDCHAR
STARTCHAR 04CF
ENCODING 1231
SWIDTH 135 0
DWIDTH 3 0
BBX 2 14 1 0
BITMAP
C0
C0
C0
C0
C0
C0
C0
C0
C0
C0
C0
C0
C0
C0
ENDCHAR
STARTCHAR 04D0
ENCODING 1232
SWIDTH 630 0
DWIDTH 14 0
BBX 12 19 1 0
BITMAP
1080
1880
0F00
0000
0000
0600
0700
0F00
0D00
0980
1980
18C0
3FC0
3FC0
2060
6060
6020
4030
C030
ENDCHAR
STARTCHAR 04D1
ENCODING 1233
SWIDTH 405 0
DWIDTH 9 0
BBX 7 14 1 0
BITMAP
44
7C
38
00
3C
7E
06
06
3E
FE
C6
C6
EE
7E
ENDCHAR
STARTCHAR 04D2
ENCODING 1234
SWIDTH 630 0
DWIDTH 14 0
BBX 12 18 1 0
BITMAP
1980
1980
0000
0000
0600
0700
0F00
0D00
0980
1980
18C0
3FC0
3FC0
2060
6060
6020
4030
C030
ENDCHAR
STARTCHAR 04D3
ENCODING 1235
SWIDTH 405 0
DWIDTH 9 0
BBX 7 14 1 0
BITMAP
6C
EE
00
00
3C
7E
06
06
3E
FE
C6
C6
EE
7E
ENDCHAR
STARTCHAR 04D4
ENCODING 1236
SWIDTH 720 0
DWIDTH 16 0
BBX 14 14 1 0
BITMAP
07FC
0580
0D80
0D80
0980
1980
1FF8
3FF8
3180
2180
6180
6180
41FC
C1FC
ENDCHAR
STARTCHAR 04D5
ENCODING 1237
SWIDTH 720 0
DWIDTH 16 0
BBX 14 10 1 0
BITMAP
3DF0
7FB8
0708
060C
3FFC
FE00
C600
C708
EFB8
7DF0
ENDCHAR
STARTCHAR 04D6
ENCODING 1238
SWIDTH 495 0
DWIDTH 11 0
BBX 9 19 1 0
BITMAP
2300
2200
1E00
0000
0000
FF80
C000
C000
C000
C000
C000
FF00
FF00
C000
C000
C000
C000
FF80
FF80
ENDCHAR
STARTCHAR 04D7
ENCODING 1239
SWIDTH 450 0
DWIDTH 10 0
BBX 9 14 1 0
BITMAP
6200
3E00
1C00
0000
3E00
7700
4300
C180
FF80
C000
C000
4300
7700
3E00
ENDCHAR
STARTCHAR 04D8
ENCODING 1240
SWIDTH 630 0
DWIDTH 14 0
BBX 12 15 1 0
BITMAP
0200
1F80
30C0
0060
0020
0030
0030
FFF0
FFF0
C030
C030
6060
6060
39C0
1F80
ENDCHAR
STARTCHAR 04D9
ENCODING 1241
SWIDTH 450 0
DWIDTH 10 0
BBX 9 10 1 0
BITMAP
3E00
7700
4300
0180
0180
FF80
C180
4300
7700
3E00
ENDCHAR
STARTCHAR 04DA
ENCODING 1242
SWIDTH 630 0
DWIDTH 14 0
BBX 12 18 1 0
BITMAP
1980
1980
0000
0200
1F80
30C0
0060
0020
0030
0030
FFF0
FFF0
C030
C030
6060
6060
39C0
1F80
ENDCHAR
STARTCHAR 04DB
ENCODING 1243
SWIDTH 450 0
DWIDTH 10 0
BBX 9 14 1 0
BITMAP
2600
7600
0000
0000
3E00
7700
4300
0180
0180
FF80
C180
4300
7700
3E00
ENDCHAR
STARTCHAR 04DC
ENCODING 1244
SWIDTH 900 0
DWIDTH 20 0
BBX 18 18 1 0
BITMAP
033000
033000
000000
400080
70C380
18C600
08C600
0CC400
0CCC00
0CCC00
07F800
07F800
0CCC00
18C600
18C300
30C300
60C180
C0C0C0
ENDCHAR
STARTCHAR 04DD
ENCODING 1245
SWIDTH 675 0
DWIDTH 15 0
BBX 14 14 1 0
BITMAP
0CC0
0CC0
0000
0000
6318
3330
1360
1360
1BE0
1FE0
3330
6330
6318
C30C
ENDCHAR
STARTCHAR 04DE
ENCODING 1246
SWIDTH 495 0
DWIDTH 11 0
BBX 9 18 1 0
BITMAP
7600
3600
0000
0800
7E00
6300
C180
0180
0180
0700
1E00
0380
0180
0080
8080
C180
7700
3E00
ENDCHAR
STARTCHAR 04DF
ENCODING 1247
SWIDTH 360 0
DWIDTH 8 0
BBX 7 14 1 0
BITMAP
4C
EC
40
00
78
6C
4C
0C
18
0C
06
C6
EC
78
ENDCHAR
STARTCHAR 04E0
ENCODING 1248
SWIDTH 495 0
DWIDTH 11 0
BBX 10 14 1 0
BITMAP
FFC0
00C0
0180
0300
0300
0600
0F80
0180
00C0
00C0
C0C0
4180
7380
3F00
ENDCHAR
STARTCHAR 04E1
ENCODING 1249
SWIDTH 405 0
DWIDTH 9 0
BBX 8 15 1 -5
BITMAP
FF
FF
06
0C
0C
1C
0E
06
03
03
03
02
46
7C
10
ENDCHAR
STARTCHAR 04E2
ENCODING 1250
SWIDTH 495 0
DWIDTH 11 0
BBX 9 18 1 0
BITMAP
3E00
3E00
0000
0000
C080
C080
C080
C180
C380
C680
CC80
D880
F080
E080
C080
C080
C080
C080
ENDCHAR
STARTCHAR 04E3
ENCODING 1251
SWIDTH 405 0
DWIDTH 9 0
BBX 8 13 1 0
BITMAP
7E
00
00
C3
C3
C7
CF
DF
FB
F3
E3
C3
C3
ENDCHAR
STARTCHAR 04E4
ENCODING 1252
SWIDTH 495 0
DWIDTH 11 0
BBX 9 18 1 0
BITMAP
3700
3700
0000
0000
C080
C080
C080
C180
C380
C680
CC80
D880
F080
E080
C080
C080
C080
C080
ENDCHAR
STARTCHAR 04E5
ENCODING 1253
SWIDTH 405 0
DWIDTH 9 0
BBX 8 14 1 0
BITMAP
66
66
00
00
C3
C3
C7
CF
DF
FB
F3
E3
C3
C3
ENDCHAR
STARTCHAR 04E6
ENCODING 1254
SWIDTH 630 0
DWIDTH 14 0
BBX 12 18 1 0
BITMAP
1980
1980
0000
0600
1F80
30C0
6060
6020
C030
C030
C030
C030
C030
C030
6060
6060
39C0
1F80
ENDCHAR
STARTCHAR 04E7
ENCODING 1255
SWIDTH 450 0
DWIDTH 10 0
BBX 9 14 1 0
BITMAP
2600
7600
0000
0000
3E00
7700
4300
C180
C180
C180
C180
4300
7700
3E00
ENDCHAR
STARTCHAR 04E8
ENCODING 1256
SWIDTH 630 0
DWIDTH 14 0
BBX 12 15 1 0
BITMAP
0600
1F80
30C0
6060
6020
C030
C030
FFF0
FFF0
C030
C030
6060
6060
39C0
1F80
ENDCHAR
STARTCHAR 04E9
ENCODING 1257
SWIDTH 450 0
DWIDTH 10 0
BBX 9 10 1 0
BITMAP
3E00
7700
4300
C180
FF80
FF80
C180
4300
7700
3E00
ENDCHAR
STARTCHAR 04EA
ENCODING 1258
SWIDTH 630 0
DWIDTH 14 0
BBX 12 18 1 0
BITMAP
1980
1980
0000
0600
1F80
30C0
6060
6020
C030
C030
FFF0
FFF0
C030
C030
6060
6060
39C0
1F80
ENDCHAR
STARTCHAR 04EB
ENCODING 1259
SWIDTH 450 0
DWIDTH 10 0
BBX 9 14 1 0
BITMAP
2600
7600
0000
0000
3E00
7700
4300
C180
FF80
FF80
C180
4300
7700
3E00
ENDCHAR
STARTCHAR 04EC
ENCODING 1260
SWIDTH 585 0
DWIDTH 13 0
BBX 11 18 1 0
BITMAP
1B80
1B00
0000
0400
3F00
6180
C0C0
4040
0060
0060
1FE0
1FE0
0060
0060
40C0
E0C0
7380
3F00
ENDCHAR
STARTCHAR 04ED
ENCODING 1261
SWIDTH 450 0
DWIDTH 10 0
BBX 8 14 1 0
BITMAP
66
76
00
00
3C
6E
C3
03
1F
1F
03
C3
66
3C
ENDCHAR
STARTCHAR 04EE
ENCODING 1262
SWIDTH 540 0
DWIDTH 12 0
BBX 10 18 1 0
BITMAP
1F80
1F80
0000
0000
20C0
30C0
3080
1980
1980
0900
0F00
0F00
0600
0600
0400
4C00
FC00
7800
ENDCHAR
STARTCHAR 04EF
ENCODING 1263
SWIDTH 495 0
DWIDTH 11 0
BBX 9 18 1 -5
BITMAP
3E00
0000
0000
C180
4180
6300
6300
2200
3600
3600
1C00
1C00
0C00
0800
1800
1800
7000
4000
ENDCHAR
STARTCHAR 04F0
ENCODING 1264
SWIDTH 540 0
DWIDTH 12 0
BBX 10 18 1 0
BITMAP
1980
1980
0000
0000
20C0
30C0
3080
1980
1980
0900
0F00
0F00
0600
0600
0400
4C00
FC00
7800
ENDCHAR
STARTCHAR 04F1
ENCODING 1265
SWIDTH 495 0
DWIDTH 11 0
BBX 9 19 1 -5
BITMAP
3200
3700
0000
0000
C180
4180
6300
6300
2200
3600
3600
1C00
1C00
0C00
0800
1800
1800
7000
4000
ENDCHAR
STARTCHAR 04F2
ENCODING 1266
SWIDTH 540 0
DWIDTH 12 0
BBX 10 19 1 0
BITMAP
06C0
0C80
0900
1000
0000
20C0
30C0
3080
1980
1980
0900
0F00
0F00
0600
0600
0400
4C00
FC00
7800
ENDCHAR
STARTCHAR 04F3
ENCODING 1267
SWIDTH 495 0
DWIDTH 11 0
BBX 9 19 1 -5
BITMAP
0D80
1200
2000
0000
C180
4180
6300
6300
2200
3600
3600
1C00
1C00
0C00
0800
1800
1800
7000
4000
ENDCHAR
STARTCHAR 04F4
ENCODING 1268
SWIDTH 495 0
DWIDTH 11 0
BBX 10 18 1 0
BITMAP
3300
3300
0000
0000
C0C0
C0C0
C0C0
C0C0
C0C0
40C0
60C0
3FC0
0EC0
00C0
00C0
00C0
00C0
00C0
ENDCHAR
STARTCHAR 04F5
ENCODING 1269
SWIDTH 405 0
DWIDTH 9 0
BBX 7 14 1 0
BITMAP
64
6E
00
00
C2
C2
C2
C2
7E
3E
02
02
02
02
ENDCHAR
STARTCHAR 04F6
ENCODING 1270
SWIDTH 495 0
DWIDTH 11 0
BBX 9 17 1 -3
BITMAP
FF80
C000
C000
C000
C000
C000
C000
C000
C000
C000
C000
C000
E000
E000
2000
2000
2000
ENDCHAR
STARTCHAR 04F7
ENCODING 1271
SWIDTH 360 0
DWIDTH 8 0
BBX 7 13 1 -3
BITMAP
FE
FE
C0
C0
C0
C0
C0
C0
E0
E0
20
20
20
ENDCHAR
STARTCHAR 04F8
ENCODING 1272
SWIDTH 630 0
DWIDTH 14 0
BBX 12 18 1 0
BITMAP
1980
1980
0000
0000
C030
C030
C030
C030
C030
C030
FF30
C3B0
C1B0
C0B0
C1B0
C1B0
FF30
FE30
ENDCHAR
STARTCHAR 04F9
ENCODING 1273
SWIDTH 495 0
DWIDTH 11 0
BBX 9 14 1 0
BITMAP
3200
3700
0000
0000
C080
C080
C080
C080
FC80
CC80
C680
C680
FC80
F880
ENDCHAR
STARTCHAR 04FA
ENCODING 1274
SWIDTH 540 0
DWIDTH 12 0
BBX 11 19 1 -5
BITMAP
3FE0
2000
2000
2000
2000
2000
FC00
FC00
2000
2000
2000
2000
3800
3800
1800
1800
1800
F000
6000
ENDCHAR
STARTCHAR 04FB
ENCODING 1275
SWIDTH 450 0
DWIDTH 10 0
BBX 8 15 1 -5
BITMAP
3F
3F
20
20
FC
FC
20
20
38
38
18
18
18
F0
60
ENDCHAR
STARTCHAR 04FC
ENCODING 1276
SWIDTH 630 0
DWIDTH 14 0
BBX 12 18 1 -4
BITMAP
6030
6060
30C0
1980
1980
0F00
0600
0700
0F00
1980
18C0
30C0
6060
C030
0030
0010
0030
0070
ENDCHAR
STARTCHAR 04FD
ENCODING 1277
SWIDTH 495 0
DWIDTH 11 0
BBX 9 14 1 -4
BITMAP
C180
6300
3600
1E00
1C00
1C00
1E00
3600
6300
C180
0180
0080
0180
0380
ENDCHAR
STARTCHAR 04FE
ENCODING 1278
SWIDTH 630 0
DWIDTH 14 0
BBX 12 14 1 0
BITMAP
6030
6060
30C0
1980
1980
0F00
7FF0
7FF0
0F00
1980
18C0
30C0
6060
C030
ENDCHAR
STARTCHAR 04FF
ENCODING 1279
SWIDTH 495 0
DWIDTH 11 0
BBX 9 10 1 0
BITMAP
C180
6300
3600
1E00
FF80
FF80
1E00
3600
6300
C180
ENDCHAR
STARTCHAR 0500
ENCODING 1280
SWIDTH 495 0
DWIDTH 11 0
BBX 9 14 1 0
BITMAP
0080
0080
0080
0080
3E80
7380
6180
C080
C080
C080
C080
6180
7380
3E80
ENDCHAR
STARTCHAR 0501
ENCODING 1281
SWIDTH 450 0
DWIDTH 10 0
BBX 9 14 1 0
BITMAP
0180
0180
0180
0180
3F80
7780
4380
C180
C180
C180
C180
4380
7780
3F80
ENDCHAR
STARTCHAR 0502
ENCODING 1282
SWIDTH 765 0
DWIDTH 17 0
BBX 15 14 1 0
BITMAP
0080
0080
0080
0080
3E80
7380
6180
C0BE
C0BE
C08C
C08C
618C
73D8
3E70
ENDCHAR
STARTCHAR 0503
ENCODING 1283
SWIDTH 720 0
DWIDTH 16 0
BBX 15 14 1 0
BITMAP
0180
0180
0180
0180
3F80
7780
4380
C1BE
C1BE
C198
C198
4398
77D8
3EF0
ENDCHAR
STARTCHAR 0504
ENCODING 1284
SWIDTH 765 0
DWIDTH 17 0
BBX 15 15 1 0
BITMAP
0800
7E00
6300
C180
0180
0180
0700
1F00
03BE
01BE
008C
008C
008C
00D8
0070
ENDCHAR
STARTCHAR 0505
ENCODING 1285
SWIDTH 630 0
DWIDTH 14 0
BBX 12 10 1 0
BITMAP
7800
D800
CC00
19F0
39F0
0C40
0C40
0440
06C0
0380
ENDCHAR
STARTCHAR 0506
ENCODING 1286
SWIDTH 585 0
DWIDTH 13 0
BBX 11 18 1 -3
BITMAP
0800
7E00
6300
C180
0180
0180
0700
1F00
0380
0180
0080
0080
0080
00E0
00E0
0060
0060
0060
ENDCHAR
STARTCHAR 0507
ENCODING 1287
SWIDTH 405 0
DWIDTH 9 0
BBX 8 13 1 -3
BITMAP
78
D8
CC
18
38
0C
0C
0C
0F
0F
03
03
03
ENDCHAR
STARTCHAR 0508
ENCODING 1288
SWIDTH 765 0
DWIDTH 17 0
BBX 16 14 1 0
BITMAP
3FC0
20C0
20C0
20C0
20C0
20C0
20C0
20DF
20DF
20C4
20C4
60CC
E06C
C078
ENDCHAR
STARTCHAR 0509
ENCODING 1289
SWIDTH 720 0
DWIDTH 16 0
BBX 15 10 1 0
BITMAP
3F80
3F80
2180
21BE
21BE
2198
2198
6198
E0D8
C0F0
ENDCHAR
STARTCHAR 050A
ENCODING 1290
SWIDTH 765 0
DWIDTH 17 0
BBX 15 14 1 0
BITMAP
C080
C080
C080
C080
C080
C080
FF80
FFBE
C0BE
C08C
C08C
C088
C0D8
C070
ENDCHAR
STARTCHAR 050B
ENCODING 1291
SWIDTH 675 0
DWIDTH 15 0
BBX 14 10 1 0
BITMAP
C300
C300
C300
C37C
FF7C
FF30
C330
C330
C3F0
C1E0
ENDCHAR
STARTCHAR 050C
ENCODING 1292
SWIDTH 630 0
DWIDTH 14 0
BBX 13 15 1 0
BITMAP
0600
1F80
30C0
6060
6000
C000
C000
C0F8
C0F8
C060
C060
6060
6060
39C0
1F80
ENDCHAR
STARTCHAR 050D
ENCODING 1293
SWIDTH 495 0
DWIDTH 11 0
BBX 10 10 1 0
BITMAP
3E00
7700
4300
C000
C000
C7C0
C100
4300
7700
3E00
ENDCHAR
STARTCHAR 050E
ENCODING 1294
SWIDTH 585 0
DWIDTH 13 0
BBX 11 14 1 0
BITMAP
FF80
0800
0800
0800
0800
0800
0800
09E0
09E0
08C0
08C0
0CC0
0D80
0780
ENDCHAR
STARTCHAR 050F
ENCODING 1295
SWIDTH 540 0
DWIDTH 12 0
BBX 10 10 1 0
BITMAP
FE00
FE00
1000
17C0
17C0
1180
1180
1100
1B00
0E00
ENDCHAR
STARTCHAR 0510
ENCODING 1296
SWIDTH 450 0
DWIDTH 10 0
BBX 9 15 1 0
BITMAP
0800
7E00
6300
C180
C000
C000
7000
7C00
E000
C000
8000
8080
C180
7700
3E00
ENDCHAR
STARTCHAR 0511
ENCODING 1297
SWIDTH 360 0
DWIDTH 8 0
BBX 7 10 1 0
BITMAP
78
6C
4C
60
70
E0
C0
C6
EC
78
ENDCHAR
STARTCHAR 0512
ENCODING 1298
SWIDTH 495 0
DWIDTH 11 0
BBX 10 19 1 -5
BITMAP
3FC0
20C0
20C0
20C0
20C0
20C0
20C0
20C0
20C0
20C0
20C0
60C0
E0C0
C0C0
00C0
00C0
00C0
0780
0200
ENDCHAR
STARTCHAR 0513
ENCODING 1299
SWIDTH 450 0
DWIDTH 10 0
BBX 9 15 1 -5
BITMAP
3F80
3F80
2180
2180
2180
2180
2180
6180
E180
C180
0180
0180
0180
0F00
0400
ENDCHAR
STARTCHAR 0514
ENCODING 1300
SWIDTH 855 0
DWIDTH 19 0
BBX 17 14 1 0
BITMAP
3F0180
218300
218600
20C600
206C00
203800
203800
203800
206C00
206C00
20C600
618300
E30300
C30180
ENDCHAR
STARTCHAR 0515
ENCODING 1301
SWIDTH 675 0
DWIDTH 15 0
BBX 13 10 1 0
BITMAP
3E18
3F18
2330
21E0
20E0
20C0
21E0
6330
E318
C618
ENDCHAR
STARTCHAR 0516
ENCODING 1302
SWIDTH 630 0
DWIDTH 14 0
BBX 12 14 1 0
BITMAP
FE30
C760
C160
C1C0
C180
C300
FF00
FF00
C180
C180
C0C0
C060
C030
C030
ENDCHAR
STARTCHAR 0517
ENCODING 1303
SWIDTH 630 0
DWIDTH 14 0
BBX 12 15 1 -5
BITMAP
FE30
F730
C360
C1C0
C180
C180
C1C0
C360
F730
FE30
C000
C000
C000
C000
4000
ENDCHAR
STARTCHAR 0518
ENCODING 1304
SWIDTH 855 0
DWIDTH 19 0
BBX 17 14 1 0
BITMAP
1FFF80
30C000
60C000
60C000
60C000
38C000
1FFF00
0CFF00
18C000
18C000
30C000
20C000
60FF80
C0FF80
ENDCHAR
STARTCHAR 0519
ENCODING 1305
SWIDTH 720 0
DWIDTH 16 0
BBX 14 10 1 0
BITMAP
3EF0
7FB8
630C
620C
3FFC
1A00
3200
230C
61B8
C0F0
ENDCHAR
STARTCHAR 051A
ENCODING 1306
SWIDTH 630 0
DWIDTH 14 0
BBX 14 17 1 -2
BITMAP
0600
1F80
30C0
6060
6020
C030
C030
C030
C030
C030
CF30
6FE0
61E0
39C0
1FC8
007C
0010
ENDCHAR
STARTCHAR 051B
ENCODING 1307
SWIDTH 450 0
DWIDTH 10 0
BBX 9 15 1 -5
BITMAP
3F80
7780
4380
C180
C180
C180
C180
4380
7780
3F80
0180
0180
0180
0180
0080
ENDCHAR
STARTCHAR 051C
ENCODING 1308
SWIDTH 855 0
DWIDTH 19 0
BBX 17 14 1 0
BITMAP
C0C180
41C180
61C100
614300
636300
236300
332200
323600
363600
163600
1E1400
1C1C00
0C1C00
0C1800
ENDCHAR
STARTCHAR 051D
ENCODING 1309
SWIDTH 630 0
DWIDTH 14 0
BBX 12 10 1 0
BITMAP
C610
C730
4730
6730
6D20
2DE0
39E0
39C0
38C0
18C0
ENDCHAR
STARTCHAR 051E
ENCODING 1310
SWIDTH 495 0
DWIDTH 11 0
BBX 9 15 1 0
BITMAP
0080
CF80
CE00
C700
CF00
CC00
CC00
F800
F800
CC00
C600
C600
C300
C180
C080
ENDCHAR
STARTCHAR 051F
ENCODING 1311
SWIDTH 405 0
DWIDTH 9 0
BBX 8 10 1 0
BITMAP
F6
DC
DC
DE
F8
F8
CC
CC
C6
C3
ENDCHAR
STARTCHAR 0520
ENCODING 1312
SWIDTH 810 0
DWIDTH 18 0
BBX 16 19 1 -5
BITMAP
3FC0
20C0
20C0
20C0
20F8
20DC
20C6
20C3
20C3
20C1
20C1
60C1
E0C1
C0C3
0003
0306
038E
01F8
0020
ENDCHAR
STARTCHAR 0521
ENCODING 1313
SWIDTH 675 0
DWIDTH 15 0
BBX 14 15 1 -5
BITMAP
3F80
3F80
2180
2180
21E0
21F0
2198
6188
E18C
C18C
000C
0218
0318
01F0
0040
ENDCHAR
STARTCHAR 0522
ENCODING 1314
SWIDTH 765 0
DWIDTH 17 0
BBX 16 19 1 -5
BITMAP
C080
C080
C080
C080
C0F0
C0BC
FF8C
FF86
C082
C083
C083
C083
C083
C082
0006
0606
031C
01F8
0060
ENDCHAR
STARTCHAR 0523
ENCODING 1315
SWIDTH 630 0
DWIDTH 14 0
BBX 13 15 1 -5
BITMAP
C300
C300
C300
C300
FFC0
FFE0
C330
C310
C318
C318
0010
0430
0630
03E0
0080
ENDCHAR
STARTCHAR 0524
ENCODING 1316
SWIDTH 540 0
DWIDTH 12 0
BBX 11 17 1 -3
BITMAP
FF80
C080
C080
C080
C080
C080
C080
C080
C080
C080
C080
C080
C0E0
C0E0
0060
0060
0060
ENDCHAR
STARTCHAR 0525
ENCODING 1317
SWIDTH 495 0
DWIDTH 11 0
BBX 9 13 1 -3
BITMAP
FF00
FF00
C300
C300
C300
C300
C300
C300
C380
C380
0080
0080
0080
ENDCHAR
STARTCHAR 0526
ENCODING 1318
SWIDTH 585 0
DWIDTH 13 0
BBX 11 17 1 -3
BITMAP
C000
C000
C000
C000
C000
FE00
FF00
C180
C080
C0C0
C0C0
C0C0
C0E0
C0E0
0020
0020
0020
ENDCHAR
STARTCHAR 0527
ENCODING 1319
SWIDTH 540 0
DWIDTH 12 0
BBX 10 17 1 -3
BITMAP
C000
C000
C000
C000
DE00
F700
E100
C180
C180
C180
C180
C180
C1C0
C1C0
0040
0040
0040
ENDCHAR
STARTCHAR 0528
ENCODING 1320
SWIDTH 495 0
DWIDTH 11 0
BBX 12 19 -2 -5
BITMAP
1810
1810
1810
1810
1810
1810
1FF0
1FF0
1810
1810
1810
1810
1810
1810
1800
1800
1800
F000
4000
ENDCHAR
STARTCHAR 0529
ENCODING 1321
SWIDTH 405 0
DWIDTH 9 0
BBX 11 15 -2 -5
BITMAP
1860
1860
1860
1860
1FE0
1FE0
1860
1860
1860
1860
1800
1800
1800
F000
4000
ENDCHAR
STARTCHAR 052A
ENCODING 1322
SWIDTH 1170 0
DWIDTH 26 0
BBX 24 18 1 -3
BITMAP
000002
1FE30E
182318
182310
182310
182330
182330
1823E0
183FE0
182330
182318
182308
18230C
FFFB06
FFFB03
C01800
C01800
C01800
ENDCHAR
STARTCHAR 052B
ENCODING 1323
SWIDTH 990 0
DWIDTH 22 0
BBX 20 13 1 -3
BITMAP
1F8C60
1F8CC0
188D80
188D80
188F80
18FF80
188CC0
188CC0
FFEC60
FFEC30
C06000
C06000
C06000
ENDCHAR
STARTCHAR 052C
ENCODING 1324
SWIDTH 675 0
DWIDTH 15 0
BBX 13 17 1 -3
BITMAP
2060
20E0
20A0
21A0
3320
3620
1E60
0FE0
1FA0
1820
3020
6020
FFF8
FFF8
C018
C018
C018
ENDCHAR
STARTCHAR 052D
ENCODING 1325
SWIDTH 585 0
DWIDTH 13 0
BBX 11 13 1 -3
BITMAP
3180
3380
3380
1680
1F80
1F80
1880
3080
FFE0
FFE0
C060
C060
C060
ENDCHAR
STARTCHAR 052E
ENCODING 1326
SWIDTH 585 0
DWIDTH 13 0
BBX 11 17 1 -3
BITMAP
3FC0
20C0
20C0
20C0
20C0
20C0
20C0
20C0
20C0
20C0
20C0
60C0
E0E0
C0E0
0020
0020
0020
ENDCHAR
STARTCHAR 052F
ENCODING 1327
SWIDTH 540 0
DWIDTH 12 0
BBX 10 13 1 -3
BITMAP
3F80
3F80
2180
2180
2180
2180
2180
6180
E1C0
C1C0
0040
0040
0040
ENDCHAR
STARTCHAR 0531
ENCODING 1329
SWIDTH 720 0
DWIDTH 16 0
BBX 15 14 1 0
BITMAP
C060
C060
C060
C060
C060
C060
C060
C060
C07C
C06C
C066
60C6
3B86
1F06
ENDCHAR
STARTCHAR 0532
ENCODING 1330
SWIDTH 405 0
DWIDTH 9 0
BBX 8 14 1 0
BITMAP
3C
66
C3
C0
C0
C0
FF
FF
C0
C0
C0
C0
C0
C0
ENDCHAR
STARTCHAR 0533
ENCODING 1331
SWIDTH 630 0
DWIDTH 14 0
BBX 12 14 1 0
BITMAP
3F80
6180
C180
C180
C180
7180
3FF0
0180
0180
0180
0180
0180
0180
0180
ENDCHAR
STARTCHAR 0534
ENCODING 1332
SWIDTH 585 0
DWIDTH 13 0
BBX 11 14 1 0
BITMAP
3C00
6600
C300
0300
03C0
03E0
0360
0320
0300
0300
0300
0300
0300
0300
ENDCHAR
STARTCHAR 0535
ENCODING 1333
SWIDTH 585 0
DWIDTH 13 0
BBX 11 14 1 0
BITMAP
C000
C000
C000
C000
FFE0
FFE0
C000
C000
C000
C060
C060
60C0
3B80
1F00
ENDCHAR
STARTCHAR 0536
ENCODING 1334
SWIDTH 585 0
DWIDTH 13 0
BBX 11 15 1 0
BITMAP
0400
1F00
3180
60C0
60C0
60C0
60C0
3BC0
1F80
0180
0180
C300
C300
FFE0
FFE0
ENDCHAR
STARTCHAR 0537
ENCODING 1335
SWIDTH 495 0
DWIDTH 11 0
BBX 9 14 1 0
BITMAP
C000
C000
C000
C000
FF80
FF80
C000
C000
C000
C000
C000
C000
FF80
FF80
ENDCHAR
STARTCHAR 0538
ENCODING 1336
SWIDTH 405 0
DWIDTH 9 0
BBX 8 14 1 0
BITMAP
3C
66
C3
C0
C0
C0
C0
C0
C0
C0
C0
C0
FF
FF
ENDCHAR
STARTCHAR 0539
ENCODING 1337
SWIDTH 495 0
DWIDTH 11 0
BBX 9 14 1 0
BITMAP
3C00
6600
C300
C300
CF80
DF80
D300
DE00
CE00
C000
C000
C000
C000
C000
ENDCHAR
STARTCHAR 053A
ENCODING 1338
SWIDTH 540 0
DWIDTH 12 0
BBX 10 14 1 0
BITMAP
0180
0180
0180
0180
0180
0180
3FC0
7180
C180
C180
C180
C180
7F80
3F80
ENDCHAR
STARTCHAR 053B
ENCODING 1339
SWIDTH 405 0
DWIDTH 9 0
BBX 8 14 1 0
BITMAP
C0
C0
C0
C0
F8
EC
CC
C4
C7
C3
C0
C0
C0
C0
ENDCHAR
STARTCHAR 053C
ENCODING 1340
SWIDTH 495 0
DWIDTH 11 0
BBX 9 14 1 0
BITMAP
C000
C000
C000
C000
C000
C000
C000
C000
C000
C000
C000
C000
FF80
FF80
ENDCHAR
STARTCHAR 053D
ENCODING 1341
SWIDTH 630 0
DWIDTH 14 0
BBX 12 14 1 0
BITMAP
C000
C000
C000
C000
FC10
EE10
C610
C210
C310
C310
C330
C1E0
C000
C000
ENDCHAR
STARTCHAR 053E
ENCODING 1342
SWIDTH 810 0
DWIDTH 18 0
BBX 16 14 1 0
BITMAP
C000
FFFF
FFFF
0C39
1819
100C
300C
3004
3004
300C
180C
1818
0E70
07E0
ENDCHAR
STARTCHAR 053F
ENCODING 1343
SWIDTH 495 0
DWIDTH 11 0
BBX 10 14 1 0
BITMAP
C000
C000
C0C0
C0C0
C0C0
40C0
60C0
3FC0
0EC0
00C0
00C0
00C0
00C0
00C0
ENDCHAR
STARTCHAR 0540
ENCODING 1344
SWIDTH 495 0
DWIDTH 11 0
BBX 10 16 1 -1
BITMAP
0C00
1800
1800
3000
1C00
0F00
0600
0600
0C00
1800
1800
3000
7FC0
FFC0
0080
0080
ENDCHAR
STARTCHAR 0541
ENCODING 1345
SWIDTH 495 0
DWIDTH 11 0
BBX 10 15 1 0
BITMAP
0800
3E00
6300
C180
C180
C180
C180
7780
3F00
0300
0300
6600
FEC0
DDC0
7780
ENDCHAR
STARTCHAR 0542
ENCODING 1346
SWIDTH 585 0
DWIDTH 13 0
BBX 11 14 1 0
BITMAP
3C00
6600
C300
0300
0300
0300
0300
0300
0300
0300
0300
0300
03E0
03E0
ENDCHAR
STARTCHAR 0543
ENCODING 1347
SWIDTH 495 0
DWIDTH 11 0
BBX 11 15 0 0
BITMAP
0300
CFC0
7860
3000
3800
6C00
6600
6300
6180
60C0
6040
6060
6060
7FE0
7FE0
ENDCHAR
STARTCHAR 0544
ENCODING 1348
SWIDTH 720 0
DWIDTH 16 0
BBX 15 14 1 0
BITMAP
C078
C06C
C066
C066
C066
C060
C060
C060
C060
C060
C060
60C0
3B80
1F00
ENDCHAR
STARTCHAR 0545
ENCODING 1349
SWIDTH 585 0
DWIDTH 13 0
BBX 11 15 1 0
BITMAP
0400
3F80
71C0
4040
0040
00C0
03C0
7F80
01C0
0060
0060
C060
C060
71C0
1F80
ENDCHAR
STARTCHAR 0546
ENCODING 1350
SWIDTH 720 0
DWIDTH 16 0
BBX 15 14 1 0
BITMAP
FC00
0C00
0C00
0C00
0C00
0C00
0C00
0C00
0C00
0C06
0C04
060C
0738
01F0
ENDCHAR
STARTCHAR 0547
ENCODING 1351
SWIDTH 630 0
DWIDTH 14 0
BBX 12 15 1 0
BITMAP
1000
7C60
DE60
F3C0
3000
6000
6000
6000
6000
6000
2000
3030
3830
1CE0
07C0
ENDCHAR
STARTCHAR 0548
ENCODING 1352
SWIDTH 585 0
DWIDTH 13 0
BBX 11 15 1 0
BITMAP
0400
3F80
71C0
60C0
C060
C060
C060
C060
C060
C060
C060
C060
C060
C060
C060
ENDCHAR
STARTCHAR 0549
ENCODING 1353
SWIDTH 585 0
DWIDTH 13 0
BBX 11 15 1 0
BITMAP
0400
1F00
3180
60C0
60C0
60C0
60C0
3BC0
1F80
0180
0180
E300
FF00
0FC0
00E0
ENDCHAR
STARTCHAR 054A
ENCODING 1354
SWIDTH 585 0
DWIDTH 13 0
BBX 11 15 1 0
BITMAP
0400
3F80
75C0
64C0
C460
C460
0460
0460
0460
0460
0060
0060
0060
0060
0060
ENDCHAR
STARTCHAR 054B
ENCODING 1355
SWIDTH 585 0
DWIDTH 13 0
BBX 11 15 1 0
BITMAP
0400
1F00
3180
60C0
60C0
60C0
78C0
7CC0
0680
0380
0380
C300
C300
FFE0
FFE0
ENDCHAR
STARTCHAR 054C
ENCODING 1356
SWIDTH 720 0
DWIDTH 16 0
BBX 15 15 1 0
BITMAP
0400
3F80
71C0
60C0
C060
C078
C07C
C066
C066
C066
C060
C060
C060
C060
C060
ENDCHAR
STARTCHAR 054D
ENCODING 1357
SWIDTH 585 0
DWIDTH 13 0
BBX 11 14 1 0
BITMAP
C060
C060
C060
C060
C060
C060
C060
C060
C060
C060
C060
60C0
3B80
1F00
ENDCHAR
STARTCHAR 054E
ENCODING 1358
SWIDTH 810 0
DWIDTH 18 0
BBX 16 14 1 0
BITMAP
0180
0180
0180
0180
C180
C180
C380
6780
3D80
0180
0180
0180
01FF
01FF
ENDCHAR
STARTCHAR 054F
ENCODING 1359
SWIDTH 450 0
DWIDTH 10 0
BBX 9 15 1 0
BITMAP
0800
3E00
6300
4300
4000
6000
7000
1C00
0700
0300
0180
C180
C180
7700
3E00
ENDCHAR
STARTCHAR 0550
ENCODING 1360
SWIDTH 405 0
DWIDTH 9 0
BBX 8 15 1 0
BITMAP
10
7C
E6
C3
C0
C0
C0
C0
C0
C0
C0
C0
C0
C0
C0
ENDCHAR
STARTCHAR 0551
ENCODING 1361
SWIDTH 585 0
DWIDTH 13 0
BBX 11 15 1 0
BITMAP
0400
3F80
71C0
4040
4040
60C0
7BC0
FF80
01C0
0060
0060
C060
C060
71C0
1F80
ENDCHAR
STARTCHAR 0552
ENCODING 1362
SWIDTH 495 0
DWIDTH 11 0
BBX 9 14 1 0
BITMAP
C000
C000
C000
C000
FF80
FF80
C000
C000
C000
C000
C000
C000
C000
C000
ENDCHAR
STARTCHAR 0553
ENCODING 1363
SWIDTH 585 0
DWIDTH 13 0
BBX 11 14 1 0
BITMAP
0400
0400
0400
3F80
75C0
C460
C460
C460
C460
7FC0
1F00
0400
0400
0400
ENDCHAR
STARTCHAR 0554
ENCODING 1364
SWIDTH 540 0
DWIDTH 12 0
BBX 10 15 1 0
BITMAP
0200
1F80
38C0
30C0
2040
2040
30C0
3F80
2F00
2000
2000
FFC0
FFC0
2000
2000
ENDCHAR
STARTCHAR 0555
ENCODING 1365
SWIDTH 630 0
DWIDTH 14 0
BBX 12 15 1 0
BITMAP
0600
1F80
30C0
6060
6020
C030
C030
C030
C030
C030
C030
6060
6060
39C0
1F80
ENDCHAR
STARTCHAR 0556
ENCODING 1366
SWIDTH 630 0
DWIDTH 14 0
BBX 12 14 1 0
BITMAP
1E00
3E00
3600
3600
1F80
07C0
0660
0630
0630
C630
C630
6660
3FE0
1F80
ENDCHAR
STARTCHAR 0559
ENCODING 1369
SWIDTH 180 0
DWIDTH 4 0
BBX 3 5 1 10
BITMAP
40
80
80
C0
E0
ENDCHAR
STARTCHAR 055A
ENCODING 1370
SWIDTH 180 0
DWIDTH 4 0
BBX 3 5 1 10
BITMAP
E0
E0
20
40
C0
ENDCHAR
STARTCHAR 055B
ENCODING 1371
SWIDTH 225 0
DWIDTH 5 0
BBX 3 3 1 11
BITMAP
60
40
80
ENDCHAR
STARTCHAR 055C
ENCODING 1372
SWIDTH 405 0
DWIDTH 9 0
BBX 8 3 1 11
BITMAP
71
9E
84
ENDCHAR
STARTCHAR 055D
ENCODING 1373
SWIDTH 225 0
DWIDTH 5 0
BBX 3 3 2 11
BITMAP
C0
40
20
ENDCHAR
STARTCHAR 055E
ENCODING 1374
SWIDTH 450 0
DWIDTH 10 0
BBX 8 7 1 8
BITMAP
08
3F
63
C1
C3
1F
04
ENDCHAR
STARTCHAR 055F
ENCODING 1375
SWIDTH 360 0
DWIDTH 8 0
BBX 7 3 1 11
BITMAP
C0
FE
FE
ENDCHAR
STARTCHAR 0560
ENCODING 1376
SWIDTH 585 0
DWIDTH 13 0
BBX 11 10 1 0
BITMAP
F9C0
EF60
C620
C620
C620
C620
C620
C620
C620
C620
ENDCHAR
STARTCHAR 0561
ENCODING 1377
SWIDTH 585 0
DWIDTH 13 0
BBX 11 10 1 0
BITMAP
C620
C620
C620
C620
C620
C620
C620
CE60
7EE0
7BE0
ENDCHAR
STARTCHAR 0562
ENCODING 1378
SWIDTH 450 0
DWIDTH 10 0
BBX 9 15 1 -5
BITMAP
DE00
F700
E100
C180
C180
C180
C180
C000
FF80
FF80
C000
C000
C000
C000
4000
ENDCHAR
STARTCHAR 0563
ENCODING 1379
SWIDTH 630 0
DWIDTH 14 0
BBX 13 15 1 -5
BITMAP
3F80
7780
4380
C180
C180
C180
C180
4380
77F8
3FF8
0180
0180
0180
0180
0080
ENDCHAR
STARTCHAR 0564
ENCODING 1380
SWIDTH 630 0
DWIDTH 14 0
BBX 12 15 1 -5
BITMAP
DE00
F700
E100
C180
C180
C180
C180
C180
C1F0
C1F0
0180
0180
0180
0180
0080
ENDCHAR
STARTCHAR 0565
ENCODING 1381
SWIDTH 450 0
DWIDTH 10 0
BBX 9 14 1 0
BITMAP
C000
FF80
FF80
C000
C000
C000
C180
C180
C180
C180
C180
C380
6780
3D80
ENDCHAR
STARTCHAR 0566
ENCODING 1382
SWIDTH 450 0
DWIDTH 10 0
BBX 13 14 1 -4
BITMAP
3F80
7780
4380
C180
C180
C180
C180
4380
7780
3F80
0180
0180
0180
01F8
ENDCHAR
STARTCHAR 0567
ENCODING 1383
SWIDTH 360 0
DWIDTH 8 0
BBX 6 14 1 0
BITMAP
C0
C0
C0
C0
FC
FC
C0
C0
C0
C0
C0
C0
FC
FC
ENDCHAR
STARTCHAR 0568
ENCODING 1384
SWIDTH 450 0
DWIDTH 10 0
BBX 9 14 1 -4
BITMAP
DE00
F700
E100
C180
C180
C180
C180
C180
C180
C180
C000
C000
C000
FF80
ENDCHAR
STARTCHAR 0569
ENCODING 1385
SWIDTH 540 0
DWIDTH 12 0
BBX 10 15 1 -5
BITMAP
DE00
F700
E100
C180
C180
C7C0
CFC0
C980
CD80
C700
C000
C000
C000
C000
4000
ENDCHAR
STARTCHAR 056A
ENCODING 1386
SWIDTH 495 0
DWIDTH 11 0
BBX 10 14 1 0
BITMAP
0100
0100
0100
0100
3FC0
7100
4100
C100
C100
C100
C100
4300
7700
3E00
ENDCHAR
STARTCHAR 056B
ENCODING 1387
SWIDTH 450 0
DWIDTH 10 0
BBX 9 19 1 -5
BITMAP
C000
C000
C000
C000
DE00
F700
E100
C180
C180
C180
C180
C180
C180
C180
C000
C000
C000
C000
4000
ENDCHAR
STARTCHAR 056C
ENCODING 1388
SWIDTH 360 0
DWIDTH 8 0
BBX 6 14 1 -4
BITMAP
C0
C0
C0
C0
C0
C0
C0
C0
C0
C0
C0
C0
C0
FC
ENDCHAR
STARTCHAR 056D
ENCODING 1389
SWIDTH 540 0
DWIDTH 12 0
BBX 11 19 1 -5
BITMAP
C000
C000
C000
C000
F860
EC60
CC60
C460
C460
C460
C460
C460
C6E0
C3E0
C000
C000
C000
C000
4000
ENDCHAR
STARTCHAR 056E
ENCODING 1390
SWIDTH 450 0
DWIDTH 10 0
BBX 9 15 1 0
BITMAP
1000
3800
7000
3800
1C00
3F80
7700
4300
C180
C180
C180
C180
4300
7700
3E00
ENDCHAR
STARTCHAR 056F
ENCODING 1391
SWIDTH 450 0
DWIDTH 10 0
BBX 9 19 1 -5
BITMAP
C000
C000
C000
C000
C180
C180
C180
C180
C180
C180
C180
C380
6780
3D80
0180
0180
0180
0180
0080
ENDCHAR
STARTCHAR 0570
ENCODING 1392
SWIDTH 450 0
DWIDTH 10 0
BBX 9 14 1 0
BITMAP
C000
C000
C000
C000
DE00
F700
E100
C180
C180
C180
C180
C180
C180
C180
ENDCHAR
STARTCHAR 0571
ENCODING 1393
SWIDTH 495 0
DWIDTH 11 0
BBX 10 14 1 1
BITMAP
3000
6000
3000
1800
3000
6000
7E00
F600
C300
C300
C100
4380
7780
3EC0
ENDCHAR
STARTCHAR 0572
ENCODING 1394
SWIDTH 450 0
DWIDTH 10 0
BBX 13 14 1 -4
BITMAP
DE00
F700
E100
C180
C180
C180
C180
C180
C180
C180
0180
0180
0180
01F8
ENDCHAR
STARTCHAR 0573
ENCODING 1395
SWIDTH 585 0
DWIDTH 13 0
BBX 11 15 1 0
BITMAP
0100
07C0
0CE0
1860
1000
3000
3000
3F00
7D80
E080
20C0
30C0
30C0
19E0
0F60
ENDCHAR
STARTCHAR 0574
ENCODING 1396
SWIDTH 450 0
DWIDTH 10 0
BBX 11 14 1 1
BITMAP
03C0
0660
0460
0600
C700
C300
C180
C180
C180
C180
C180
C380
6780
3D80
ENDCHAR
STARTCHAR 0575
ENCODING 1397
SWIDTH 135 0
DWIDTH 3 0
BBX 5 15 -2 -5
BITMAP
18
18
18
18
18
18
18
18
18
18
18
18
18
F0
40
ENDCHAR
STARTCHAR 0576
ENCODING 1398
SWIDTH 630 0
DWIDTH 14 0
BBX 12 14 1 0
BITMAP
F800
1800
1800
1800
1830
1830
1830
1830
1830
1830
1830
0C70
0EF0
07F0
ENDCHAR
STARTCHAR 0577
ENCODING 1399
SWIDTH 405 0
DWIDTH 9 0
BBX 8 14 1 -4
BITMAP
3C
6E
C3
C3
03
06
0E
1C
38
60
60
C0
C0
FF
ENDCHAR
STARTCHAR 0578
ENCODING 1400
SWIDTH 450 0
DWIDTH 10 0
BBX 9 10 1 0
BITMAP
DE00
F700
E100
C180
C180
C180
C180
C180
C180
C180
ENDCHAR
STARTCHAR 0579
ENCODING 1401
SWIDTH 405 0
DWIDTH 9 0
BBX 8 14 1 -4
BITMAP
0C
1C
38
70
70
38
1C
1C
38
60
60
C0
C0
FF
ENDCHAR
STARTCHAR 057A
ENCODING 1402
SWIDTH 585 0
DWIDTH 13 0
BBX 11 14 1 -5
BITMAP
C620
C620
C620
C620
C620
C620
C620
CE60
7EE0
7BE0
0020
0020
0020
0020
ENDCHAR
STARTCHAR 057B
ENCODING 1403
SWIDTH 405 0
DWIDTH 9 0
BBX 8 14 1 -4
BITMAP
3C
6E
C3
C3
C3
C6
6E
3C
38
60
60
C0
C0
FF
ENDCHAR
STARTCHAR 057C
ENCODING 1404
SWIDTH 495 0
DWIDTH 11 0
BBX 10 10 1 0
BITMAP
FE00
F700
C300
C180
C180
C180
C180
C300
C7C0
C7C0
ENDCHAR
STARTCHAR 057D
ENCODING 1405
SWIDTH 450 0
DWIDTH 10 0
BBX 9 10 1 0
BITMAP
C180
C180
C180
C180
C180
C180
C180
C380
6780
3D80
ENDCHAR
STARTCHAR 057E
ENCODING 1406
SWIDTH 450 0
DWIDTH 10 0
BBX 13 18 1 -4
BITMAP
0180
0180
0180
0180
C180
C180
C180
C180
C180
C180
C180
C380
6780
3D80
0180
0180
0180
01F8
ENDCHAR
STARTCHAR 057F
ENCODING 1407
SWIDTH 765 0
DWIDTH 17 0
BBX 16 10 1 0
BITMAP
C1BC
C1EE
C1C2
C183
C183
C183
C183
C383
6783
3D83
ENDCHAR
STARTCHAR 0580
ENCODING 1408
SWIDTH 450 0
DWIDTH 10 0
BBX 9 15 1 -5
BITMAP
DE00
F700
E100
C180
C180
C180
C180
C180
C180
C180
C000
C000
C000
C000
4000
ENDCHAR
STARTCHAR 0581
ENCODING 1409
SWIDTH 450 0
DWIDTH 10 0
BBX 9 15 1 -5
BITMAP
3F80
7780
4380
C180
C180
C180
C180
4380
7780
3F80
0180
0180
6300
7F00
0800
ENDCHAR
STARTCHAR 0582
ENCODING 1410
SWIDTH 360 0
DWIDTH 8 0
BBX 6 10 1 0
BITMAP
C0
C0
C0
C0
C0
C0
C0
C0
FC
FC
ENDCHAR
STARTCHAR 0583
ENCODING 1411
SWIDTH 765 0
DWIDTH 17 0
BBX 16 19 1 -5
BITMAP
0180
0180
0180
0180
C1BC
C1EE
C1C2
C183
C183
C183
C183
C383
6783
3D83
0180
0180
0180
0180
0080
ENDCHAR
STARTCHAR 0584
ENCODING 1412
SWIDTH 450 0
DWIDTH 10 0
BBX 10 15 0 -5
BITMAP
7F00
7B80
6080
60C0
60C0
60C0
7180
7F00
6000
6000
FFC0
FFC0
6000
6000
2000
ENDCHAR
STARTCHAR 0585
ENCODING 1413
SWIDTH 450 0
DWIDTH 10 0
BBX 9 10 1 0
BITMAP
3E00
7700
4300
C180
C180
C180
C180
4300
7700
3E00
ENDCHAR
STARTCHAR 0586
ENCODING 1414
SWIDTH 450 0
DWIDTH 10 0
BBX 9 18 1 -5
BITMAP
3800
3800
6800
2800
3E00
0F00
0B00
0980
0980
C980
C980
4B00
7F00
3E00
0800
0800
0800
0800
ENDCHAR
STARTCHAR 0587
ENCODING 1415
SWIDTH 675 0
DWIDTH 15 0
BBX 13 14 1 0
BITMAP
C000
C000
C000
C000
C180
C180
C180
C180
C180
C180
C180
C380
67F8
3DF8
ENDCHAR
STARTCHAR 0588
ENCODING 1416
SWIDTH 315 0
DWIDTH 7 0
BBX 7 15 0 -5
BITMAP
18
18
18
18
7E
7E
18
18
18
18
18
18
18
F0
40
ENDCHAR
STARTCHAR 0589
ENCODING 1417
SWIDTH 180 0
DWIDTH 4 0
BBX 2 10 1 0
BITMAP
C0
C0
00
00
00
00
00
00
C0
C0
ENDCHAR
STARTCHAR 058A
ENCODING 1418
SWIDTH 405 0
DWIDTH 9 0
BBX 7 4 1 3
BITMAP
C0
C0
7E
3C
ENDCHAR
STARTCHAR 058D
ENCODING 1421
SWIDTH 720 0
DWIDTH 16 0
BBX 15 15 1 0
BITMAP
0100
06C0
39B8
5208
527C
5284
CB02
C7FA
B3CA
8EA4
42A4
7CA4
4128
3230
0FC0
ENDCHAR
STARTCHAR 058E
ENCODING 1422
SWIDTH 720 0
DWIDTH 16 0
BBX 15 15 1 0
BITMAP
0100
06C0
3B38
4128
7CA4
42A4
81A6
BFCA
C792
CB64
5284
527C
5208
3990
07E0
ENDCHAR
STARTCHAR 058F
ENCODING 1423
SWIDTH 585 0
DWIDTH 13 0
BBX 11 14 1 0
BITMAP
3C00
6600
C300
0300
0300
0300
0FE0
1FC0
0300
1FC0
3F80
0300
0300
0300
ENDCHAR
STARTCHAR 0591
ENCODING 1425
SWIDTH 0 0
DWIDTH 0 0
BBX 6 6 -3 -7
BITMAP
30
30
30
CC
84
84
ENDCHAR
STARTCHAR 0592
ENCODING 1426
SWIDTH 0 0
DWIDTH 0 0
BBX 6 5 -3 11
BITMAP
30
30
00
CC
CC
ENDCHAR
STARTCHAR 0593
ENCODING 1427
SWIDTH 0 0
DWIDTH 0 0
BBX 6 6 -3 11
BITMAP
38
F0
1C
E0
1C
F0
ENDCHAR
STARTCHAR 0594
ENCODING 1428
SWIDTH 0 0
DWIDTH 0 0
BBX 2 6 -1 11
BITMAP
C0
C0
00
00
C0
C0
ENDCHAR
STARTCHAR 0595
ENCODING 1429
SWIDTH 0 0
DWIDTH 0 0
BBX 5 6 -2 11
BITMAP
10
B8
90
80
B8
B8
ENDCHAR
STARTCHAR 0596
ENCODING 1430
SWIDTH 0 0
DWIDTH 0 0
BBX 4 4 -2 -5
BITMAP
80
C0
60
30
ENDCHAR
STARTCHAR 0597
ENCODING 1431
SWIDTH 0 0
DWIDTH 0 0
BBX 2 2 -1 11
BITMAP
C0
C0
ENDCHAR
STARTCHAR 0598
ENCODING 1432
SWIDTH 0 0
DWIDTH 0 0
BBX 6 4 -3 11
BITMAP
48
EC
B4
DC
ENDCHAR
STARTCHAR 0599
ENCODING 1433
SWIDTH 0 0
DWIDTH 0 0
BBX 4 4 -4 11
BITMAP
80
E0
20
10
ENDCHAR
STARTCHAR 059A
ENCODING 1434
SWIDTH 0 0
DWIDTH 0 0
BBX 3 6 -1 -7
BITMAP
20
40
80
80
40
20
ENDCHAR
STARTCHAR 059B
ENCODING 1435
SWIDTH 0 0
DWIDTH 0 0
BBX 4 4 -2 -5
BITMAP
C0
D0
10
60
ENDCHAR
STARTCHAR 059C
ENCODING 1436
SWIDTH 0 0
DWIDTH 0 0
BBX 4 4 -2 11
BITMAP
10
70
C0
80
ENDCHAR
STARTCHAR 059D
ENCODING 1437
SWIDTH 0 0
DWIDTH 0 0
BBX 4 4 2 11
BITMAP
10
70
40
80
ENDCHAR
STARTCHAR 059E
ENCODING 1438
SWIDTH 0 0
DWIDTH 0 0
BBX 7 4 -3 11
BITMAP
22
6E
90
90
ENDCHAR
STARTCHAR 059F
ENCODING 1439
SWIDTH 0 0
DWIDTH 0 0
BBX 10 5 -5 11
BITMAP
4080
F3C0
9240
F3C0
1E00
ENDCHAR
STARTCHAR 05A0
ENCODING 1440
SWIDTH 0 0
DWIDTH 0 0
BBX 5 5 0 11
BITMAP
10
78
48
78
C0
ENDCHAR
STARTCHAR 05A1
ENCODING 1441
SWIDTH 0 0
DWIDTH 0 0
BBX 4 5 -2 11
BITMAP
90
F0
C0
80
80
ENDCHAR
STARTCHAR 05A2
ENCODING 1442
SWIDTH 0 0
DWIDTH 0 0
BBX 6 6 -3 -7
BITMAP
84
84
78
30
30
30
ENDCHAR
STARTCHAR 05A3
ENCODING 1443
SWIDTH 0 0
DWIDTH 0 0
BBX 4 4 -2 -5
BITMAP
10
10
10
F0
ENDCHAR
STARTCHAR 05A4
ENCODING 1444
SWIDTH 0 0
DWIDTH 0 0
BBX 3 6 -1 -7
BITMAP
20
40
80
80
40
20
ENDCHAR
STARTCHAR 05A5
ENCODING 1445
SWIDTH 0 0
DWIDTH 0 0
BBX 4 4 -2 -5
BITMAP
10
30
60
C0
ENDCHAR
STARTCHAR 05A6
ENCODING 1446
SWIDTH 0 0
DWIDTH 0 0
BBX 8 4 -4 -5
BITMAP
13
12
26
C8
ENDCHAR
STARTCHAR 05A7
ENCODING 1447
SWIDTH 0 0
DWIDTH 0 0
BBX 4 6 -2 -7
BITMAP
60
80
80
70
10
70
ENDCHAR
STARTCHAR 05A8
ENCODING 1448
SWIDTH 0 0
DWIDTH 0 0
BBX 4 4 -2 11
BITMAP
80
E0
30
10
ENDCHAR
STARTCHAR 05A9
ENCODING 1449
SWIDTH 0 0
DWIDTH 0 0
BBX 5 5 -5 11
BITMAP
40
F0
90
F0
18
ENDCHAR
STARTCHAR 05AA
ENCODING 1450
SWIDTH 0 0
DWIDTH 0 0
BBX 6 3 -3 -4
BITMAP
84
CC
78
ENDCHAR
STARTCHAR 05AB
ENCODING 1451
SWIDTH 0 0
DWIDTH 0 0
BBX 4 6 -2 11
BITMAP
10
20
40
C0
60
30
ENDCHAR
STARTCHAR 05AC
ENCODING 1452
SWIDTH 0 0
DWIDTH 0 0
BBX 4 4 -2 11
BITMAP
10
10
10
F0
ENDCHAR
STARTCHAR 05AD
ENCODING 1453
SWIDTH 0 0
DWIDTH 0 0
BBX 4 4 3 -5
BITMAP
80
40
60
30
ENDCHAR
STARTCHAR 05AE
ENCODING 1454
SWIDTH 0 0
DWIDTH 0 0
BBX 6 4 -5 11
BITMAP
48
EC
A4
9C
ENDCHAR
STARTCHAR 05AF
ENCODING 1455
SWIDTH 0 0
DWIDTH 0 0
BBX 4 4 -2 11
BITMAP
60
F0
90
60
ENDCHAR
STARTCHAR 05B0
ENCODING 1456
SWIDTH 0 0
DWIDTH 0 0
BBX 2 6 -1 -7
BITMAP
C0
C0
00
00
C0
C0
ENDCHAR
STARTCHAR 05B1
ENCODING 1457
SWIDTH 0 0
DWIDTH 0 0
BBX 10 6 -6 -7
BITMAP
4CC0
ECC0
4C00
1000
30C0
10C0
ENDCHAR
STARTCHAR 05B2
ENCODING 1458
SWIDTH 0 0
DWIDTH 0 0
BBX 7 6 -3 -7
BITMAP
06
F6
00
00
06
06
ENDCHAR
STARTCHAR 05B3
ENCODING 1459
SWIDTH 0 0
DWIDTH 0 0
BBX 7 6 -3 -7
BITMAP
06
F6
40
40
46
46
ENDCHAR
STARTCHAR 05B4
ENCODING 1460
SWIDTH 0 0
DWIDTH 0 0
BBX 2 2 -1 -4
BITMAP
C0
C0
ENDCHAR
STARTCHAR 05B5
ENCODING 1461
SWIDTH 0 0
DWIDTH 0 0
BBX 6 3 -3 -4
BITMAP
CC
CC
48
ENDCHAR
STARTCHAR 05B6
ENCODING 1462
SWIDTH 0 0
DWIDTH 0 0
BBX 6 6 -3 -7
BITMAP
CC
CC
48
30
30
30
ENDCHAR
STARTCHAR 05B7
ENCODING 1463
SWIDTH 0 0
DWIDTH 0 0
BBX 6 1 -3 -3
BITMAP
FC
ENDCHAR
STARTCHAR 05B8
ENCODING 1464
SWIDTH 0 0
DWIDTH 0 0
BBX 6 4 -3 -6
BITMAP
FC
30
30
30
ENDCHAR
STARTCHAR 05B9
ENCODING 1465
SWIDTH 0 0
DWIDTH 0 0
BBX 2 2 1 11
BITMAP
C0
C0
ENDCHAR
STARTCHAR 05BA
ENCODING 1466
SWIDTH 0 0
DWIDTH 0 0
BBX 2 2 1 11
BITMAP
C0
C0
ENDCHAR
STARTCHAR 05BB
ENCODING 1467
SWIDTH 0 0
DWIDTH 0 0
BBX 8 5 -4 -5
BITMAP
80
C0
D8
1B
03
ENDCHAR
STARTCHAR 05BC
ENCODING 1468
SWIDTH 0 0
DWIDTH 0 0
BBX 2 2 -1 4
BITMAP
C0
C0
ENDCHAR
STARTCHAR 05BD
ENCODING 1469
SWIDTH 0 0
DWIDTH 0 0
BBX 2 6 -1 -7
BITMAP
C0
C0
C0
C0
C0
C0
ENDCHAR
STARTCHAR 05BE
ENCODING 1470
SWIDTH 315 0
DWIDTH 7 0
BBX 6 2 1 8
BITMAP
FC
FC
ENDCHAR
STARTCHAR 05BF
ENCODING 1471
SWIDTH 0 0
DWIDTH 0 0
BBX 6 1 -3 12
BITMAP
FC
ENDCHAR
STARTCHAR 05C0
ENCODING 1472
SWIDTH 135 0
DWIDTH 3 0
BBX 2 14 1 0
BITMAP
C0
C0
C0
C0
C0
C0
C0
C0
C0
C0
C0
C0
C0
C0
ENDCHAR
STARTCHAR 05C1
ENCODING 1473
SWIDTH 0 0
DWIDTH 0 0
BBX 2 2 2 11
BITMAP
C0
C0
ENDCHAR
STARTCHAR 05C2
ENCODING 1474
SWIDTH 0 0
DWIDTH 0 0
BBX 2 2 -4 11
BITMAP
C0
C0
ENDCHAR
STARTCHAR 05C3
ENCODING 1475
SWIDTH 180 0
DWIDTH 4 0
BBX 2 10 1 0
BITMAP
C0
C0
00
00
00
00
00
00
C0
C0
ENDCHAR
STARTCHAR 05C4
ENCODING 1476
SWIDTH 0 0
DWIDTH 0 0
BBX 2 2 -1 11
BITMAP
C0
C0
ENDCHAR
STARTCHAR 05C5
ENCODING 1477
SWIDTH 0 0
DWIDTH 0 0
BBX 2 2 -1 -4
BITMAP
C0
C0
ENDCHAR
STARTCHAR 05C6
ENCODING 1478
SWIDTH 270 0
DWIDTH 6 0
BBX 4 10 1 0
BITMAP
30
70
C0
C0
C0
C0
C0
C0
F0
F0
ENDCHAR
STARTCHAR 05C7
ENCODING 1479
SWIDTH 0 0
DWIDTH 0 0
BBX 6 6 -3 -8
BITMAP
FC
30
30
30
30
30
ENDCHAR
STARTCHAR 05D0
ENCODING 1488
SWIDTH 495 0
DWIDTH 11 0
BBX 9 10 1 0
BITMAP
C180
6100
3100
1B00
3B00
6E00
6600
4600
4300
4180
ENDCHAR
STARTCHAR 05D1
ENCODING 1489
SWIDTH 450 0
DWIDTH 10 0
BBX 9 10 1 0
BITMAP
F000
FC00
0E00
0600
0200
0200
0200
0200
FF80
FF80
ENDCHAR
STARTCHAR 05D2
ENCODING 1490
SWIDTH 315 0
DWIDTH 7 0
BBX 6 10 1 0
BITMAP
F8
F8
18
18
18
38
78
58
C8
CC
ENDCHAR
STARTCHAR 05D3
ENCODING 1491
SWIDTH 450 0
DWIDTH 10 0
BBX 9 10 1 0
BITMAP
FF80
FF80
0200
0200
0200
0200
0200
0200
0200
0200
ENDCHAR
STARTCHAR 05D4
ENCODING 1492
SWIDTH 450 0
DWIDTH 10 0
BBX 9 10 1 0
BITMAP
FC00
FE00
0300
0100
0180
C180
C180
C180
C180
C180
ENDCHAR
STARTCHAR 05D5
ENCODING 1493
SWIDTH 135 0
DWIDTH 3 0
BBX 2 10 1 0
BITMAP
C0
C0
C0
C0
C0
C0
C0
C0
C0
C0
ENDCHAR
STARTCHAR 05D6
ENCODING 1494
SWIDTH 360 0
DWIDTH 8 0
BBX 7 10 1 0
BITMAP
FE
FE
10
10
10
10
10
10
10
10
ENDCHAR
STARTCHAR 05D7
ENCODING 1495
SWIDTH 450 0
DWIDTH 10 0
BBX 9 10 1 0
BITMAP
FC00
FE00
C300
C100
C180
C180
C180
C180
C180
C180
ENDCHAR
STARTCHAR 05D8
ENCODING 1496
SWIDTH 450 0
DWIDTH 10 0
BBX 9 10 1 0
BITMAP
CE00
CF00
C180
C180
C180
C180
C180
C100
7700
3E00
ENDCHAR
STARTCHAR 05D9
ENCODING 1497
SWIDTH 135 0
DWIDTH 3 0
BBX 2 4 1 6
BITMAP
C0
C0
C0
C0
ENDCHAR
STARTCHAR 05DA
ENCODING 1498
SWIDTH 405 0
DWIDTH 9 0
BBX 8 15 1 -5
BITMAP
F8
FC
06
02
03
03
03
03
03
03
03
03
03
03
01
ENDCHAR
STARTCHAR 05DB
ENCODING 1499
SWIDTH 405 0
DWIDTH 9 0
BBX 8 10 1 0
BITMAP
F8
FC
06
02
03
03
02
06
FC
F8
ENDCHAR
STARTCHAR 05DC
ENCODING 1500
SWIDTH 405 0
DWIDTH 9 0
BBX 8 14 1 0
BITMAP
C0
C0
C0
C0
FF
FF
03
03
06
0C
08
18
18
18
ENDCHAR
STARTCHAR 05DD
ENCODING 1501
SWIDTH 450 0
DWIDTH 10 0
BBX 9 10 1 0
BITMAP
FC00
FE00
C300
C100
C180
C180
C180
C180
FF80
FF80
ENDCHAR
STARTCHAR 05DE
ENCODING 1502
SWIDTH 540 0
DWIDTH 12 0
BBX 11 10 1 0
BITMAP
CF80
5DC0
70C0
7060
3060
2060
6060
6060
43E0
C3E0
ENDCHAR
STARTCHAR 05DF
ENCODING 1503
SWIDTH 135 0
DWIDTH 3 0
BBX 2 15 1 -5
BITMAP
C0
C0
C0
C0
C0
C0
C0
C0
C0
C0
C0
C0
C0
C0
40
ENDCHAR
STARTCHAR 05E0
ENCODING 1504
SWIDTH 270 0
DWIDTH 6 0
BBX 4 10 1 0
BITMAP
E0
F0
10
10
10
10
10
10
F0
F0
ENDCHAR
STARTCHAR 05E1
ENCODING 1505
SWIDTH 450 0
DWIDTH 10 0
BBX 9 10 1 0
BITMAP
3E00
7700
4300
C180
C180
C180
C180
4300
7700
3E00
ENDCHAR
STARTCHAR 05E2
ENCODING 1506
SWIDTH 495 0
DWIDTH 11 0
BBX 9 10 1 0
BITMAP
C080
4180
6180
6180
2300
3600
3E00
1C00
F800
E000
ENDCHAR
STARTCHAR 05E3
ENCODING 1507
SWIDTH 450 0
DWIDTH 10 0
BBX 9 15 1 -5
BITMAP
FC00
FE00
C300
C180
F180
0180
0180
0180
0180
0180
0180
0180
0180
0180
0080
ENDCHAR
STARTCHAR 05E4
ENCODING 1508
SWIDTH 450 0
DWIDTH 10 0
BBX 9 10 1 0
BITMAP
FC00
FE00
C300
C180
F180
0180
0180
0300
7E00
7C00
ENDCHAR
STARTCHAR 05E5
ENCODING 1509
SWIDTH 495 0
DWIDTH 11 0
BBX 9 15 2 -5
BITMAP
C180
6180
2180
3300
3300
3E00
3C00
3000
3000
3000
3000
3000
3000
3000
1000
ENDCHAR
STARTCHAR 05E6
ENCODING 1510
SWIDTH 495 0
DWIDTH 11 0
BBX 9 10 1 0
BITMAP
C180
6100
3100
1B00
1B00
0E00
0600
0600
FF00
FF80
ENDCHAR
STARTCHAR 05E7
ENCODING 1511
SWIDTH 405 0
DWIDTH 9 0
BBX 8 15 1 -5
BITMAP
FF
FF
03
03
C6
CC
C8
D8
D8
D8
C0
C0
C0
C0
40
ENDCHAR
STARTCHAR 05E8
ENCODING 1512
SWIDTH 405 0
DWIDTH 9 0
BBX 8 10 1 0
BITMAP
F8
FC
06
02
03
03
03
03
03
03
ENDCHAR
STARTCHAR 05E9
ENCODING 1513
SWIDTH 630 0
DWIDTH 14 0
BBX 12 10 1 0
BITMAP
C430
C630
C630
C630
C430
CC30
6C60
7860
39C0
1F80
ENDCHAR
STARTCHAR 05EA
ENCODING 1514
SWIDTH 495 0
DWIDTH 11 0
BBX 10 10 1 0
BITMAP
FE00
FF00
2180
20C0
20C0
20C0
20C0
20C0
E0C0
E0C0
ENDCHAR
STARTCHAR 05EF
ENCODING 1519
SWIDTH 360 0
DWIDTH 8 0
BBX 6 8 1 6
BITMAP
30
30
30
30
CC
CC
CC
CC
ENDCHAR
STARTCHAR 05F0
ENCODING 1520
SWIDTH 315 0
DWIDTH 7 0
BBX 5 10 1 0
BITMAP
D8
D8
D8
D8
D8
D8
D8
D8
D8
D8
ENDCHAR
STARTCHAR 05F1
ENCODING 1521
SWIDTH 315 0
DWIDTH 7 0
BBX 5 10 1 0
BITMAP
D8
D8
D8
D8
18
18
18
18
18
18
ENDCHAR
STARTCHAR 05F2
ENCODING 1522
SWIDTH 315 0
DWIDTH 7 0
BBX 5 4 1 6
BITMAP
D8
D8
D8
D8
ENDCHAR
STARTCHAR 05F3
ENCODING 1523
SWIDTH 225 0
DWIDTH 5 0
BBX 3 6 1 5
BITMAP
60
60
40
40
80
80
ENDCHAR
STARTCHAR 05F4
ENCODING 1524
SWIDTH 360 0
DWIDTH 8 0
BBX 6 6 1 5
BITMAP
6C
6C
4C
48
88
90
ENDCHAR
STARTCHAR 0606
ENCODING 1542
SWIDTH 540 0
DWIDTH 12 0
BBX 11 16 1 0
BITMAP
02E0
02E0
C3C0
4200
6200
6200
3200
3000
17E0
1FE0
1E00
0E00
0E00
0E00
0600
0600
ENDCHAR
STARTCHAR 0607
ENCODING 1543
SWIDTH 540 0
DWIDTH 12 0
BBX 11 16 1 0
BITMAP
01C0
0200
C300
41C0
6200
6200
31C0
3000
17E0
1FE0
1E00
0E00
0E00
0E00
0600
0600
ENDCHAR
STARTCHAR 0608
ENCODING 1544
SWIDTH 990 0
DWIDTH 22 0
BBX 20 15 1 -5
BITMAP
001E30
003B30
006130
006130
F84130
F84130
186130
186130
183FF0
181FE0
0C0100
0E0300
070600
01FC00
006000
ENDCHAR
STARTCHAR 0609
ENCODING 1545
SWIDTH 765 0
DWIDTH 17 0
BBX 15 15 1 0
BITMAP
2000
6030
6060
00C0
0180
0180
0300
0600
0600
0C00
1800
1800
3000
6066
C066
ENDCHAR
STARTCHAR 060A
ENCODING 1546
SWIDTH 945 0
DWIDTH 21 0
BBX 20 15 1 0
BITMAP
200000
603000
606000
00C000
018000
018000
030000
060000
060000
0C0000
180000
180000
300000
606630
C06630
ENDCHAR
STARTCHAR 060B
ENCODING 1547
SWIDTH 450 0
DWIDTH 10 0
BBX 9 21 1 -7
BITMAP
0400
0E00
0000
0000
1F00
3B80
3180
6180
6180
6180
6180
3180
FF80
FF00
0000
0400
0400
0400
0400
0400
0400
ENDCHAR
STARTCHAR 060C
ENCODING 1548
SWIDTH 180 0
DWIDTH 4 0
BBX 3 5 1 1
BITMAP
40
80
80
E0
E0
ENDCHAR
STARTCHAR 060D
ENCODING 1549
SWIDTH 225 0
DWIDTH 5 0
BBX 5 10 -1 -4
BITMAP
18
18
18
30
30
20
60
60
40
C0
ENDCHAR
STARTCHAR 060E
ENCODING 1550
SWIDTH 855 0
DWIDTH 19 0
BBX 17 7 1 0
BITMAP
1C0000
7E0000
630000
C18000
C18000
FFFF80
FFFF80
ENDCHAR
STARTCHAR 060F
ENCODING 1551
SWIDTH 495 0
DWIDTH 11 0
BBX 9 15 1 -5
BITMAP
1F80
3F80
3000
1000
1800
1800
0F00
1F00
3400
3F00
7180
F080
7980
1F00
0600
ENDCHAR
STARTCHAR 0615
ENCODING 1557
SWIDTH 0 0
DWIDTH 0 0
BBX 8 7 -4 11
BITMAP
40
40
5F
71
61
41
FF
ENDCHAR
STARTCHAR 0617
ENCODING 1559
SWIDTH 0 0
DWIDTH 0 0
BBX 3 9 -1 11
BITMAP
60
00
40
40
40
40
40
40
C0
ENDCHAR
STARTCHAR 0618
ENCODING 1560
SWIDTH 0 0
DWIDTH 0 0
BBX 2 1 -1 13
BITMAP
C0
ENDCHAR
STARTCHAR 0619
ENCODING 1561
SWIDTH 0 0
DWIDTH 0 0
BBX 3 3 -1 12
BITMAP
60
A0
40
ENDCHAR
ENDFONT
